<?xml version="1.0" encoding="utf-8"?>
<!-- Generator: Adobe Illustrator 25.2.0, SVG Export Plug-In . SVG Version: 6.00 Build 0)  -->
<svg version="1.1" id="Layer_1" xmlns="http://www.w3.org/2000/svg" xmlns:xlink="http://www.w3.org/1999/xlink" x="0px" y="0px"
	 viewBox="0 0 32 32" style="enable-background:new 0 0 32 32;" xml:space="preserve">
<style type="text/css">
	.st0{fill:#303B69;}
</style>
<g>
	<path class="st0" d="M31.4,21c-0.3,0.3-0.4,0.4-0.8,0.1c-1.9-1.1-3.8-2.2-5.6-3.2c-0.2-0.1-0.2-0.2-0.2-0.4c0-3,0-5.9,0-8.9
		c0-0.2,0-0.3,0.2-0.4c1.9-1.1,3.8-2.2,5.6-3.3c0.3-0.2,0.5-0.1,0.8,0.1C31.4,10.4,31.4,15.7,31.4,21z"/>
	<path class="st0" d="M4.8,28.2C5,27.6,5.1,27,5.3,26.4c0.3-1.1,0.6-2.1,0.8-3.2c0.1-0.5,0-0.8-0.6-0.8c-0.9,0-1.8,0-2.8,0
		c-1.3,0-2.2-0.9-2.2-2.2c0-4.8,0-9.5,0-14.3c0-1.3,0.9-2.2,2.2-2.2c6.3,0,12.6,0,18.9,0c1.3,0,2.2,0.9,2.2,2.2c0,4.8,0,9.5,0,14.3
		c0,1.3-0.9,2.2-2.2,2.2c-3.5,0-7.1,0-10.6,0c-0.3,0-0.6,0.1-0.8,0.3c-1.7,1.8-3.4,3.5-5.1,5.3C5,28.1,5,28.2,4.8,28.2
		C4.9,28.2,4.8,28.2,4.8,28.2z"/>
</g>
</svg>
