<svg width="19" height="21" viewBox="0 0 19 21" fill="currentColor" xmlns="http://www.w3.org/2000/svg">
<path d="M9.06237 0.996216C13.1123 0.996216 16.419 4.19096 16.5582 8.24527L16.5624 8.49622V12.5932L17.9424 15.7492C18.0114 15.9071 18.0471 16.0776 18.0471 16.25C18.0471 16.9403 17.4874 17.5 16.7971 17.5L12.0624 17.5015C12.0624 19.1583 10.7192 20.5015 9.06237 20.5015C7.46469 20.5015 6.15871 19.2526 6.06746 17.6778L6.06191 17.4992L1.33723 17.5C1.16589 17.5 0.996383 17.4648 0.83923 17.3965C0.206028 17.1215 -0.0843211 16.3852 0.190718 15.752L1.56237 12.5941V8.49611C1.56296 4.34132 4.91445 0.996216 9.06237 0.996216ZM10.5619 17.4992L7.56237 17.5015C7.56237 18.3299 8.23394 19.0015 9.06237 19.0015C9.84206 19.0015 10.4828 18.4066 10.5555 17.6459L10.5619 17.4992ZM9.06237 2.49622C5.74221 2.49622 3.06284 5.17047 3.06237 8.49622V12.9058L1.71839 16H16.4149L15.0624 12.9068L15.0625 8.50907L15.0587 8.28387C14.9477 5.0504 12.3039 2.49622 9.06237 2.49622Z" fill="currentColor"/>
</svg>
