<svg width="21" height="20" viewBox="0 0 21 20" fill="none" xmlns="http://www.w3.org/2000/svg">
<path d="M5.32841 10.4852L10.9853 4.82839C12.1568 3.65681 14.0563 3.65681 15.2279 4.82839C16.3995 5.99996 16.3995 7.89945 15.2279 9.07103L8.51039 15.7885C7.9246 16.3743 6.97485 16.3743 6.38907 15.7885C5.80328 15.2028 5.80328 14.253 6.38907 13.6672L12.3995 7.65681C12.5947 7.46155 12.5947 7.14497 12.3995 6.94971C12.2042 6.75444 11.8876 6.75444 11.6924 6.94971L5.68196 12.9601C4.70565 13.9364 4.70565 15.5193 5.68196 16.4956C6.65827 17.472 8.24118 17.472 9.21749 16.4956L15.935 9.77813C17.4971 8.21604 17.4971 5.68338 15.935 4.12128C14.3729 2.55918 11.8403 2.55918 10.2782 4.12128L4.6213 9.77813C4.42604 9.9734 4.42604 10.29 4.6213 10.4852C4.81656 10.6805 5.13315 10.6805 5.32841 10.4852Z" fill="#242424"/>
</svg>
