<svg width="25" height="24" viewBox="0 0 25 24" fill="none" xmlns="http://www.w3.org/2000/svg">
<mask id="mask0_9522_235837" style="mask-type:luminance" maskUnits="userSpaceOnUse" x="0" y="0" width="25" height="24">
<path d="M7.11896 2.41795L8.28596 2.06619C9.60846 1.66755 11.0215 2.31179 11.5878 3.57161L12.4895 5.57733C12.9722 6.65117 12.7178 7.91317 11.8568 8.71612L10.3625 10.1096C10.3188 10.1503 10.2911 10.2053 10.2845 10.2647C10.2402 10.6618 10.5094 11.4352 11.1296 12.5095C11.5807 13.2908 11.9889 13.8387 12.3364 14.1468C12.5785 14.3615 12.7118 14.4079 12.7686 14.391L14.7789 13.7764C15.9045 13.4323 17.1243 13.8426 17.813 14.7971L19.0937 16.5721C19.8998 17.6893 19.7549 19.2306 18.7546 20.1779L17.8682 21.0173C16.9118 21.9231 15.5502 22.2606 14.2815 21.9065C11.5274 21.1378 9.05809 18.8137 6.84622 14.9826C4.63127 11.1462 3.85408 7.84173 4.57053 5.06994C4.8984 3.80146 5.86453 2.79607 7.11896 2.41795ZM7.55186 3.85413C6.7992 4.081 6.21952 4.68423 6.0228 5.44532C5.42015 7.77684 6.10901 10.7057 8.14526 14.2326C10.1788 17.7548 12.3677 19.815 14.6848 20.4617C15.446 20.6742 16.2629 20.4717 16.8368 19.9282L17.7231 19.0888C18.1778 18.6582 18.2437 17.9576 17.8773 17.4498L16.5966 15.6748C16.2835 15.241 15.7291 15.0544 15.2174 15.2109L13.2021 15.827C12.0324 16.1757 10.9707 15.2342 9.83061 13.2595C9.0623 11.9288 8.70421 10.9001 8.79378 10.0982C8.84018 9.68273 9.03375 9.29763 9.33947 9.01254L10.8338 7.61909C11.2252 7.25411 11.3408 6.68047 11.1214 6.19237L10.2197 4.18665C9.96227 3.614 9.31999 3.32116 8.71886 3.50236L7.55186 3.85413Z" fill="white"/>
</mask>
<g mask="url(#mask0_9522_235837)">
<rect x="0.0625" width="24" height="24" fill="currentColor"/>
</g>
</svg>
