<svg width="24" height="24" viewBox="0 0 24 24" fill="none" xmlns="http://www.w3.org/2000/svg">
<path d="M12.0663 0.5C18.4176 0.5 23.5663 5.64873 23.5663 12C23.5663 18.3513 18.4176 23.5 12.0663 23.5C10.1453 23.5 8.29145 23.0278 6.637 22.1401L2.13196 23.4928C1.47077 23.6913 0.773818 23.3163 0.575273 22.6551C0.504828 22.4205 0.504859 22.1704 0.575354 21.9358L1.92844 17.4333C1.03936 15.7779 0.566347 13.9226 0.566347 12C0.566347 5.64873 5.71507 0.5 12.0663 0.5ZM12.0663 2C6.5435 2 2.06635 6.47715 2.06635 12C2.06635 13.7703 2.52631 15.4718 3.38818 16.9725L3.54903 17.2526L2.14562 21.9225L6.81759 20.5197L7.09747 20.6803C8.59728 21.5408 10.2975 22 12.0663 22C17.5892 22 22.0663 17.5228 22.0663 12C22.0663 6.47715 17.5892 2 12.0663 2ZM8.31635 13.5H12.8146C13.2288 13.5 13.5646 13.8358 13.5646 14.25C13.5646 14.6297 13.2825 14.9435 12.9164 14.9932L12.8146 15H8.31635C7.90213 15 7.56635 14.6642 7.56635 14.25C7.56635 13.8703 7.8485 13.5565 8.21458 13.5068L8.31635 13.5H12.8146H8.31635ZM8.31635 9H15.8208C16.235 9 16.5708 9.33579 16.5708 9.75C16.5708 10.1297 16.2887 10.4435 15.9226 10.4932L15.8208 10.5H8.31635C7.90213 10.5 7.56635 10.1642 7.56635 9.75C7.56635 9.3703 7.8485 9.05651 8.21458 9.00685L8.31635 9H15.8208H8.31635Z" fill="currentColor"/>
</svg>
