<?xml version="1.0" encoding="utf-8"?>
<!-- Generator: Adobe Illustrator 25.2.0, SVG Export Plug-In . SVG Version: 6.00 Build 0)  -->
<svg version="1.1" id="Layer_1" xmlns="http://www.w3.org/2000/svg" xmlns:xlink="http://www.w3.org/1999/xlink" x="0px" y="0px"
	 viewBox="0 0 32 32" style="enable-background:new 0 0 32 32;" xml:space="preserve">
<g>
	<path d="M28.25,17.55c-0.21,0.26-0.31,0.28-0.61,0.11c-1.5-0.86-3-1.73-4.5-2.59c-0.14-0.08-0.19-0.16-0.19-0.32
		c0.01-2.37,0.01-4.75,0-7.12c0-0.15,0.04-0.23,0.17-0.3c1.51-0.86,3.01-1.73,4.51-2.61c0.24-0.14,0.43-0.11,0.61,0.08
		C28.25,9.05,28.25,13.3,28.25,17.55z"/>
	<path d="M7.01,23.29c0.13-0.48,0.25-0.97,0.38-1.45c0.22-0.85,0.45-1.7,0.67-2.55c0.11-0.43-0.03-0.63-0.48-0.63
		c-0.74,0-1.48,0-2.21,0c-1.05,0-1.76-0.7-1.76-1.74c0-3.81,0-7.62,0-11.43c0-1.03,0.7-1.74,1.73-1.74c5.02,0,10.04,0,15.06,0
		c1.03,0,1.73,0.7,1.73,1.74c0,3.81,0,7.62,0,11.43c0,1.03-0.71,1.74-1.74,1.74c-2.83,0-5.66,0-8.49,0c-0.26,0-0.45,0.08-0.63,0.27
		c-1.36,1.42-2.72,2.84-4.08,4.25c-0.05,0.05-0.09,0.11-0.13,0.16C7.04,23.31,7.03,23.3,7.01,23.29z"/>
</g>
<g>
	<path d="M1.75,24.66c0.12-0.12,0.25-0.2,0.41-0.27c0.16-0.06,0.33-0.09,0.53-0.09c0.19,0,0.37,0.04,0.53,0.11
		c0.16,0.07,0.31,0.18,0.44,0.32l0.44-0.41c-0.17-0.2-0.38-0.35-0.63-0.46c-0.25-0.1-0.52-0.15-0.82-0.15
		c-0.28,0-0.54,0.05-0.78,0.14c-0.24,0.09-0.44,0.22-0.62,0.39s-0.32,0.37-0.41,0.6c-0.1,0.23-0.15,0.48-0.15,0.75
		c0,0.27,0.05,0.52,0.15,0.75c0.1,0.23,0.23,0.43,0.41,0.6c0.18,0.17,0.38,0.3,0.62,0.39c0.24,0.09,0.5,0.14,0.78,0.14
		c0.3,0,0.58-0.05,0.83-0.16c0.25-0.1,0.46-0.26,0.63-0.46l-0.44-0.42c-0.13,0.15-0.28,0.25-0.44,0.33
		c-0.16,0.07-0.34,0.11-0.53,0.11c-0.19,0-0.37-0.03-0.53-0.09c-0.16-0.06-0.3-0.15-0.41-0.27c-0.12-0.12-0.21-0.25-0.27-0.41
		c-0.06-0.16-0.1-0.33-0.1-0.52s0.03-0.36,0.1-0.52C1.54,24.91,1.63,24.77,1.75,24.66z"/>
	<path d="M6.61,24.77c-0.22-0.12-0.48-0.18-0.77-0.18c-0.29,0-0.54,0.06-0.76,0.18c-0.22,0.12-0.4,0.29-0.53,0.5
		c-0.13,0.21-0.19,0.46-0.19,0.74c0,0.28,0.06,0.52,0.19,0.74c0.13,0.22,0.31,0.39,0.53,0.51c0.22,0.12,0.48,0.19,0.76,0.19
		c0.29,0,0.55-0.06,0.77-0.19c0.23-0.12,0.4-0.29,0.53-0.51c0.13-0.22,0.19-0.46,0.19-0.74c0-0.28-0.06-0.53-0.19-0.74
		C7.01,25.06,6.84,24.89,6.61,24.77z M6.57,26.48c-0.07,0.13-0.17,0.23-0.3,0.3c-0.13,0.07-0.27,0.1-0.43,0.1
		c-0.16,0-0.3-0.04-0.42-0.1c-0.12-0.07-0.22-0.17-0.3-0.3s-0.11-0.29-0.11-0.46c0-0.18,0.04-0.34,0.11-0.47
		c0.07-0.13,0.17-0.23,0.3-0.3c0.12-0.07,0.27-0.11,0.43-0.11c0.16,0,0.3,0.04,0.42,0.11c0.13,0.07,0.22,0.17,0.3,0.3
		c0.07,0.13,0.11,0.29,0.11,0.47C6.67,26.2,6.64,26.35,6.57,26.48z"/>
	<path d="M10.14,24.72c-0.18-0.09-0.38-0.13-0.6-0.13c-0.24,0-0.46,0.05-0.65,0.14C8.77,24.8,8.67,24.89,8.58,25v-0.38H7.96v2.79
		h0.65V26c0-0.19,0.03-0.34,0.1-0.47c0.06-0.12,0.16-0.22,0.27-0.28c0.12-0.06,0.25-0.09,0.41-0.09c0.21,0,0.37,0.06,0.49,0.18
		s0.18,0.31,0.18,0.55v1.52h0.65v-1.6c0-0.28-0.05-0.51-0.15-0.69C10.46,24.94,10.32,24.81,10.14,24.72z"/>
	<polygon points="14.27,23.75 13.04,26.57 11.82,23.75 11.09,23.75 12.69,27.41 13.36,27.41 14.95,23.75 	"/>
	<path d="M17.09,24.77c-0.23-0.12-0.48-0.18-0.77-0.18c-0.29,0-0.54,0.06-0.76,0.18c-0.22,0.12-0.4,0.29-0.53,0.5
		c-0.13,0.21-0.19,0.46-0.19,0.74c0,0.28,0.06,0.52,0.19,0.74c0.13,0.22,0.31,0.39,0.53,0.51c0.22,0.12,0.48,0.19,0.76,0.19
		c0.29,0,0.55-0.06,0.77-0.19c0.22-0.12,0.4-0.29,0.53-0.51c0.13-0.22,0.19-0.46,0.19-0.74c0-0.28-0.06-0.53-0.19-0.74
		C17.49,25.06,17.32,24.89,17.09,24.77z M17.04,26.48c-0.07,0.13-0.17,0.23-0.3,0.3c-0.13,0.07-0.27,0.1-0.43,0.1
		c-0.16,0-0.3-0.04-0.42-0.1c-0.12-0.07-0.22-0.17-0.3-0.3s-0.11-0.29-0.11-0.46c0-0.18,0.04-0.34,0.11-0.47
		c0.07-0.13,0.17-0.23,0.3-0.3c0.12-0.07,0.27-0.11,0.43-0.11c0.16,0,0.3,0.04,0.42,0.11c0.13,0.07,0.22,0.17,0.3,0.3
		c0.07,0.13,0.11,0.29,0.11,0.47C17.15,26.2,17.12,26.35,17.04,26.48z"/>
	<path d="M20.71,24.77c-0.21-0.12-0.45-0.18-0.73-0.18c-0.23,0-0.43,0.05-0.62,0.15c-0.1,0.06-0.19,0.14-0.27,0.23v-1.44h-0.65v3.88
		h0.62v-0.38c0.08,0.11,0.18,0.2,0.29,0.26c0.18,0.1,0.4,0.16,0.63,0.16c0.28,0,0.52-0.06,0.73-0.18s0.38-0.29,0.5-0.5
		c0.12-0.21,0.19-0.46,0.19-0.75c0-0.29-0.06-0.54-0.19-0.75C21.09,25.05,20.93,24.89,20.71,24.77z M20.63,26.48
		c-0.07,0.13-0.17,0.23-0.29,0.3c-0.12,0.07-0.26,0.1-0.42,0.1c-0.16,0-0.3-0.04-0.42-0.1c-0.12-0.07-0.22-0.17-0.3-0.3
		s-0.11-0.29-0.11-0.46c0-0.18,0.04-0.34,0.11-0.47c0.07-0.13,0.17-0.23,0.3-0.3c0.13-0.07,0.27-0.11,0.42-0.11
		c0.16,0,0.3,0.04,0.42,0.11c0.12,0.07,0.22,0.17,0.29,0.3c0.07,0.13,0.11,0.29,0.11,0.47C20.74,26.2,20.7,26.35,20.63,26.48z"/>
	<path d="M24.07,26.03c0,0.18-0.03,0.34-0.1,0.46c-0.06,0.13-0.15,0.22-0.27,0.28s-0.25,0.09-0.4,0.09c-0.21,0-0.37-0.06-0.48-0.19
		c-0.11-0.12-0.17-0.31-0.17-0.56v-1.51H22v1.59c0,0.28,0.05,0.51,0.15,0.69c0.1,0.18,0.24,0.32,0.42,0.41
		c0.18,0.09,0.39,0.13,0.63,0.13c0.22,0,0.42-0.05,0.6-0.14c0.12-0.07,0.22-0.16,0.3-0.26v0.37h0.62v-2.79h-0.65V26.03z"/>
	<polygon points="27.72,25.03 27.72,24.62 25.39,24.62 25.39,25.14 26.89,25.14 25.35,27 25.35,27.41 27.77,27.41 27.77,26.89 
		26.18,26.89 	"/>
	<polygon points="29.05,26.84 31.21,24.21 31.21,23.75 28.19,23.75 28.19,24.33 30.31,24.33 28.15,26.96 28.15,27.41 31.27,27.41 
		31.27,26.84 	"/>
</g>
</svg>
