<?xml version="1.0" encoding="utf-8"?>
<!-- Generator: Adobe Illustrator 25.2.0, SVG Export Plug-In . SVG Version: 6.00 Build 0)  -->
<svg version="1.1" id="Layer_1" xmlns="http://www.w3.org/2000/svg" xmlns:xlink="http://www.w3.org/1999/xlink" x="0px" y="0px"
	 viewBox="0 0 32 32" style="enable-background:new 0 0 32 32;" xml:space="preserve">
<style type="text/css">
	.st0{fill:#303B69;}
</style>
<g>
	<path class="st0" d="M28.2,17.5c-0.2,0.3-0.3,0.3-0.6,0.1c-1.5-0.9-3-1.7-4.5-2.6c-0.1-0.1-0.2-0.2-0.2-0.3c0-2.4,0-4.8,0-7.1
		c0-0.2,0-0.2,0.2-0.3c1.5-0.9,3-1.7,4.5-2.6c0.2-0.1,0.4-0.1,0.6,0.1C28.2,9.1,28.2,13.3,28.2,17.5z"/>
	<path class="st0" d="M7,23.3c0.1-0.5,0.2-1,0.4-1.5c0.2-0.9,0.4-1.7,0.7-2.5c0.1-0.4,0-0.6-0.5-0.6c-0.7,0-1.5,0-2.2,0
		c-1,0-1.8-0.7-1.8-1.7c0-3.8,0-7.6,0-11.4c0-1,0.7-1.7,1.7-1.7c5,0,10,0,15.1,0c1,0,1.7,0.7,1.7,1.7c0,3.8,0,7.6,0,11.4
		c0,1-0.7,1.7-1.7,1.7c-2.8,0-5.7,0-8.5,0c-0.3,0-0.4,0.1-0.6,0.3c-1.4,1.4-2.7,2.8-4.1,4.2C7.1,23.2,7.1,23.3,7,23.3
		C7,23.3,7,23.3,7,23.3z"/>
</g>
<g>
	<path class="st0" d="M1.8,24.7c0.1-0.1,0.2-0.2,0.4-0.3c0.2-0.1,0.3-0.1,0.5-0.1c0.2,0,0.4,0,0.5,0.1s0.3,0.2,0.4,0.3l0.4-0.4
		c-0.2-0.2-0.4-0.4-0.6-0.5c-0.2-0.1-0.5-0.1-0.8-0.1c-0.3,0-0.5,0-0.8,0.1s-0.4,0.2-0.6,0.4s-0.3,0.4-0.4,0.6
		c-0.1,0.2-0.1,0.5-0.1,0.8s0.1,0.5,0.1,0.8s0.2,0.4,0.4,0.6s0.4,0.3,0.6,0.4s0.5,0.1,0.8,0.1c0.3,0,0.6,0,0.8-0.2
		c0.2-0.1,0.5-0.3,0.6-0.5l-0.4-0.4c-0.1,0.1-0.3,0.2-0.4,0.3c-0.2,0.1-0.3,0.1-0.5,0.1s-0.4,0-0.5-0.1c-0.2-0.1-0.3-0.1-0.4-0.3
		c-0.1-0.1-0.2-0.2-0.3-0.4s-0.1-0.3-0.1-0.5s0-0.4,0.1-0.5C1.5,24.9,1.6,24.8,1.8,24.7z"/>
	<path class="st0" d="M6.6,24.8c-0.2-0.1-0.5-0.2-0.8-0.2s-0.5,0.1-0.8,0.2c-0.2,0.1-0.4,0.3-0.5,0.5c-0.1,0.2-0.2,0.5-0.2,0.7
		s0.1,0.5,0.2,0.7s0.3,0.4,0.5,0.5s0.5,0.2,0.8,0.2c0.3,0,0.6-0.1,0.8-0.2C6.8,27.1,7,27,7.1,26.8s0.2-0.5,0.2-0.7s-0.1-0.5-0.2-0.7
		C7,25.1,6.8,24.9,6.6,24.8z M6.6,26.5c-0.1,0.1-0.2,0.2-0.3,0.3S6,26.9,5.8,26.9s-0.3,0-0.4-0.1c-0.1-0.1-0.2-0.2-0.3-0.3
		S5,26.2,5,26c0-0.2,0-0.3,0.1-0.5s0.2-0.2,0.3-0.3c0.1-0.1,0.3-0.1,0.4-0.1s0.3,0,0.4,0.1c0.1,0.1,0.2,0.2,0.3,0.3
		c0.1,0.1,0.1,0.3,0.1,0.5C6.7,26.2,6.6,26.4,6.6,26.5z"/>
	<path class="st0" d="M10.1,24.7c-0.2-0.1-0.4-0.1-0.6-0.1c-0.2,0-0.5,0-0.6,0.1c-0.1,0.1-0.2,0.2-0.3,0.3v-0.4H8v2.8h0.6V26
		c0-0.2,0-0.3,0.1-0.5c0.1-0.1,0.2-0.2,0.3-0.3c0.1-0.1,0.2-0.1,0.4-0.1c0.2,0,0.4,0.1,0.5,0.2s0.2,0.3,0.2,0.5v1.5h0.6v-1.6
		c0-0.3-0.1-0.5-0.1-0.7C10.5,24.9,10.3,24.8,10.1,24.7z"/>
	<polygon class="st0" points="14.3,23.8 13,26.6 11.8,23.8 11.1,23.8 12.7,27.4 13.4,27.4 14.9,23.8 	"/>
	<path class="st0" d="M17.1,24.8c-0.2-0.1-0.5-0.2-0.8-0.2s-0.5,0.1-0.8,0.2s-0.4,0.3-0.5,0.5s-0.2,0.5-0.2,0.7s0.1,0.5,0.2,0.7
		c0.1,0.2,0.3,0.4,0.5,0.5c0.2,0.1,0.5,0.2,0.8,0.2c0.3,0,0.5-0.1,0.8-0.2c0.2-0.1,0.4-0.3,0.5-0.5c0.1-0.2,0.2-0.5,0.2-0.7
		s-0.1-0.5-0.2-0.7C17.5,25.1,17.3,24.9,17.1,24.8z M17,26.5c-0.1,0.1-0.2,0.2-0.3,0.3s-0.3,0.1-0.4,0.1s-0.3,0-0.4-0.1
		c-0.1-0.1-0.2-0.2-0.3-0.3s-0.1-0.3-0.1-0.5c0-0.2,0-0.3,0.1-0.5s0.2-0.2,0.3-0.3c0.1-0.1,0.3-0.1,0.4-0.1s0.3,0,0.4,0.1
		c0.1,0.1,0.2,0.2,0.3,0.3c0.1,0.1,0.1,0.3,0.1,0.5C17.1,26.2,17.1,26.4,17,26.5z"/>
	<path class="st0" d="M20.7,24.8c-0.2-0.1-0.5-0.2-0.7-0.2c-0.2,0-0.4,0-0.6,0.1c-0.1,0.1-0.2,0.1-0.3,0.2v-1.4h-0.6v3.9h0.6V27
		c0.1,0.1,0.2,0.2,0.3,0.3c0.2,0.1,0.4,0.2,0.6,0.2c0.3,0,0.5-0.1,0.7-0.2s0.4-0.3,0.5-0.5s0.2-0.5,0.2-0.8s-0.1-0.5-0.2-0.8
		C21.1,25,20.9,24.9,20.7,24.8z M20.6,26.5c-0.1,0.1-0.2,0.2-0.3,0.3s-0.3,0.1-0.4,0.1s-0.3,0-0.4-0.1c-0.1-0.1-0.2-0.2-0.3-0.3
		s-0.1-0.3-0.1-0.5c0-0.2,0-0.3,0.1-0.5s0.2-0.2,0.3-0.3s0.3-0.1,0.4-0.1c0.2,0,0.3,0,0.4,0.1s0.2,0.2,0.3,0.3
		c0.1,0.1,0.1,0.3,0.1,0.5C20.7,26.2,20.7,26.4,20.6,26.5z"/>
	<path class="st0" d="M24.1,26c0,0.2,0,0.3-0.1,0.5c-0.1,0.1-0.1,0.2-0.3,0.3s-0.2,0.1-0.4,0.1c-0.2,0-0.4-0.1-0.5-0.2
		c-0.1-0.1-0.2-0.3-0.2-0.6v-1.5H22v1.6c0,0.3,0,0.5,0.1,0.7s0.2,0.3,0.4,0.4s0.4,0.1,0.6,0.1c0.2,0,0.4,0,0.6-0.1
		c0.1-0.1,0.2-0.2,0.3-0.3v0.4h0.6v-2.8h-0.6V26z"/>
	<polygon class="st0" points="27.7,25 27.7,24.6 25.4,24.6 25.4,25.1 26.9,25.1 25.4,27 25.4,27.4 27.8,27.4 27.8,26.9 26.2,26.9 	
		"/>
	<polygon class="st0" points="29,26.8 31.2,24.2 31.2,23.8 28.2,23.8 28.2,24.3 30.3,24.3 28.1,27 28.1,27.4 31.3,27.4 31.3,26.8 	
		"/>
</g>
</svg>
