<svg width="24" height="24" viewBox="0 0 24 24" fill="none" xmlns="http://www.w3.org/2000/svg">
<path d="M19.4595 13.7143C19.9005 13.7143 20.3286 13.76 20.7568 13.8171V10.2857C20.7568 9.67951 20.4834 9.09813 19.9968 8.66947C19.5102 8.24082 18.8503 8 18.1622 8H16.8649V5.71429C16.8649 2.56 13.9589 0 10.3784 0C6.79784 0 3.89189 2.56 3.89189 5.71429V8H2.59459C1.90647 8 1.24652 8.24082 0.759939 8.66947C0.273358 9.09813 0 9.67951 0 10.2857V21.7143C0 22.9829 1.15459 24 2.59459 24H12.7265C12.0649 22.9943 11.6757 21.8286 11.6757 20.5714C11.6757 16.7886 15.1654 13.7143 19.4595 13.7143ZM6.48649 5.71429C6.48649 3.81714 8.22486 2.28571 10.3784 2.28571C12.5319 2.28571 14.2703 3.81714 14.2703 5.71429V8H6.48649V5.71429ZM10.3784 18.2857C9.86522 18.2857 9.36358 18.1517 8.9369 17.9005C8.51022 17.6493 8.17766 17.2924 7.98128 16.8747C7.78491 16.457 7.73352 15.9975 7.83364 15.5541C7.93375 15.1107 8.18086 14.7034 8.54372 14.3838C8.90658 14.0641 9.3689 13.8464 9.8722 13.7582C10.3755 13.67 10.8972 13.7153 11.3713 13.8883C11.8454 14.0613 12.2506 14.3542 12.5357 14.7301C12.8208 15.106 12.973 15.5479 12.973 16C12.973 17.2686 11.8184 18.2857 10.3784 18.2857ZM24 18.5714L17.8378 24L14.2703 20.5714L15.7751 19.2457L17.8378 21.0629L22.4951 16.96L24 18.5714Z" fill="#303B69"/>
</svg>
