<svg width="21" height="20" viewBox="0 0 21 20" fill="none" xmlns="http://www.w3.org/2000/svg">
<path d="M10.5 2C14.9183 2 18.5 5.58172 18.5 10C18.5 14.4183 14.9183 18 10.5 18C6.08172 18 2.5 14.4183 2.5 10C2.5 5.58172 6.08172 2 10.5 2ZM10.5 3C6.63401 3 3.5 6.13401 3.5 10C3.5 13.866 6.63401 17 10.5 17C14.366 17 17.5 13.866 17.5 10C17.5 6.13401 14.366 3 10.5 3ZM7.65467 12.4273C9.16416 13.9463 11.5877 14.0045 13.1671 12.5961L13.3453 12.4273C13.54 12.2314 13.8566 12.2304 14.0524 12.4251C14.2265 12.5981 14.2467 12.8674 14.1123 13.0627L14.0547 13.1322L14.0323 13.1545C12.0691 15.1054 8.89616 15.0953 6.94533 13.1322C6.75069 12.9363 6.75169 12.6197 6.94757 12.4251C7.14344 12.2304 7.46002 12.2314 7.65467 12.4273ZM13 7.5C13.5523 7.5 14 7.94772 14 8.5C14 9.05228 13.5523 9.5 13 9.5C12.4477 9.5 12 9.05228 12 8.5C12 7.94772 12.4477 7.5 13 7.5ZM8 7.5C8.55228 7.5 9 7.94772 9 8.5C9 9.05228 8.55228 9.5 8 9.5C7.44772 9.5 7 9.05228 7 8.5C7 7.94772 7.44772 7.5 8 7.5Z" fill="#242424"/>
</svg>
