<svg width="268" height="249" viewBox="0 0 268 249" fill="none" xmlns="http://www.w3.org/2000/svg">
<g filter="url(#filter0_d_114_3)">
<rect x="4" width="260" height="241" rx="9" fill="#F2EFEF"/>
</g>
<path d="M42.6182 148.315C42.5564 148.315 42.4972 148.295 42.4535 148.261C42.1252 148 41.59 143.215 40.1486 128.97C39.5589 123.141 39.0018 117.635 38.5952 114.289C38.5663 114.05 38.4496 114.022 38.4114 114.013C37.855 113.88 36.1625 114.94 35.2177 115.868C35.1788 115.906 35.1224 115.931 35.061 115.936C34.9995 115.941 34.9379 115.927 34.8898 115.896C34.8418 115.865 34.8111 115.82 34.8046 115.771C34.7981 115.723 34.8163 115.674 34.8551 115.635C35.48 115.022 37.5164 113.413 38.5454 113.659C38.753 113.708 39.0114 113.852 39.0594 114.254C39.4662 117.602 40.0233 123.11 40.6132 128.94C41.4891 137.597 42.4814 147.404 42.8074 148.022C42.8324 148.05 42.8473 148.082 42.8504 148.116C42.8536 148.15 42.8449 148.184 42.8254 148.214C42.8058 148.245 42.7762 148.27 42.7396 148.288C42.703 148.305 42.661 148.315 42.6182 148.315Z" fill="#494949"/>
<path d="M37.9973 120.429C41.8636 117.967 43.1451 114.135 40.8595 111.87C38.5739 109.605 33.5868 109.765 29.7205 112.227C25.8542 114.689 24.5727 118.521 26.8583 120.786C29.1438 123.051 34.131 122.891 37.9973 120.429Z" fill="#0CBC8B"/>
<path opacity="0.2" d="M37.9973 120.429C41.8636 117.967 43.1451 114.135 40.8595 111.87C38.5739 109.605 33.5868 109.765 29.7205 112.227C25.8542 114.689 24.5727 118.521 26.8583 120.786C29.1438 123.051 34.131 122.891 37.9973 120.429Z" fill="white"/>
<path d="M27.9416 121.362C27.9195 121.361 27.8979 121.356 27.8792 121.347C27.8606 121.338 27.8457 121.324 27.8364 121.308C27.827 121.292 27.8235 121.275 27.8263 121.257C27.8291 121.24 27.838 121.223 27.8521 121.21L38.8709 110.654C38.8908 110.636 38.919 110.625 38.9495 110.623C38.9799 110.621 39.0101 110.628 39.0336 110.644C39.0571 110.659 39.072 110.681 39.075 110.706C39.0781 110.73 39.0691 110.754 39.05 110.773L28.0313 121.328C28.0203 121.339 28.0066 121.347 27.9911 121.353C27.9756 121.359 27.9587 121.362 27.9416 121.362Z" fill="white"/>
<path d="M45.0216 146.052C44.9844 146.052 44.9477 146.045 44.9146 146.032C44.8816 146.018 44.8531 145.998 44.8315 145.974C44.81 145.95 44.796 145.922 44.7907 145.893C44.7855 145.864 44.7891 145.834 44.8014 145.806L48.9404 136.35C49.0622 136.073 49.2699 135.823 49.5443 135.626C49.8188 135.428 50.1513 135.289 50.5113 135.22C50.8713 135.151 51.2474 135.154 51.6051 135.231C51.9628 135.307 52.2906 135.454 52.5586 135.657L54.7467 137.317C54.7914 137.351 54.8173 137.398 54.8187 137.447C54.8201 137.496 54.7969 137.544 54.7542 137.579C54.7115 137.615 54.6528 137.635 54.591 137.636C54.5292 137.637 54.4694 137.619 54.4247 137.585L52.2366 135.925C52.0251 135.764 51.7663 135.649 51.484 135.588C51.2016 135.528 50.9048 135.525 50.6206 135.58C50.3365 135.634 50.074 135.744 49.8574 135.9C49.6407 136.056 49.4768 136.253 49.3805 136.472L45.2415 145.928C45.2256 145.964 45.1959 145.996 45.1565 146.018C45.1171 146.04 45.0699 146.052 45.0216 146.052Z" fill="#494949"/>
<path d="M60.86 142.552C63.7253 140.75 63.555 136.788 60.4796 133.701C57.4043 130.615 52.5884 129.573 49.7231 131.375C46.8577 133.177 47.028 137.139 50.1034 140.226C53.1788 143.312 57.9946 144.354 60.86 142.552Z" fill="#0CBC8B"/>
<path d="M40.7379 147.712C40.6855 147.712 40.6347 147.698 40.5936 147.672C40.5525 147.646 40.5236 147.61 40.5114 147.57L33.5657 124.499C33.5182 124.342 33.4171 124.198 33.2734 124.084C33.1297 123.969 32.949 123.888 32.7512 123.85C32.5534 123.812 32.3462 123.818 32.1523 123.867C31.9583 123.916 31.7853 124.007 31.6521 124.129L29.5111 126.095C29.491 126.113 29.4667 126.128 29.4393 126.139C29.4119 126.15 29.3821 126.157 29.3516 126.158C29.3211 126.16 29.2904 126.157 29.2614 126.149C29.2323 126.142 29.2055 126.13 29.1823 126.114C29.1592 126.098 29.1402 126.078 29.1265 126.057C29.1127 126.035 29.1045 126.011 29.1023 125.987C29.1001 125.963 29.104 125.938 29.1136 125.915C29.1232 125.892 29.1385 125.871 29.1585 125.852L31.2996 123.887C31.4889 123.713 31.7349 123.584 32.0106 123.514C32.2862 123.444 32.5808 123.436 32.8619 123.491C33.143 123.545 33.3998 123.66 33.6039 123.823C33.808 123.986 33.9516 124.191 34.0189 124.414L40.9646 147.485C40.979 147.533 40.9689 147.583 40.9365 147.625C40.9042 147.667 40.8523 147.696 40.7922 147.708C40.7744 147.711 40.7561 147.712 40.7379 147.712Z" fill="#494949"/>
<path d="M38.175 131.22C39.0193 127.341 36.7848 123.796 33.1839 123.301C29.583 122.806 25.9795 125.55 25.1351 129.429C24.2908 133.307 26.5254 136.853 30.1262 137.347C33.7271 137.842 37.3306 135.099 38.175 131.22Z" fill="#0CBC8B"/>
<path d="M42.6186 148.315C42.609 148.315 42.5993 148.315 42.5898 148.314C42.5594 148.311 42.53 148.303 42.5034 148.291C42.4767 148.279 42.4533 148.263 42.4344 148.244C42.4156 148.225 42.4017 148.203 42.3935 148.179C42.3853 148.156 42.3831 148.131 42.3868 148.107L46.8224 119.5C46.8707 119.188 47.0312 118.894 47.2848 118.653C47.5383 118.413 47.8741 118.235 48.2516 118.142C48.6292 118.049 49.0325 118.045 49.413 118.13C49.7936 118.214 50.1352 118.385 50.3968 118.62L55.4664 123.181C55.4867 123.2 55.5023 123.221 55.5122 123.244C55.5221 123.267 55.5263 123.291 55.5244 123.315C55.5225 123.34 55.5146 123.364 55.5012 123.385C55.4877 123.407 55.469 123.427 55.446 123.443C55.4231 123.459 55.3964 123.471 55.3674 123.479C55.3385 123.487 55.3078 123.49 55.2773 123.489C55.2467 123.487 55.2168 123.481 55.1893 123.47C55.1618 123.46 55.1372 123.445 55.1169 123.427L50.0478 118.865C49.8456 118.684 49.5816 118.552 49.2875 118.486C48.9934 118.421 48.6817 118.424 48.3899 118.496C48.0981 118.568 47.8386 118.705 47.6426 118.891C47.4466 119.077 47.3225 119.304 47.2851 119.545L42.8495 148.153C42.8426 148.197 42.8152 148.239 42.7727 148.268C42.7302 148.298 42.6754 148.315 42.6186 148.315Z" fill="#494949"/>
<path d="M60.6659 125.716C62.4347 123.176 60.3536 119.572 56.0176 117.667C51.6816 115.761 46.7326 116.276 44.9638 118.816C43.195 121.357 45.2762 124.96 49.6122 126.866C53.9482 128.771 58.8971 128.256 60.6659 125.716Z" fill="#0CBC8B"/>
<path opacity="0.2" d="M60.86 142.552C63.7253 140.75 63.555 136.788 60.4796 133.701C57.4043 130.615 52.5884 129.573 49.7231 131.375C46.8577 133.177 47.028 137.139 50.1034 140.226C53.1788 143.312 57.9946 144.354 60.86 142.552Z" fill="white"/>
<path opacity="0.5" d="M38.175 131.22C39.0193 127.341 36.7848 123.796 33.1839 123.301C29.583 122.806 25.9795 125.55 25.1351 129.429C24.2908 133.307 26.5254 136.853 30.1262 137.347C33.7271 137.842 37.3306 135.099 38.175 131.22Z" fill="white"/>
<path opacity="0.5" d="M60.6659 125.716C62.4347 123.176 60.3536 119.572 56.0176 117.667C51.6816 115.761 46.7326 116.276 44.9638 118.816C43.195 121.357 45.2762 124.96 49.6122 126.866C53.9482 128.771 58.8971 128.256 60.6659 125.716Z" fill="white"/>
<path d="M48.2912 172.588H36.9451L35.0648 143.75H50.1713L48.2912 172.588Z" fill="#303C6F"/>
<path opacity="0.3" d="M48.2912 172.588H36.9451L35.0648 143.75H50.1713L48.2912 172.588Z" fill="white"/>
<path d="M60.8606 142.644C60.843 142.644 60.8256 142.641 60.8097 142.635C60.7939 142.629 60.78 142.62 60.769 142.609L49.6317 131.432C49.6222 131.422 49.6151 131.412 49.611 131.4C49.6068 131.388 49.6055 131.376 49.6073 131.364C49.609 131.352 49.6138 131.34 49.6212 131.33C49.6287 131.319 49.6387 131.31 49.6507 131.302C49.6627 131.294 49.6764 131.289 49.6911 131.286C49.7059 131.282 49.7213 131.281 49.7364 131.283C49.7516 131.284 49.7664 131.288 49.7797 131.294C49.7931 131.3 49.8049 131.308 49.8144 131.317L60.9517 142.494C60.9653 142.508 60.9738 142.524 60.9763 142.541C60.9787 142.559 60.9749 142.576 60.9654 142.592C60.9559 142.608 60.941 142.621 60.9225 142.63C60.904 142.639 60.8825 142.644 60.8606 142.644Z" fill="white"/>
<path d="M59.9253 126.612C59.9005 126.612 59.8764 126.605 59.8566 126.593L45.605 118.327C45.5926 118.32 45.5822 118.311 45.5742 118.3C45.5662 118.29 45.5609 118.278 45.5586 118.266C45.5562 118.254 45.5569 118.242 45.5605 118.23C45.5641 118.218 45.5706 118.207 45.5796 118.197C45.5886 118.188 45.6 118.179 45.6131 118.173C45.6261 118.167 45.6406 118.162 45.6558 118.161C45.6709 118.159 45.6863 118.159 45.7012 118.162C45.7161 118.165 45.7301 118.17 45.7425 118.177L59.9941 126.444C60.0136 126.456 60.0281 126.472 60.0354 126.49C60.0427 126.509 60.0424 126.529 60.0347 126.547C60.027 126.566 60.0121 126.582 59.9923 126.593C59.9725 126.605 59.9486 126.611 59.9242 126.611L59.9253 126.612Z" fill="white"/>
<path d="M29.5481 137.227C29.538 137.227 29.5279 137.226 29.5181 137.224C29.4882 137.217 29.4628 137.202 29.4473 137.18C29.4318 137.159 29.4276 137.134 29.4356 137.11L33.9725 123.607C33.9759 123.595 33.9823 123.583 33.9915 123.573C34.0006 123.563 34.0123 123.554 34.0257 123.548C34.0392 123.541 34.0541 123.537 34.0697 123.535C34.0853 123.533 34.1012 123.534 34.1165 123.537C34.1317 123.541 34.1459 123.546 34.1583 123.554C34.1707 123.562 34.181 123.571 34.1886 123.582C34.1961 123.593 34.2008 123.605 34.2023 123.618C34.2038 123.63 34.2022 123.643 34.1974 123.655L29.6604 137.158C29.6538 137.178 29.6392 137.195 29.6189 137.207C29.5986 137.22 29.5737 137.227 29.5481 137.227Z" fill="white"/>
<path d="M115.3 146.345H75.8897L69.7152 150.018V130.572C69.7152 129.846 70.0786 129.149 70.7252 128.635C71.3719 128.122 72.2491 127.833 73.1636 127.833H115.3C116.214 127.833 117.091 128.122 117.738 128.635C118.385 129.149 118.748 129.846 118.748 130.572V143.605C118.748 143.965 118.659 144.321 118.486 144.653C118.312 144.986 118.058 145.288 117.738 145.542C117.418 145.797 117.038 145.998 116.619 146.136C116.201 146.274 115.752 146.345 115.3 146.345Z" fill="#F4F4F4"/>
<path d="M114.39 131.952H74.0737C74.0543 131.953 74.035 131.95 74.0169 131.945C73.9987 131.939 73.9822 131.931 73.9682 131.92C73.9542 131.91 73.9431 131.897 73.9355 131.883C73.9279 131.868 73.9239 131.853 73.9239 131.838C73.9239 131.822 73.9279 131.807 73.9355 131.793C73.9431 131.779 73.9542 131.766 73.9682 131.755C73.9822 131.745 73.9987 131.736 74.0169 131.731C74.035 131.725 74.0543 131.723 74.0737 131.723H114.39C114.41 131.723 114.429 131.725 114.447 131.731C114.465 131.736 114.482 131.745 114.496 131.755C114.51 131.766 114.521 131.779 114.529 131.793C114.536 131.807 114.54 131.822 114.54 131.838C114.54 131.853 114.536 131.868 114.529 131.883C114.521 131.897 114.51 131.91 114.496 131.92C114.482 131.931 114.465 131.939 114.447 131.945C114.429 131.95 114.41 131.953 114.39 131.952Z" fill="white"/>
<path d="M114.39 135.639H74.0737C74.0543 135.639 74.035 135.637 74.0169 135.631C73.9987 135.626 73.9822 135.618 73.9682 135.607C73.9542 135.596 73.9431 135.584 73.9355 135.569C73.9279 135.555 73.9239 135.54 73.9239 135.525C73.9239 135.509 73.9279 135.494 73.9355 135.48C73.9431 135.466 73.9542 135.453 73.9682 135.442C73.9822 135.431 73.9987 135.423 74.0169 135.418C74.035 135.412 74.0543 135.41 74.0737 135.41H114.39C114.41 135.41 114.429 135.412 114.447 135.418C114.465 135.423 114.482 135.431 114.496 135.442C114.51 135.453 114.521 135.466 114.529 135.48C114.536 135.494 114.54 135.509 114.54 135.525C114.54 135.54 114.536 135.555 114.529 135.569C114.521 135.584 114.51 135.596 114.496 135.607C114.482 135.618 114.465 135.626 114.447 135.631C114.429 135.637 114.41 135.639 114.39 135.639Z" fill="white"/>
<path d="M114.39 139.325H74.0737C74.0356 139.325 73.999 139.313 73.9721 139.292C73.9451 139.27 73.93 139.241 73.93 139.211C73.93 139.181 73.9451 139.152 73.9721 139.13C73.999 139.109 74.0356 139.097 74.0737 139.097H114.39C114.429 139.097 114.465 139.109 114.492 139.13C114.519 139.152 114.534 139.181 114.534 139.211C114.534 139.241 114.519 139.27 114.492 139.292C114.465 139.313 114.429 139.325 114.39 139.325Z" fill="white"/>
<path d="M105.759 143.012H74.0737C74.0543 143.013 74.035 143.01 74.0169 143.005C73.9987 142.999 73.9822 142.991 73.9682 142.98C73.9542 142.969 73.9431 142.957 73.9355 142.942C73.9279 142.928 73.9239 142.913 73.9239 142.898C73.9239 142.882 73.9279 142.867 73.9355 142.853C73.9431 142.839 73.9542 142.826 73.9682 142.815C73.9822 142.804 73.9987 142.796 74.0169 142.791C74.035 142.785 74.0543 142.783 74.0737 142.783H105.759C105.779 142.783 105.798 142.785 105.816 142.791C105.834 142.796 105.851 142.804 105.865 142.815C105.879 142.826 105.89 142.839 105.898 142.853C105.905 142.867 105.909 142.882 105.909 142.898C105.909 142.913 105.905 142.928 105.898 142.942C105.89 142.957 105.879 142.969 105.865 142.98C105.851 142.991 105.834 142.999 105.816 143.005C105.798 143.01 105.779 143.013 105.759 143.012Z" fill="white"/>
<path d="M78.7323 95.7102H18.6163L11 100.242V76.2527C11.0001 75.3562 11.4484 74.4965 12.2464 73.8626C13.0443 73.2288 14.1266 72.8727 15.255 72.8727H78.7323C79.8607 72.8727 80.943 73.2288 81.7409 73.8627C82.5388 74.4965 82.9871 75.3562 82.9871 76.2527V92.3302C82.987 93.2266 82.5387 94.0863 81.7408 94.7201C80.9429 95.354 79.8607 95.7101 78.7323 95.7102Z" fill="#F4F4F4"/>
<path d="M77.6116 77.9552H16.3767C16.3296 77.9552 16.2844 77.9403 16.2511 77.9139C16.2178 77.8874 16.1991 77.8515 16.1991 77.8141C16.1991 77.7767 16.2178 77.7409 16.2511 77.7144C16.2844 77.688 16.3296 77.6731 16.3767 77.6731H77.6116C77.6587 77.6731 77.7038 77.688 77.7371 77.7144C77.7704 77.7409 77.7891 77.7767 77.7891 77.8141C77.7891 77.8515 77.7704 77.8874 77.7371 77.9139C77.7038 77.9403 77.6587 77.9552 77.6116 77.9552Z" fill="white"/>
<path d="M77.6116 82.5032H16.3767C16.3528 82.5039 16.3291 82.5007 16.3068 82.494C16.2845 82.4872 16.2642 82.4769 16.247 82.4637C16.2298 82.4506 16.2162 82.4348 16.2068 82.4174C16.1975 82.3999 16.1927 82.3812 16.1927 82.3622C16.1927 82.3433 16.1975 82.3245 16.2068 82.3071C16.2162 82.2896 16.2298 82.2739 16.247 82.2607C16.2642 82.2476 16.2845 82.2373 16.3068 82.2305C16.3291 82.2237 16.3528 82.2206 16.3767 82.2213H77.6116C77.6575 82.2226 77.701 82.238 77.7329 82.2643C77.7649 82.2906 77.7827 82.3257 77.7827 82.3622C77.7827 82.3988 77.7649 82.4339 77.7329 82.4601C77.701 82.4864 77.6575 82.5019 77.6116 82.5032Z" fill="white"/>
<path d="M77.6116 87.051H16.3767C16.3528 87.0517 16.3291 87.0486 16.3068 87.0418C16.2845 87.035 16.2642 87.0248 16.247 87.0116C16.2298 86.9985 16.2162 86.9827 16.2068 86.9652C16.1975 86.9478 16.1927 86.929 16.1927 86.9101C16.1927 86.8911 16.1975 86.8724 16.2068 86.8549C16.2162 86.8375 16.2298 86.8217 16.247 86.8086C16.2642 86.7954 16.2845 86.7851 16.3068 86.7784C16.3291 86.7716 16.3528 86.7684 16.3767 86.7691H77.6116C77.6575 86.7705 77.701 86.7859 77.7329 86.8122C77.7649 86.8385 77.7827 86.8736 77.7827 86.9101C77.7827 86.9466 77.7649 86.9817 77.7329 87.008C77.701 87.0343 77.6575 87.0497 77.6116 87.051Z" fill="white"/>
<path d="M66.9635 91.5992H16.3767C16.3296 91.5992 16.2844 91.5844 16.2511 91.5579C16.2178 91.5315 16.1991 91.4956 16.1991 91.4582C16.1991 91.4208 16.2178 91.3849 16.2511 91.3584C16.2844 91.332 16.3296 91.3171 16.3767 91.3171H66.9635C67.0106 91.3171 67.0558 91.332 67.0891 91.3584C67.1224 91.3849 67.1411 91.4208 67.1411 91.4582C67.1411 91.4956 67.1224 91.5315 67.0891 91.5579C67.0558 91.5844 67.0106 91.5992 66.9635 91.5992Z" fill="white"/>
<path d="M116.958 111.154H188.632L197.714 116.559V87.9563C197.714 86.8877 197.179 85.8629 196.228 85.1073C195.276 84.3517 193.986 83.9272 192.641 83.9272H116.958C115.613 83.9274 114.323 84.352 113.372 85.1075C112.421 85.8631 111.886 86.8878 111.886 87.9563V107.125C111.886 108.194 112.42 109.218 113.371 109.974C114.323 110.73 115.613 111.154 116.958 111.154Z" fill="#F4F4F4"/>
<path d="M118.295 89.986H191.303C191.358 89.9845 191.41 89.9662 191.449 89.9348C191.487 89.9034 191.508 89.8615 191.508 89.8178C191.508 89.7742 191.487 89.7322 191.449 89.7008C191.41 89.6695 191.358 89.6511 191.303 89.6497H118.295C118.24 89.6511 118.188 89.6695 118.15 89.7008C118.112 89.7322 118.09 89.7742 118.09 89.8178C118.09 89.8615 118.112 89.9034 118.15 89.9348C118.188 89.9662 118.24 89.9845 118.295 89.986Z" fill="white"/>
<path d="M118.295 95.4084H191.303C191.358 95.407 191.41 95.3887 191.449 95.3573C191.487 95.3259 191.508 95.2839 191.508 95.2403C191.508 95.1966 191.487 95.1547 191.449 95.1233C191.41 95.0919 191.358 95.0736 191.303 95.0721H118.295C118.24 95.0736 118.188 95.0919 118.15 95.1233C118.112 95.1547 118.09 95.1966 118.09 95.2403C118.09 95.2839 118.112 95.3259 118.15 95.3573C118.188 95.3887 118.24 95.407 118.295 95.4084Z" fill="white"/>
<path d="M118.295 100.831H191.303C191.358 100.829 191.41 100.811 191.449 100.78C191.487 100.748 191.508 100.706 191.508 100.663C191.508 100.619 191.487 100.577 191.449 100.546C191.41 100.514 191.358 100.496 191.303 100.495H118.295C118.24 100.496 118.188 100.514 118.15 100.546C118.112 100.577 118.09 100.619 118.09 100.663C118.09 100.706 118.112 100.748 118.15 100.78C118.188 100.811 118.24 100.829 118.295 100.831Z" fill="white"/>
<path d="M130.99 106.253H191.303C191.358 106.252 191.41 106.234 191.449 106.202C191.487 106.171 191.508 106.129 191.508 106.085C191.508 106.042 191.487 106 191.449 105.968C191.41 105.937 191.358 105.919 191.303 105.917H130.99C130.935 105.919 130.883 105.937 130.845 105.968C130.807 106 130.785 106.042 130.785 106.085C130.785 106.129 130.807 106.171 130.845 106.202C130.883 106.234 130.935 106.252 130.99 106.253Z" fill="white"/>
<path d="M174.366 62.1561H234.482L242.099 66.6881V42.6986C242.099 41.8023 241.65 40.9427 240.853 40.3089C240.055 39.6751 238.973 39.3188 237.845 39.3186H174.366C173.238 39.3188 172.156 39.6749 171.358 40.3088C170.56 40.9426 170.112 41.8022 170.112 42.6986V58.7759C170.112 59.6723 170.56 60.532 171.358 61.1659C172.156 61.7997 173.238 62.1559 174.366 62.1561Z" fill="#F4F4F4"/>
<path d="M175.488 44.4012H236.722C236.769 44.4012 236.814 44.3864 236.848 44.3599C236.881 44.3335 236.9 44.2976 236.9 44.2602C236.9 44.2228 236.881 44.1869 236.848 44.1605C236.814 44.134 236.769 44.1191 236.722 44.1191H175.488C175.441 44.1191 175.396 44.134 175.362 44.1605C175.329 44.1869 175.31 44.2228 175.31 44.2602C175.31 44.2976 175.329 44.3335 175.362 44.3599C175.396 44.3864 175.441 44.4012 175.488 44.4012Z" fill="white"/>
<path d="M175.488 48.9491H236.722C236.768 48.9478 236.811 48.9324 236.843 48.9061C236.875 48.8798 236.893 48.8447 236.893 48.8082C236.893 48.7717 236.875 48.7366 236.843 48.7103C236.811 48.684 236.768 48.6686 236.722 48.6672H175.488C175.442 48.6686 175.398 48.684 175.366 48.7103C175.335 48.7366 175.317 48.7717 175.317 48.8082C175.317 48.8447 175.335 48.8798 175.366 48.9061C175.398 48.9324 175.442 48.9478 175.488 48.9491Z" fill="white"/>
<path d="M175.488 53.4978H236.722C236.768 53.4965 236.811 53.4811 236.843 53.4548C236.875 53.4285 236.893 53.3934 236.893 53.3569C236.893 53.3204 236.875 53.2853 236.843 53.259C236.811 53.2327 236.768 53.2173 236.722 53.2159H175.488C175.442 53.2173 175.398 53.2327 175.366 53.259C175.335 53.2853 175.317 53.3204 175.317 53.3569C175.317 53.3934 175.335 53.4285 175.366 53.4548C175.398 53.4811 175.442 53.4965 175.488 53.4978Z" fill="white"/>
<path d="M186.135 58.0449H236.722C236.768 58.0436 236.811 58.0282 236.843 58.0019C236.875 57.9756 236.893 57.9405 236.893 57.904C236.893 57.8675 236.875 57.8324 236.843 57.8061C236.811 57.7798 236.768 57.7644 236.722 57.763H186.135C186.112 57.7623 186.088 57.7655 186.066 57.7723C186.043 57.779 186.023 57.7893 186.006 57.8025C185.989 57.8156 185.975 57.8314 185.966 57.8488C185.956 57.8663 185.951 57.885 185.951 57.904C185.951 57.9229 185.956 57.9417 185.966 57.9591C185.975 57.9766 185.989 57.9923 186.006 58.0055C186.023 58.0187 186.043 58.0289 186.066 58.0357C186.088 58.0425 186.112 58.0456 186.135 58.0449Z" fill="white"/>
<path d="M31.6628 88.585L151.789 88.585C154.967 88.585 157.544 86.5379 157.544 84.0126V8.72468C157.544 6.19944 154.967 4.15234 151.789 4.15234L31.6628 4.15234C28.484 4.15234 25.9071 6.19944 25.9071 8.72468V84.0126C25.9071 86.5379 28.484 88.585 31.6628 88.585Z" fill="white"/>
<path d="M25.715 84.0126V8.72486C25.7168 7.47219 26.344 6.27122 27.4591 5.38545C28.5741 4.49967 30.0859 4.00142 31.6628 4H151.789C153.365 4.00147 154.877 4.49974 155.992 5.3855C157.107 6.27127 157.735 7.4722 157.736 8.72486V84.0126C157.735 85.2653 157.107 86.4663 155.992 87.352C154.877 88.2378 153.366 88.7361 151.789 88.7375H31.6628C30.0859 88.7361 28.5741 88.2379 27.459 87.3521C26.344 86.4663 25.7168 85.2653 25.715 84.0126ZM31.6628 4.30485C30.1876 4.30617 28.7734 4.77227 27.7303 5.6009C26.6872 6.42953 26.1005 7.55301 26.0988 8.72486V84.0126C26.1005 85.1845 26.6872 86.308 27.7303 87.1366C28.7734 87.9652 30.1876 88.4313 31.6628 88.4326H151.789C153.264 88.4314 154.678 87.9653 155.721 87.1366C156.764 86.308 157.351 85.1845 157.353 84.0126V8.72486C157.351 7.55299 156.764 6.42948 155.721 5.60085C154.678 4.77221 153.264 4.30612 151.789 4.30485H31.6628Z" fill="#303C6F"/>
<path d="M25.907 8.72401V13.3252H157.544V8.72401C157.544 7.5115 156.937 6.34864 155.858 5.49127C154.779 4.63389 153.315 4.15222 151.789 4.15222H31.6628C30.907 4.15215 30.1585 4.27035 29.4602 4.50007C28.7619 4.72979 28.1274 5.06653 27.5929 5.49107C27.0584 5.91561 26.6344 6.41962 26.3452 6.97433C26.0559 7.52905 25.907 8.12359 25.907 8.72401Z" fill="#303C6F"/>
<path d="M130.83 28.6781C130.868 28.5641 130.934 28.4574 131.025 28.3644C131.116 28.2714 131.23 28.1941 131.36 28.1372C131.49 28.0804 131.633 28.0452 131.78 28.0337C131.928 28.0223 132.077 28.0348 132.218 28.0707C132.488 28.1475 132.712 28.3029 132.844 28.5056C132.975 28.7084 133.005 28.9432 132.927 29.1627L132.554 30.296L135.793 27.1478C136.146 26.7928 136.865 26.5361 137.339 26.8766C137.533 26.9981 137.669 27.1681 137.725 27.3588C137.781 27.5496 137.754 27.7498 137.648 27.9269C137.654 27.9287 137.659 27.9311 137.664 27.9339C137.667 27.9363 137.669 27.9389 137.672 27.9417L138.216 27.3942C138.316 27.2934 138.443 27.2115 138.588 27.1544C138.733 27.0974 138.892 27.0666 139.053 27.0642C139.215 27.0619 139.375 27.0881 139.523 27.1409C139.67 27.1937 139.801 27.2719 139.905 27.3697C140.069 27.5284 140.158 27.7269 140.158 27.9317C140.158 28.1365 140.069 28.335 139.905 28.4936L139.674 28.7266C139.68 28.7353 139.683 28.7447 139.685 28.7544C139.885 28.6269 140.135 28.5595 140.391 28.5641C140.648 28.5686 140.894 28.6449 141.087 28.7794C141.296 28.9359 141.422 29.1496 141.44 29.3773C141.458 29.605 141.367 29.8296 141.184 30.0058L140.616 30.5785C140.628 30.5751 140.641 30.5738 140.654 30.5745C140.667 30.5753 140.679 30.5782 140.69 30.583C140.702 30.5878 140.712 30.5944 140.72 30.6024C140.728 30.6104 140.734 30.6197 140.737 30.6296C140.951 30.5567 141.189 30.5403 141.416 30.5826C141.642 30.6249 141.846 30.7237 141.997 30.8646C142.16 31.0233 142.249 31.2218 142.249 31.4266C142.249 31.6314 142.16 31.8299 141.997 31.9885L137.149 36.8707C136.471 37.5536 135.551 38.06 134.509 38.3252C133.466 38.5903 132.347 38.602 131.295 38.3589L127.91 37.5754L130.83 28.6781Z" fill="#EBA285"/>
<g opacity="0.2">
<path d="M134.463 31.0562C134.484 31.069 134.51 31.0748 134.536 31.0725C134.563 31.0701 134.586 31.0598 134.603 31.0436L137.679 28.0464C137.696 28.03 137.704 28.0089 137.701 27.9878C137.698 27.9667 137.685 27.9473 137.664 27.9339C137.644 27.9205 137.617 27.9142 137.59 27.9163C137.564 27.9185 137.539 27.9289 137.523 27.9454L134.447 30.9426C134.43 30.959 134.422 30.9801 134.425 31.0012C134.428 31.0223 134.441 31.0417 134.461 31.0551L134.463 31.0562Z" fill="#635C5C"/>
</g>
<g opacity="0.2">
<path d="M136.091 32.1704C136.112 32.1832 136.138 32.1891 136.164 32.1867C136.19 32.1844 136.214 32.174 136.231 32.1578L139.664 28.813C139.68 28.7965 139.688 28.7754 139.686 28.7543C139.683 28.7331 139.67 28.7137 139.649 28.7003C139.628 28.6876 139.602 28.6818 139.575 28.6839C139.549 28.686 139.525 28.696 139.507 28.7117L136.074 32.0566C136.058 32.073 136.05 32.0941 136.052 32.1153C136.055 32.1364 136.068 32.1558 136.089 32.1693L136.091 32.1704Z" fill="#635C5C"/>
</g>
<g opacity="0.2">
<path d="M137.844 33.3853C137.864 33.3981 137.891 33.404 137.917 33.4016C137.943 33.3993 137.967 33.3889 137.983 33.3727L140.722 30.7046C140.738 30.688 140.744 30.6674 140.741 30.6469C140.738 30.6264 140.725 30.6078 140.705 30.5948C140.685 30.5818 140.659 30.5754 140.633 30.577C140.607 30.5787 140.583 30.5882 140.566 30.6035L137.827 33.2716C137.819 33.2798 137.813 33.2891 137.809 33.2992C137.805 33.3093 137.804 33.3198 137.805 33.3303C137.807 33.3407 137.81 33.3509 137.817 33.3601C137.823 33.3694 137.832 33.3775 137.842 33.3842L137.844 33.3853Z" fill="#635C5C"/>
</g>
<path d="M67.6991 22.1047C67.6991 22.1047 66.4332 27.1722 64.6818 28.8773C59.6397 33.7857 57.4483 39.6682 61.1083 43.2368C64.7682 46.8054 91.3823 49.601 94.5811 42.5917C97.2741 36.6908 93.7374 35.6607 93.6724 30.5564C93.6428 28.2469 93.3183 23.3767 93.3183 23.3767" fill="#534747"/>
<path d="M89.1005 39.7895C89.0539 39.7847 88.5399 46.5639 78.6275 45.9716C71.7652 45.5633 69.3185 39.7795 69.1612 39.7795C69.901 39.6546 71.1468 39.4728 71.4756 39.3336C72.556 38.8724 73.8932 38.3924 74.2415 36.7255C74.4421 35.7647 74.1017 30.8494 74.2063 29.8771L84.74 31.7447C84.5929 33.7977 83.5626 38.5574 87.1734 39.3997C87.7741 39.5397 88.4211 39.6677 89.1005 39.7895Z" fill="#EBA285"/>
<path opacity="0.5" d="M84.8877 37.455C84.7227 37.0326 84.6165 36.597 84.5708 36.1562C84.4553 35.1504 84.4788 34.1375 84.6407 33.1357C82.4997 32.9061 80.4827 32.2041 78.8188 31.1095C78.6233 31.6833 77.5475 34.1906 77.8453 34.736C78.4075 35.767 81.053 37.455 84.8877 37.455Z" fill="#635C5C"/>
<path d="M83.0575 35.841C78.8868 35.732 73.7729 33.8726 73.3827 29.4018L73.0306 25.3668C72.6403 20.8961 75.2797 17.1089 80.5798 16.817C85.8786 16.5251 90.156 19.9312 90.546 24.4019L90.7019 26.1879C90.8508 27.9042 90.4976 36.0355 83.0575 35.841Z" fill="#EBA285"/>
<path d="M82.628 30.7734C83.2105 31.0029 84.4221 31.3102 86.1035 30.8454C86.2868 30.7947 86.4266 30.9607 86.3337 31.1249C85.9772 31.7542 85.1621 32.4805 83.7313 32.2318C83.3639 32.1814 83.027 32.038 82.7708 31.8228C82.5146 31.6077 82.3529 31.3325 82.31 31.0383C82.2716 30.87 82.4645 30.709 82.628 30.7734Z" fill="white"/>
<path d="M89.2273 26.534C89.5886 26.534 89.8815 26.3013 89.8815 26.0142C89.8815 25.7272 89.5886 25.4945 89.2273 25.4945C88.8659 25.4945 88.573 25.7272 88.573 26.0142C88.573 26.3013 88.8659 26.534 89.2273 26.534Z" fill="#635C5C"/>
<path d="M82.512 26.534C82.8734 26.534 83.1663 26.3013 83.1663 26.0142C83.1663 25.7272 82.8734 25.4945 82.512 25.4945C82.1507 25.4945 81.8577 25.7272 81.8577 26.0142C81.8577 26.3013 82.1507 26.534 82.512 26.534Z" fill="#635C5C"/>
<path opacity="0.5" d="M85.6002 29.932H85.6104C85.8253 29.919 86.039 29.8966 86.2507 29.8649C86.5671 29.8156 86.9854 29.7242 86.966 29.5008C86.9427 29.2459 85.8255 26.5458 85.698 26.2387C85.6859 26.2129 85.6616 26.1919 85.6303 26.18C85.5991 26.1681 85.5632 26.1663 85.5303 26.1749C85.4974 26.1836 85.47 26.202 85.4538 26.2263C85.4376 26.2507 85.4338 26.279 85.4434 26.3055C85.9208 27.4555 86.6836 29.344 86.6985 29.5154C86.6519 29.5894 86.1247 29.6901 85.5918 29.719C85.5575 29.7212 85.5255 29.7338 85.5026 29.7542C85.4797 29.7746 85.4675 29.8013 85.4686 29.8286C85.4696 29.8559 85.4839 29.8819 85.5084 29.9011C85.5329 29.9203 85.5658 29.9313 85.6002 29.9319V29.932Z" fill="#635C5C"/>
<path d="M68.6793 26.3531L73.4262 26.1124C77.1134 25.3121 78.8984 20.5732 78.8984 20.5732C78.8984 20.5732 82.6795 24.2843 93.3176 23.3758C93.3176 23.3758 92.9501 11.7059 77.1514 13.6039C72.0571 14.2158 67.9275 17.8327 67.5821 23.1532C67.3401 26.8815 68.6793 26.3531 68.6793 26.3531Z" fill="#534747"/>
<path d="M73.8307 30.7455C72.2205 30.8342 70.7954 29.5376 70.6838 28.2583C70.5722 26.9789 71.816 26.2017 73.4262 26.113L74.331 26.9245L75.2164 30.6693L73.8307 30.7455Z" fill="#EBA285"/>
<path d="M86.9767 24.0984C87.4655 23.907 88.0101 23.8235 88.5534 23.8567C88.8215 23.8716 89.0851 23.9184 89.3356 23.9957C89.5843 24.0713 89.8199 24.1716 90.0369 24.2941C90.0624 24.3079 90.0801 24.329 90.0863 24.353C90.0926 24.377 90.0868 24.4019 90.0702 24.4226C90.0536 24.4432 90.0276 24.458 89.9976 24.4636C89.9676 24.4693 89.936 24.4654 89.9095 24.4529L89.9016 24.4492C89.6972 24.3431 89.477 24.2579 89.2459 24.1954C89.0171 24.1328 88.7778 24.0979 88.536 24.092C88.0557 24.0775 87.5791 24.1643 87.1547 24.3435L87.1429 24.3487C87.1015 24.3668 87.0528 24.3712 87.0074 24.3608C86.962 24.3504 86.9237 24.3261 86.9009 24.2932C86.8781 24.2604 86.8726 24.2217 86.8857 24.1857C86.8988 24.1496 86.9293 24.1192 86.9707 24.101L86.9767 24.0984Z" fill="#635C5C"/>
<path d="M82.7119 24.5979C82.2611 24.4655 81.7742 24.4302 81.3007 24.4954C81.062 24.5269 80.8307 24.5869 80.6147 24.6735C80.3961 24.7598 80.192 24.8676 80.0073 24.9944L80.0005 24.9989C79.9886 25.0069 79.9749 25.0129 79.96 25.0167C79.9452 25.0205 79.9296 25.0219 79.9141 25.0209C79.8985 25.0198 79.8834 25.0164 79.8696 25.0107C79.8557 25.0051 79.8434 24.9973 79.8333 24.9878C79.8233 24.9784 79.8157 24.9675 79.8109 24.9557C79.8062 24.9439 79.8044 24.9315 79.8057 24.9192C79.8069 24.9068 79.8113 24.8948 79.8184 24.8838C79.8255 24.8728 79.8353 24.863 79.8472 24.855C80.0418 24.7106 80.2585 24.5862 80.4922 24.4849C80.7274 24.3818 80.9808 24.3073 81.2438 24.264C81.7768 24.1737 82.3304 24.1987 82.8471 24.3364C82.8917 24.3487 82.9284 24.3745 82.949 24.4083C82.9697 24.4421 82.9726 24.4809 82.9572 24.5164C82.9417 24.5519 82.9092 24.581 82.8667 24.5974C82.8242 24.6138 82.7752 24.6161 82.7306 24.6039L82.7247 24.6022L82.7119 24.5979Z" fill="#635C5C"/>
<path d="M78.8532 20.0559C78.8532 20.0559 79.7002 24.8639 73.4279 26.014" stroke="#635C5C" stroke-width="0.5" stroke-miterlimit="10"/>
<path opacity="0.1" d="M82.6307 29.1453C82.6361 28.7443 82.0824 28.4145 81.3942 28.4087C80.7059 28.4029 80.1436 28.7233 80.1382 29.1243C80.1329 29.5253 80.6865 29.855 81.3748 29.8608C82.063 29.8666 82.6253 29.5463 82.6307 29.1453Z" fill="#635C5C"/>
<path opacity="0.1" d="M88.7955 29.0226C88.7918 29.4232 89.3452 29.7526 90.0334 29.7591C90.1524 29.7602 90.2712 29.7513 90.3878 29.7328C90.4964 29.2658 90.5724 28.8136 90.6236 28.3931C90.4415 28.3364 90.2477 28.3071 90.0521 28.3069C89.3626 28.3002 88.8004 28.6213 88.7955 29.0226Z" fill="#635C5C"/>
<path d="M55.9483 80.0629L54.1544 88.7498H98.8921L97.2198 80.0105L55.9483 80.0629Z" fill="#978888"/>
<path d="M78.4 44.2872C71.5329 44.0301 71.2437 39.4008 71.2437 39.4008C71.2437 39.4008 67.8419 39.5755 65.5793 39.8185C61.876 40.2166 59.4332 41.2141 57.4891 42.7585C55.6806 44.1952 54.5796 45.7494 55.7446 55.6734C56.5883 62.859 55.9483 80.0638 55.9483 80.0638L97.2198 80.0114C97.2198 80.0114 101.071 57.9483 101.417 54.7133C102.078 48.5384 100.669 43.3184 99.0554 42.0365C95.7375 39.4008 90.0258 39.4008 87.1725 39.4011C87.1268 39.4002 87.7519 44.6374 78.4 44.2872Z" fill="#BDCDD6"/>
<path d="M127.485 32.7729L114.14 52.2064L98.214 41.4823L88.4211 50.6598L111.436 66.1583L111.601 66.2707C112.467 66.8469 113.488 67.2587 114.584 67.4748C115.681 67.691 116.826 67.7058 117.931 67.5181C119.036 67.3304 120.072 66.9452 120.962 66.3917C121.851 65.8382 122.57 65.131 123.065 64.3237L139.365 37.6333L127.485 32.7729Z" fill="#BDCDD6"/>
<path d="M59.9368 72.0505L62.4492 88.4325H47.3059L44.7802 71.0288C44.7718 70.283 44.9377 69.5424 45.2695 68.8447L56.2367 44.2498L70.6337 48.1386L59.9368 72.0505Z" fill="#BDCDD6"/>
<path d="M62.3336 88.4439L59.8177 72.0383L59.8284 72.0165L66.7496 58.0631L66.9666 58.1312L60.056 72.0626L62.5647 88.4215L62.3336 88.4439Z" fill="#635C5C"/>
<path d="M101.479 53.9837L100.643 59.2574L100.843 59.2774L101.678 54.0037L101.479 53.9837Z" fill="#635C5C"/>
<path d="M249.14 173H16.0433C16 173 15.9585 172.986 15.9279 172.962C15.8973 172.938 15.8802 172.905 15.8802 172.87C15.8802 172.836 15.8973 172.803 15.9279 172.779C15.9585 172.754 16 172.741 16.0433 172.741H249.14C249.183 172.741 249.225 172.754 249.255 172.779C249.286 172.803 249.303 172.836 249.303 172.87C249.303 172.905 249.286 172.938 249.255 172.962C249.225 172.986 249.183 173 249.14 173Z" fill="#303C6F"/>
<g opacity="0.65">
<path d="M249.14 173H16.0433C16 173 15.9585 172.986 15.9279 172.962C15.8973 172.938 15.8802 172.905 15.8802 172.87C15.8802 172.836 15.8973 172.803 15.9279 172.779C15.9585 172.754 16 172.741 16.0433 172.741H249.14C249.183 172.741 249.225 172.754 249.255 172.779C249.286 172.803 249.303 172.836 249.303 172.87C249.303 172.905 249.286 172.938 249.255 172.962C249.225 172.986 249.183 173 249.14 173Z" fill="#303C6F"/>
</g>
<path opacity="0.49" d="M91.7257 84.3123C97.7519 84.3123 102.637 80.4316 102.637 75.6445C102.637 70.8573 97.7519 66.9766 91.7257 66.9766C85.6995 66.9766 80.8144 70.8573 80.8144 75.6445C80.8144 80.4316 85.6995 84.3123 91.7257 84.3123Z" fill="white"/>
<path d="M91.7257 82.0634C96.1884 82.0634 99.8061 79.1895 99.8061 75.6444C99.8061 72.0992 96.1884 69.2253 91.7257 69.2253C87.263 69.2253 83.6453 72.0992 83.6453 75.6444C83.6453 79.1895 87.263 82.0634 91.7257 82.0634Z" fill="white"/>
<path d="M97.1714 77.7569C97.2652 77.8067 97.3313 77.8833 97.3561 77.9708C97.3808 78.0583 97.3622 78.1501 97.3042 78.227L96.7753 78.9272C96.6351 79.1166 96.4085 79.2558 96.1424 79.3159C95.2633 79.5076 93.3248 79.5461 90.2175 77.0779C87.1102 74.6097 87.1589 73.0692 87.4001 72.371C87.4759 72.1597 87.651 71.9795 87.8894 71.8679L88.7711 71.448C88.8679 71.4019 88.9834 71.3871 89.0935 71.4069C89.2037 71.4266 89.3 71.4792 89.3626 71.5538L90.7681 73.2286C90.8294 73.3019 90.8536 73.391 90.8359 73.4779C90.8181 73.5648 90.7597 73.6432 90.6723 73.6974L89.8829 74.1848C89.7998 74.2355 89.7423 74.3082 89.7209 74.3897C89.6995 74.4712 89.7157 74.5561 89.7664 74.629C89.998 74.9599 90.2177 75.3499 91.3042 76.2145C92.3907 77.079 92.8837 77.2523 93.3003 77.4361C93.3919 77.4763 93.4985 77.4891 93.601 77.4721C93.7034 77.4552 93.7947 77.4095 93.8583 77.3435L94.4723 76.7168C94.5404 76.6473 94.6391 76.6007 94.7485 76.5866C94.858 76.5724 94.9702 76.5917 95.0625 76.6406L97.1714 77.7569Z" fill="#0CBC8B"/>
<path d="M216.111 95.6077C204.509 95.6077 195.104 98.122 195.104 101.224V107.909H237.118V101.224C237.118 98.122 227.713 95.6077 216.111 95.6077Z" fill="#BDCDD6"/>
<path opacity="0.49" d="M216.111 95.6077C204.509 95.6077 195.104 98.122 195.104 101.224V107.909H237.118V101.224C237.118 98.122 227.713 95.6077 216.111 95.6077Z" fill="white"/>
<path opacity="0.49" d="M231.395 101.224V107.909H195.104V101.224C195.104 98.3814 203.002 96.0326 213.249 95.6613C223.497 96.0322 231.395 98.3814 231.395 101.224Z" fill="white"/>
<path d="M237.117 172.872L237.816 172.312L237.117 107.316L236.418 107.876L236.917 153.669L212.03 154.005L211.527 107.871L210.828 107.876L211.331 154.014L196.307 154.217L195.803 107.871L195.104 107.321L195.803 172.317L196.502 172.867L196.313 154.772L211.337 154.57L211.527 172.872L212.226 172.867L212.036 154.56L236.923 154.224L237.117 172.872Z" fill="#303C6F"/>
<path d="M172.939 163.055C172.939 163.055 171.69 168.2 165.626 168.486C159.563 168.773 160.878 172.61 160.878 172.61H184.048V163.414L172.939 163.055Z" fill="#BDCDD6"/>
<path d="M186.159 147.582C186.159 147.582 187.896 152.636 182.615 155.02C177.333 157.403 180.645 160.385 180.645 160.385L201.436 152.26L196.326 144.008L186.159 147.582Z" fill="#BDCDD6"/>
<path d="M183.959 150.923L168.292 103.967C167.104 98.7795 168.893 96.531 171.65 94.3467C176.493 90.5091 196.561 82.3412 196.561 82.3412L220.637 82.2892C227.021 82.2892 233.297 87.2898 233.297 92.361C233.297 97.4322 226.807 101.733 220.423 101.733L190.776 104.084L198.812 147.078L183.959 150.923Z" fill="#978888"/>
<path d="M198.812 147.078L195.649 130.151L179.62 137.918L183.959 150.923L198.812 147.078Z" fill="#635C5C"/>
<path d="M202.446 91.8431C202.446 91.8431 192.325 93.635 182.301 101.598C176.224 106.425 176.722 115.162 177.634 131.965L187.589 120.284L198.508 104.639L202.446 91.8431Z" fill="#635C5C"/>
<path d="M237.488 82.2833L221.138 82.222L221.131 82.3931H216.181C216.181 82.3931 203.779 91.4587 193.795 97.1712C186.532 101.326 182.102 105.288 181.718 109.605C180.783 120.13 170.243 165.016 170.243 165.016L186.106 166.925L200.026 113.282C200.026 113.282 221.794 105.311 226.829 102.537C231.57 99.9243 234.919 98.9146 236.488 96.0638C239.197 91.1393 237.488 82.2833 237.488 82.2833Z" fill="#978888"/>
<path d="M206.601 25.4323C206.601 25.4323 204.033 23.221 204.231 19.0096C204.385 15.7488 207.607 18.339 207.607 18.339C207.607 18.339 207.747 15.9919 209.796 16.5214C211.845 17.051 212.475 19.6282 212.475 19.6282" fill="#635C5C"/>
<path d="M220.601 18.3517C220.601 18.3517 230.829 20.7394 224.5 31.4259L223.566 31.3422L221.67 31.1727" fill="#635C5C"/>
<path d="M206.105 42.5101C206.152 42.5053 206.669 49.3215 216.638 48.7279C223.539 48.3172 226 42.5005 226.158 42.5005C225.414 42.3748 224.495 42.1842 224.129 42.1188C223.332 41.9719 222.611 41.6359 222.061 41.1554C221.511 40.6749 221.158 40.0728 221.049 39.429C220.847 38.4627 221.189 33.5194 221.084 32.5417L210.491 34.4201C210.639 36.4848 211.675 41.2716 208.044 42.1188C207.439 42.2589 206.788 42.3878 206.105 42.5101Z" fill="#EBA285"/>
<path opacity="0.52" d="M210.342 40.1627C210.508 39.7378 210.615 39.2998 210.66 38.8565C210.777 37.8449 210.753 36.8262 210.591 35.8186C212.744 35.5877 214.772 34.8817 216.446 33.7809C216.642 34.358 217.724 36.8795 217.424 37.4272C216.859 38.4648 214.199 40.1627 210.342 40.1627Z" fill="#635C5C"/>
<path d="M212.071 37.9921C216.251 38.2905 221.643 36.9339 222.724 32.5095L223.7 28.5172C224.782 24.0935 222.733 20.0549 217.489 19.2461C212.245 18.4372 207.449 21.4193 206.367 25.8437L205.935 27.6112C205.8 28.2201 205.718 28.8356 205.688 29.4534C205.595 31.0857 205.46 33.5687 206.449 35.4038C207.381 37.1355 209.401 37.8018 212.071 37.9921Z" fill="#EBA285"/>
<path d="M208.964 33.2376C210.52 33.3803 212.092 33.1071 213.43 32.4611C213.477 32.4389 213.53 32.4276 213.584 32.4287C213.638 32.4297 213.691 32.4429 213.736 32.4669C213.781 32.4908 213.817 32.5245 213.839 32.5639C213.86 32.6033 213.868 32.6468 213.859 32.6893C213.71 33.4179 213.172 34.7472 211.227 34.8438C209.971 34.9062 209.113 34.1092 208.687 33.5852C208.657 33.5488 208.641 33.5065 208.641 33.4632C208.641 33.4199 208.656 33.3775 208.685 33.3409C208.715 33.3043 208.756 33.2751 208.806 33.2568C208.855 33.2385 208.91 33.2319 208.964 33.2376Z" fill="white"/>
<path d="M207.622 28.7261C207.986 28.7261 208.28 28.492 208.28 28.2034C208.28 27.9147 207.986 27.6807 207.622 27.6807C207.259 27.6807 206.964 27.9147 206.964 28.2034C206.964 28.492 207.259 28.7261 207.622 28.7261Z" fill="#635C5C"/>
<path d="M214.019 29.3203C214.383 29.3203 214.677 29.0863 214.677 28.7976C214.677 28.5089 214.383 28.2749 214.019 28.2749C213.656 28.2749 213.361 28.5089 213.361 28.7976C213.361 29.0863 213.656 29.3203 214.019 29.3203Z" fill="#635C5C"/>
<path d="M222.069 33.8072C223.663 34.053 225.286 32.898 225.595 31.632C225.905 30.366 224.783 29.4686 223.19 29.2227L222.161 29.9445L220.699 33.5962L222.069 33.8072Z" fill="#EBA285"/>
<path d="M220.945 31.5399C220.945 31.5399 221.836 25.1871 219.529 24.4552C217.992 23.9679 213.714 25.2091 210.255 24.1511C208.741 23.6884 207.183 23.7824 206.898 24.3488C206.785 24.5732 206.572 21.0858 209.605 18.8986C212.02 17.1572 218.546 17.5058 221.305 18.5874C228.944 21.5822 223.457 29.5466 223.457 29.5466L222.605 31.6583L220.945 31.5399Z" fill="#635C5C"/>
<g opacity="0.52">
<path d="M210.459 32.0455L210.448 32.0442C209.936 31.9661 209.084 31.7895 209.157 31.4841C209.218 31.231 210.748 28.6325 210.922 28.3375C210.929 28.3245 210.94 28.3127 210.953 28.3029C210.966 28.2931 210.981 28.2855 210.997 28.2804C211.014 28.2754 211.032 28.2731 211.05 28.2736C211.068 28.2742 211.085 28.2776 211.101 28.2836C211.118 28.2896 211.132 28.2982 211.144 28.3087C211.156 28.3193 211.165 28.3317 211.171 28.3451C211.177 28.3585 211.179 28.3727 211.178 28.3868C211.176 28.401 211.172 28.4148 211.163 28.4274C210.485 29.578 209.46 31.3519 209.419 31.5242C209.452 31.604 209.966 31.7556 210.498 31.8367C210.532 31.842 210.562 31.8574 210.581 31.8796C210.601 31.9019 210.609 31.9293 210.604 31.9563C210.599 31.9832 210.581 32.0075 210.554 32.0242C210.527 32.0408 210.493 32.0486 210.459 32.0458V32.0455Z" fill="#635C5C"/>
</g>
<path d="M210.095 25.6781C209.581 25.4824 209.009 25.4005 208.442 25.441C208.163 25.4597 207.889 25.5114 207.63 25.5945C207.374 25.6756 207.132 25.7821 206.909 25.9115C206.866 25.9336 206.835 25.9685 206.825 26.0084C206.814 26.0483 206.823 26.09 206.851 26.1244C206.879 26.1587 206.923 26.1829 206.973 26.1916C207.023 26.2003 207.076 26.1927 207.119 26.1707L207.132 26.1642C207.334 26.0619 207.551 25.9801 207.779 25.9208C208.003 25.8614 208.236 25.8293 208.472 25.8256C208.937 25.8155 209.397 25.903 209.806 26.0792L209.823 26.087C209.857 26.1021 209.893 26.1118 209.931 26.1156C209.969 26.1195 210.008 26.1173 210.045 26.1093C210.082 26.1013 210.116 26.0876 210.146 26.069C210.177 26.0503 210.202 26.0271 210.221 26.0007C210.24 25.9743 210.252 25.9452 210.257 25.915C210.262 25.8849 210.259 25.8542 210.249 25.8249C210.239 25.7956 210.222 25.7681 210.198 25.744C210.175 25.72 210.146 25.6999 210.112 25.6848C210.107 25.6831 210.101 25.6805 210.095 25.6781Z" fill="#635C5C"/>
<path d="M213.867 26.4876C214.315 26.3879 214.788 26.384 215.238 26.4761C215.467 26.5214 215.686 26.594 215.888 26.6914C216.093 26.7894 216.282 26.9075 216.45 27.043L216.461 27.0512C216.497 27.0798 216.546 27.096 216.597 27.0962C216.648 27.0963 216.697 27.0805 216.734 27.0521C216.77 27.0237 216.791 26.9851 216.792 26.9445C216.792 26.904 216.773 26.8648 216.738 26.8355C216.557 26.6701 216.351 26.5234 216.124 26.3989C215.894 26.2721 215.642 26.1734 215.375 26.1059C214.833 25.9661 214.254 25.9449 213.698 26.0446C213.623 26.0586 213.557 26.0958 213.516 26.148C213.476 26.2002 213.463 26.2631 213.48 26.3229C213.498 26.3827 213.545 26.4346 213.61 26.467C213.676 26.4994 213.755 26.5097 213.831 26.4957C213.836 26.4946 213.842 26.4935 213.848 26.492L213.867 26.4876Z" fill="#635C5C"/>
<path d="M215.138 19.7244C215.817 18.3942 215.445 17.019 214.307 16.6528C213.169 16.2865 211.697 17.0679 211.019 18.3981C210.34 19.7282 210.712 21.1034 211.85 21.4697C212.987 21.8359 214.46 21.0545 215.138 19.7244Z" fill="#635C5C"/>
<path d="M193.719 57.5181C194.033 60.4484 196.259 78.7315 196.562 82.341H237.47C237.705 79.0854 238.761 64.8498 239.652 58.4835C240.503 52.4086 241.695 49.644 240.715 47.7561C238.987 44.4264 233.485 42.9396 229.76 42.5389C227.485 42.2942 224.063 42.1189 224.063 42.1189C224.063 42.1189 223.774 46.7745 216.866 47.0335C207.462 47.3852 208.09 42.1189 208.043 42.1189C206.52 42.1189 198.227 42.9988 196.154 44.0726C193.225 45.5888 192.36 47.6554 192.326 49.5539C192.286 51.7395 193.362 54.1943 193.719 57.5181Z" fill="#BDCDD6"/>
<path d="M157.686 41.8438C157.619 41.7388 157.526 41.6457 157.412 41.5703C157.298 41.495 157.166 41.4388 157.024 41.4053C156.882 41.3718 156.732 41.3617 156.585 41.3755C156.438 41.3894 156.296 41.4269 156.167 41.4858C155.924 41.6068 155.747 41.7967 155.673 42.0171C155.599 42.2376 155.633 42.4721 155.768 42.6734L156.436 43.7173L152.425 41.1915C151.985 40.9046 151.213 40.776 150.84 41.1891C150.684 41.3406 150.597 41.5298 150.593 41.7257C150.59 41.9215 150.67 42.1126 150.821 42.2676C150.816 42.2703 150.812 42.2735 150.808 42.2771C150.805 42.28 150.803 42.283 150.802 42.2861L150.123 41.8436C149.998 41.7621 149.852 41.7037 149.695 41.6725C149.539 41.6414 149.375 41.6382 149.216 41.6634C149.058 41.6885 148.908 41.7413 148.779 41.8179C148.649 41.8945 148.542 41.9931 148.466 42.1064C148.35 42.2891 148.316 42.4982 148.371 42.6982C148.426 42.8982 148.567 43.077 148.769 43.2042L149.058 43.3926C149.054 43.402 149.054 43.4118 149.055 43.4215C148.825 43.3309 148.562 43.3075 148.313 43.3555C148.064 43.4035 147.844 43.5197 147.692 43.6838C147.53 43.8722 147.464 44.1025 147.507 44.328C147.551 44.5535 147.701 44.7575 147.926 44.8987L148.636 45.3615C148.62 45.3605 148.604 45.3626 148.589 45.3675C148.574 45.3725 148.561 45.3802 148.551 45.39C148.539 45.4021 148.532 45.4166 148.531 45.4318C148.302 45.397 148.065 45.4214 147.855 45.5014C147.645 45.5813 147.473 45.7126 147.363 45.876C147.247 46.0587 147.213 46.2678 147.268 46.4678C147.323 46.6678 147.464 46.8466 147.666 46.9738L153.715 50.9204C154.561 51.4724 155.596 51.8111 156.686 51.8931C157.776 51.9751 158.872 51.7967 159.834 51.3807L162.93 50.0408L157.686 41.8438Z" fill="#EBA285"/>
<g opacity="0.2">
<path d="M154.776 44.784C154.759 44.8 154.735 44.8101 154.709 44.8122C154.683 44.8144 154.657 44.8084 154.636 44.7955L150.825 42.3893C150.815 42.3827 150.806 42.3746 150.8 42.3654C150.793 42.3563 150.789 42.3461 150.788 42.3357C150.786 42.3253 150.787 42.3147 150.791 42.3046C150.794 42.2945 150.8 42.285 150.809 42.2768C150.817 42.2686 150.827 42.2617 150.839 42.2566C150.85 42.2515 150.863 42.2483 150.876 42.2471C150.889 42.2459 150.903 42.2468 150.915 42.2497C150.928 42.2526 150.94 42.2574 150.95 42.264L154.761 44.6702C154.772 44.6767 154.78 44.6848 154.787 44.6939C154.793 44.7031 154.797 44.7132 154.799 44.7237C154.8 44.7341 154.799 44.7447 154.796 44.7548C154.792 44.7649 154.786 44.7743 154.778 44.7825L154.776 44.784Z" fill="#635C5C"/>
</g>
<g opacity="0.2">
<path d="M153.487 46.1484C153.47 46.1644 153.446 46.1745 153.42 46.1767C153.394 46.1788 153.368 46.1728 153.347 46.1599L149.093 43.4749C149.083 43.4684 149.074 43.4603 149.068 43.4511C149.061 43.442 149.057 43.4319 149.056 43.4214C149.054 43.411 149.055 43.4004 149.059 43.3903C149.063 43.3802 149.069 43.3708 149.077 43.3626C149.094 43.3466 149.118 43.3363 149.145 43.3339C149.171 43.3315 149.197 43.3371 149.219 43.3496L153.472 46.0346C153.482 46.0411 153.491 46.0492 153.497 46.0584C153.504 46.0676 153.508 46.0777 153.509 46.0881C153.511 46.0986 153.51 46.1091 153.506 46.1192C153.503 46.1293 153.496 46.1387 153.488 46.1469L153.487 46.1484Z" fill="#635C5C"/>
</g>
<g opacity="0.2">
<path d="M152.101 47.6329C152.084 47.6489 152.06 47.659 152.034 47.6611C152.008 47.6632 151.982 47.6571 151.961 47.6442L148.568 45.5019C148.547 45.4887 148.534 45.4695 148.531 45.4484C148.528 45.4273 148.535 45.4061 148.552 45.3895C148.569 45.3729 148.593 45.3622 148.619 45.3598C148.646 45.3574 148.673 45.3634 148.693 45.3766L152.086 47.5182C152.107 47.5314 152.121 47.5507 152.124 47.5718C152.127 47.5929 152.119 47.6141 152.102 47.6307L152.101 47.6329Z" fill="#635C5C"/>
</g>
<path d="M215.623 89.1424C215.478 89.1693 215.343 89.2194 215.223 89.2894C215.104 89.3595 215.004 89.4481 214.929 89.5499C214.855 89.6517 214.807 89.7644 214.789 89.8814C214.771 89.9983 214.783 90.1169 214.825 90.23C214.915 90.4466 215.105 90.6281 215.357 90.7375C215.609 90.8469 215.904 90.8763 216.182 90.8195L217.617 90.5517L213.577 93.0484C213.122 93.3198 212.781 93.8841 213.198 94.27C213.346 94.4266 213.557 94.5387 213.796 94.5879C214.035 94.6371 214.287 94.6206 214.513 94.541C214.515 94.5454 214.518 94.5496 214.521 94.5534C214.524 94.5558 214.527 94.558 214.531 94.56L213.829 94.9786C213.699 95.0557 213.593 95.1546 213.518 95.2683C213.442 95.3819 213.4 95.5074 213.393 95.6357C213.386 95.7641 213.415 95.892 213.478 96.0103C213.541 96.1286 213.636 96.2344 213.757 96.3199C213.953 96.4532 214.2 96.5286 214.458 96.5335C214.716 96.5383 214.968 96.4723 215.171 96.3466L215.47 96.1685C215.481 96.1731 215.492 96.1761 215.504 96.1774C215.339 96.3333 215.248 96.5304 215.248 96.7342C215.248 96.938 215.338 97.1354 215.502 97.2917C215.694 97.4614 215.96 97.5668 216.246 97.5867C216.532 97.6066 216.817 97.5395 217.043 97.3988L217.778 96.9611C217.773 96.9732 217.772 96.9861 217.774 96.9987C217.777 97.0113 217.783 97.0232 217.793 97.0335C217.805 97.0452 217.821 97.0539 217.839 97.0584C217.742 97.2268 217.716 97.4153 217.764 97.5965C217.811 97.7777 217.931 97.9419 218.105 98.0653C218.3 98.1986 218.548 98.274 218.806 98.2788C219.063 98.2836 219.315 98.2176 219.519 98.0918L225.78 94.3598C226.656 93.8377 227.316 93.1198 227.675 92.2979C228.034 91.476 228.075 90.5877 227.795 89.7469L226.891 87.0396L215.623 89.1424Z" fill="#EBA285"/>
<g opacity="0.2">
<path d="M218.528 92.0861C218.544 92.1029 218.55 92.124 218.547 92.1447C218.543 92.1655 218.529 92.1843 218.509 92.1971L214.661 94.5672C214.651 94.5737 214.639 94.5784 214.626 94.5812C214.614 94.584 214.6 94.5847 214.587 94.5834C214.574 94.5821 214.561 94.5787 214.55 94.5735C214.538 94.5683 214.528 94.5614 214.52 94.5531C214.512 94.5448 214.506 94.5353 214.503 94.5252C214.499 94.515 214.498 94.5044 214.5 94.494C214.501 94.4836 214.506 94.4735 214.512 94.4644C214.519 94.4553 214.528 94.4473 214.538 94.4408L218.385 92.0711C218.406 92.0581 218.433 92.0523 218.459 92.055C218.486 92.0576 218.51 92.0686 218.526 92.0853L218.528 92.0861Z" fill="#635C5C"/>
</g>
<g opacity="0.2">
<path d="M219.891 93.4049C219.906 93.4217 219.913 93.4428 219.91 93.4636C219.906 93.4844 219.892 93.5032 219.871 93.516L215.579 96.1617C215.558 96.1746 215.531 96.1804 215.505 96.1778C215.478 96.1752 215.454 96.1643 215.438 96.1476C215.422 96.1306 215.415 96.1095 215.419 96.0886C215.422 96.0678 215.435 96.0487 215.456 96.0353L219.748 93.3899C219.769 93.377 219.796 93.3712 219.822 93.3738C219.849 93.3764 219.873 93.3873 219.889 93.404L219.891 93.4049Z" fill="#635C5C"/>
</g>
<g opacity="0.2">
<path d="M221.377 94.8261C221.393 94.8429 221.4 94.864 221.396 94.8848C221.392 94.9055 221.379 94.9244 221.358 94.9372L217.933 97.0472C217.912 97.0593 217.885 97.0643 217.86 97.0613C217.834 97.0582 217.81 97.0474 217.794 97.0311C217.779 97.0147 217.771 96.9941 217.774 96.9735C217.777 96.9529 217.789 96.934 217.809 96.9206L221.234 94.8104C221.255 94.7974 221.282 94.7916 221.309 94.7942C221.335 94.7968 221.359 94.8077 221.376 94.8245L221.377 94.8261Z" fill="#635C5C"/>
</g>
<path d="M254.271 70.1664L254.194 70.0402L240.587 47.694L226.954 52.933L238.222 71.438L218.776 86.9364L228.163 94.7288L252.613 77.0054C253.778 76.1586 254.569 75.036 254.867 73.8041C255.166 72.5722 254.957 71.2966 254.271 70.1664Z" fill="#BDCDD6"/>
<path d="M224.541 82.4336C224.518 82.4336 224.495 82.4281 224.476 82.4179C224.457 82.4077 224.442 82.3932 224.433 82.3762C224.424 82.3593 224.422 82.3407 224.427 82.3227C224.431 82.3048 224.442 82.2883 224.459 82.2754L238.311 71.4193L228.012 55.0112C228.005 55.0003 228 54.9882 227.998 54.9757C227.996 54.9632 227.998 54.9506 228.002 54.9386C228.007 54.9266 228.015 54.9155 228.025 54.9059C228.035 54.8963 228.048 54.8885 228.062 54.8829C228.076 54.8773 228.091 54.874 228.107 54.8733C228.123 54.8726 228.139 54.8745 228.154 54.8788C228.169 54.8831 228.182 54.8897 228.194 54.8983C228.205 54.907 228.214 54.9173 228.221 54.9289L238.558 71.3964C238.569 71.4139 238.572 71.4337 238.568 71.4529C238.564 71.4721 238.552 71.4898 238.535 71.5034L224.621 82.4064C224.6 82.4237 224.571 82.4334 224.541 82.4336Z" fill="#635C5C"/>
<path d="M195.129 44.6339L176.095 58.5864L162.085 44.6754L152.741 52.14L168.388 69.3636C169.795 71.598 172.826 72.9505 175.939 72.5959C177.145 72.4585 178.288 72.0851 179.267 71.5092L179.621 71.3019L205.155 54.327L195.129 44.6339Z" fill="#BDCDD6"/>
<path d="M194.269 61.5694C194.241 61.5696 194.213 61.5616 194.192 61.5468C194.17 61.532 194.156 61.5114 194.152 61.4891L193.267 56.2139C193.263 56.1898 193.272 56.1655 193.291 56.1463C193.309 56.1271 193.337 56.1145 193.367 56.1113C193.398 56.1081 193.428 56.1144 193.453 56.129C193.477 56.1436 193.493 56.1653 193.498 56.1893L194.383 61.4645C194.385 61.4765 194.384 61.4888 194.381 61.5006C194.377 61.5124 194.37 61.5234 194.36 61.5331C194.351 61.5428 194.34 61.5509 194.326 61.557C194.313 61.5631 194.298 61.5671 194.283 61.5687C194.278 61.5691 194.274 61.5694 194.269 61.5694Z" fill="#635C5C"/>
<path d="M178.445 61.3934C178.424 61.3935 178.404 61.389 178.386 61.3806C178.368 61.3722 178.353 61.36 178.343 61.3455L175.993 58.6313C175.978 58.6098 175.975 58.5845 175.983 58.5609C175.992 58.5373 176.012 58.5174 176.039 58.5055C176.066 58.4937 176.098 58.4908 176.127 58.4977C176.157 58.5045 176.182 58.5204 176.197 58.5419L178.547 61.2563C178.556 61.2704 178.561 61.2862 178.561 61.3023C178.561 61.3183 178.555 61.3341 178.545 61.3479C178.535 61.3617 178.52 61.3732 178.502 61.3812C178.485 61.3892 178.465 61.3934 178.445 61.3934Z" fill="#635C5C"/>
<rect x="54" y="201" width="168" height="28" rx="8" fill="#ECE8E8"/>
<path d="M73 219H75V216H78V214H75V211H73V214H70V216H73V219ZM68 223C67.45 223 66.979 222.804 66.587 222.412C66.195 222.02 65.9993 221.549 66 221V209C66 208.45 66.196 207.979 66.588 207.587C66.98 207.195 67.4507 206.999 68 207H80C80.55 207 81.021 207.196 81.413 207.588C81.805 207.98 82.0007 208.451 82 209V213.5L86 209.5V220.5L82 216.5V221C82 221.55 81.804 222.021 81.412 222.413C81.02 222.805 80.5493 223.001 80 223H68Z" fill="#303B69"/>
<defs>
<filter id="filter0_d_114_3" x="0" y="0" width="268" height="249" filterUnits="userSpaceOnUse" color-interpolation-filters="sRGB">
<feFlood flood-opacity="0" result="BackgroundImageFix"/>
<feColorMatrix in="SourceAlpha" type="matrix" values="0 0 0 0 0 0 0 0 0 0 0 0 0 0 0 0 0 0 127 0" result="hardAlpha"/>
<feOffset dy="4"/>
<feGaussianBlur stdDeviation="2"/>
<feComposite in2="hardAlpha" operator="out"/>
<feColorMatrix type="matrix" values="0 0 0 0 0 0 0 0 0 0 0 0 0 0 0 0 0 0 0.14 0"/>
<feBlend mode="normal" in2="BackgroundImageFix" result="effect1_dropShadow_114_3"/>
<feBlend mode="normal" in="SourceGraphic" in2="effect1_dropShadow_114_3" result="shape"/>
</filter>
</defs>
</svg>
