<svg width="24" height="24" viewBox="0 0 24 24" fill="none" xmlns="http://www.w3.org/2000/svg">
<path d="M14 9V10H21.061C21.579 10 22 10.386 22 10.861V15.75C22 17.335 20.598 18.62 18.869 18.62C18.508 18.62 18.039 18.553 17.644 18.327C16.97 19.899 15.409 21 13.59 21H13.41C11.467 21 9.818 19.744 9.23 18H3C2.45 18 2 17.55 2 17V7C2 6.45 2.45 6 3 6H11C11 4.343 12.343 3 14 3C15.657 3 17 4.343 17 6C17 7.657 15.657 9 14 9ZM16 6C16 4.897 15.103 4 14 4C12.897 4 12 4.897 12 6H13C13.55 6 14 6.45 14 7V8C15.103 8 16 7.103 16 6ZM8.468 15.875V10.055H10.632V8.125H4.368V10.055H6.545V15.875H8.468ZM17 16.631V11H14V17C14 17.55 13.55 18 13 18H10.305C10.843 19.179 12.032 20 13.41 20H13.59C15.429 20 16.933 18.536 16.998 16.713C16.997 16.685 16.998 16.657 17 16.631ZM21 15.75V11H18V16.59C18 16.64 17.999 16.69 17.997 16.74C17.9986 16.7839 18.0032 16.8321 18.008 16.8821L18.012 16.924L18.0147 16.9579C18.0252 17.0874 18.0368 17.2312 18.034 17.381C18.285 17.606 18.761 17.62 18.869 17.62C20.044 17.62 21 16.781 21 15.75ZM21.2 7C21.2 6.338 20.662 5.8 20 5.8C19.338 5.8 18.8 6.338 18.8 7C18.8 7.662 19.338 8.2 20 8.2C20.662 8.2 21.2 7.662 21.2 7ZM20 5C21.105 5 22 5.896 22 7C22 8.104 21.105 9 20 9C18.896 9 18 8.104 18 7C18 5.896 18.896 5 20 5Z" fill="white"/>
</svg>
