<svg width="33" height="32" viewBox="0 0 33 32" fill="none" xmlns="http://www.w3.org/2000/svg">
<path d="M12.3125 16C12.3125 16.6904 11.7529 17.25 11.0625 17.25C10.3721 17.25 9.8125 16.6904 9.8125 16C9.8125 15.3096 10.3721 14.75 11.0625 14.75C11.7529 14.75 12.3125 15.3096 12.3125 16ZM17.3125 16C17.3125 16.6904 16.7529 17.25 16.0625 17.25C15.3721 17.25 14.8125 16.6904 14.8125 16C14.8125 15.3096 15.3721 14.75 16.0625 14.75C16.7529 14.75 17.3125 15.3096 17.3125 16ZM21.0625 17.25C21.7529 17.25 22.3125 16.6904 22.3125 16C22.3125 15.3096 21.7529 14.75 21.0625 14.75C20.3721 14.75 19.8125 15.3096 19.8125 16C19.8125 16.6904 20.3721 17.25 21.0625 17.25Z" fill="white"/>
</svg>
