<svg width="243" height="158" viewBox="0 0 243 158" fill="none" xmlns="http://www.w3.org/2000/svg">
<path d="M219.077 135.002L218.794 135.135C208.097 140.235 199.17 140.231 199.17 140.231C199.17 140.231 198.78 135.389 209.551 130.035L210.035 129.795C221.304 124.348 227.863 123.196 230.89 124.967C233.918 126.737 226.713 131.311 219.077 135.002Z" fill="#BDCDD6"/>
<path d="M218.794 135.135C208.097 140.235 199.17 140.231 199.17 140.231C199.17 140.231 198.78 135.389 209.551 130.034C209.51 131.68 213.009 132.624 222.178 129.112C222.178 129.108 211.878 135.231 218.794 135.135Z" fill="#E9F3FF"/>
<path d="M200.872 139.591C200.804 139.591 200.737 139.581 200.681 139.56C200.624 139.54 200.581 139.511 200.556 139.477C200.531 139.444 200.526 139.407 200.542 139.372C200.557 139.336 200.593 139.304 200.643 139.28L228.3 125.914C228.367 125.886 228.452 125.872 228.537 125.875C228.623 125.879 228.703 125.9 228.76 125.934C228.818 125.967 228.849 126.012 228.847 126.057C228.845 126.103 228.811 126.146 228.751 126.179L201.094 139.545C201.033 139.574 200.954 139.591 200.872 139.591Z" fill="#534747"/>
<path d="M219.958 129.63C219.877 129.705 219.797 129.781 219.709 129.856C210.291 138.404 199.298 140.278 199.298 140.278C199.298 140.278 195.201 134.384 204.498 125.51C204.633 125.378 204.781 125.245 204.922 125.113C214.764 116.018 221.99 113.21 227.056 114.759C232.122 116.308 226.625 123.468 219.958 129.63Z" fill="#E9F3FF"/>
<path d="M219.709 129.856C210.291 138.404 199.298 140.278 199.298 140.278C199.298 140.278 195.201 134.383 204.498 125.51C205.675 127.549 210.694 127.974 219.393 121.708C219.393 121.708 211.253 131.433 219.709 129.856Z" fill="#BDCDD6"/>
<path d="M200.791 139.08C200.732 139.079 200.675 139.071 200.624 139.055C200.573 139.039 200.531 139.017 200.501 138.99C200.472 138.963 200.457 138.932 200.457 138.901C200.457 138.869 200.473 138.838 200.502 138.811L224.654 116.49C224.699 116.449 224.772 116.418 224.859 116.406C224.945 116.394 225.037 116.4 225.115 116.424C225.192 116.447 225.249 116.486 225.272 116.532C225.296 116.578 225.284 116.627 225.239 116.669L201.087 138.99C201.057 139.018 201.014 139.041 200.962 139.056C200.91 139.072 200.851 139.08 200.791 139.08Z" fill="#534747"/>
<path d="M176.37 134.831L176.7 134.974C189.26 140.482 199.358 140.256 199.358 140.256C199.358 140.256 199.358 134.763 186.717 128.969L186.145 128.711C172.912 122.824 165.384 121.68 162.108 123.765C158.831 125.85 167.429 130.843 176.37 134.831Z" fill="#BDCDD6"/>
<path d="M176.727 134.978C189.287 140.486 199.385 140.26 199.385 140.26C199.385 140.26 199.385 134.767 186.744 128.972C186.932 130.836 183.057 131.988 172.367 128.257C172.334 128.239 184.558 134.917 176.727 134.978Z" fill="#E9F3FF"/>
<path d="M197.38 139.545C197.301 139.544 197.225 139.529 197.165 139.502L164.691 125.056C164.657 125.041 164.629 125.023 164.608 125.002C164.588 124.981 164.575 124.958 164.571 124.935C164.567 124.911 164.572 124.888 164.585 124.865C164.598 124.843 164.619 124.822 164.647 124.804C164.676 124.786 164.71 124.771 164.749 124.76C164.789 124.749 164.831 124.742 164.875 124.74C164.919 124.738 164.964 124.74 165.006 124.747C165.048 124.754 165.088 124.766 165.122 124.781L197.602 139.234C197.652 139.258 197.687 139.289 197.703 139.324C197.719 139.359 197.715 139.396 197.691 139.429C197.667 139.463 197.624 139.492 197.569 139.513C197.514 139.533 197.448 139.544 197.38 139.545Z" fill="#534747"/>
<path d="M175.421 128.046C175.516 128.135 175.61 128.221 175.704 128.303C186.529 138.161 199.21 140.307 199.21 140.307C199.21 140.307 203.919 133.511 193.223 123.3C193.061 123.146 192.9 122.996 192.738 122.842C181.409 112.37 173.08 109.136 167.247 110.921C161.415 112.706 167.745 120.95 175.421 128.046Z" fill="#E9F3FF"/>
<path d="M175.697 128.303C186.529 138.161 199.21 140.306 199.21 140.306C199.21 140.306 203.919 133.511 193.223 123.3C191.877 125.65 186.091 126.14 176.074 118.922C176.074 118.926 185.446 130.124 175.697 128.303Z" fill="#BDCDD6"/>
<path d="M197.495 138.901C197.436 138.901 197.378 138.892 197.328 138.877C197.277 138.861 197.235 138.838 197.205 138.811L169.394 113.124C169.372 113.104 169.357 113.081 169.352 113.058C169.346 113.034 169.349 113.011 169.36 112.988C169.372 112.965 169.392 112.944 169.419 112.925C169.446 112.907 169.48 112.891 169.518 112.879C169.557 112.867 169.599 112.86 169.643 112.857C169.687 112.854 169.731 112.855 169.774 112.862C169.817 112.868 169.857 112.878 169.892 112.893C169.927 112.907 169.957 112.925 169.979 112.945L197.784 138.647C197.807 138.673 197.818 138.703 197.815 138.732C197.812 138.761 197.795 138.79 197.767 138.815C197.738 138.84 197.698 138.861 197.651 138.876C197.603 138.891 197.55 138.899 197.495 138.901Z" fill="#534747"/>
<path d="M209.147 122.302V122.62C208.985 134.752 199.439 140.306 199.439 140.306C199.439 140.306 188.312 135.378 188.002 122.931C188.002 122.745 188.002 122.574 188.002 122.373C188.002 109.515 192.456 104.186 199.621 104.186C206.786 104.186 209.147 113.589 209.147 122.302Z" fill="#BDCDD6"/>
<path d="M209.14 122.62C208.985 134.752 199.439 140.307 199.439 140.307C199.439 140.307 188.312 135.378 188.002 122.931C191.601 124.72 197.421 123.536 199.439 114.058C199.439 114.072 201.975 127.045 209.14 122.62Z" fill="#E9F3FF"/>
<path d="M199.439 138.554C199.35 138.554 199.264 138.535 199.201 138.502C199.138 138.468 199.103 138.423 199.103 138.375V106.823C199.103 106.775 199.138 106.73 199.201 106.696C199.264 106.663 199.35 106.644 199.439 106.644C199.528 106.644 199.614 106.663 199.677 106.696C199.74 106.73 199.775 106.775 199.775 106.823V138.375C199.775 138.423 199.74 138.468 199.677 138.502C199.614 138.535 199.528 138.554 199.439 138.554Z" fill="#534747"/>
<path d="M208.925 158H186.778C185.01 158 183.312 157.635 182.039 156.983C180.767 156.33 180.02 155.441 179.956 154.502L179.001 140.26C178.99 140.093 179.042 139.926 179.156 139.769C179.269 139.613 179.44 139.47 179.659 139.35C179.878 139.229 180.141 139.133 180.431 139.068C180.721 139.002 181.033 138.969 181.349 138.969H214.354C214.669 138.969 214.981 139.002 215.272 139.068C215.562 139.133 215.824 139.229 216.043 139.35C216.263 139.47 216.434 139.613 216.547 139.769C216.66 139.926 216.713 140.093 216.702 140.26L215.747 154.502C215.682 155.441 214.935 156.33 213.663 156.983C212.391 157.635 210.692 158 208.925 158Z" fill="#F68D88"/>
<path d="M214.354 138.969H207.889C207.391 140.121 207.539 141.78 211.777 142.563C213.303 142.859 214.956 142.917 216.54 142.728L216.709 140.26C216.719 140.092 216.667 139.925 216.553 139.768C216.439 139.612 216.268 139.469 216.048 139.348C215.828 139.228 215.565 139.132 215.274 139.067C214.983 139.002 214.67 138.968 214.354 138.969Z" fill="#ECBDBB"/>
<path d="M199.997 143.579C199.136 141.959 200.764 140.103 202.056 138.969H194.958C190.868 142.61 193.344 149.227 204.458 147.81C209.961 147.095 213.715 147.481 216.177 148.104L216.366 145.242C209.954 143.118 201.262 145.904 199.997 143.579Z" fill="#ECBDBB"/>
<path d="M214.717 156.283C209.335 149.963 199.614 156.161 193.236 149.541C188.87 145.01 183.024 145.002 179.357 145.607L179.566 148.722C190.962 146.354 190.464 156.254 200.159 155.478C205.339 155.063 208.279 156.526 209.894 157.982C210.883 157.904 211.828 157.712 212.661 157.418C213.495 157.125 214.197 156.737 214.717 156.283Z" fill="#ECBDBB"/>
<path d="M184.726 152.081C181.786 152.47 184.564 155.972 187.114 155.042C189.664 154.112 186.953 151.784 184.726 152.081Z" fill="#ECBDBB"/>
<path d="M209.261 149.684C207.243 150.325 210.775 152.589 212.275 151.598C213.775 150.607 210.788 149.202 209.261 149.684Z" fill="#ECBDBB"/>
<path d="M66.603 10.8516H210.237V81.2212H66.603V10.8516Z" fill="#BDCDD6"/>
<path d="M210.492 10.8516H66.3474C65.281 10.8516 64.4166 11.3111 64.4166 11.878V11.8816C64.4166 12.4485 65.281 12.9081 66.3474 12.9081H210.492C211.559 12.9081 212.423 12.4485 212.423 11.8816V11.878C212.423 11.3111 211.559 10.8516 210.492 10.8516Z" fill="#534747"/>
<path d="M157.176 12.9079H119.67C119.158 12.9079 118.667 12.7997 118.305 12.6072C117.943 12.4147 117.739 12.1536 117.739 11.8814V9.28476L122.704 6.6488H154.169L159.134 9.28834V11.8814C159.134 12.0174 159.083 12.152 158.985 12.2775C158.886 12.403 158.741 12.5168 158.559 12.6123C158.377 12.7078 158.161 12.7831 157.923 12.8339C157.686 12.8846 157.432 12.9098 157.176 12.9079Z" fill="#E9F3FF"/>
<path d="M125.934 11.0302C126.955 11.0302 127.784 10.5899 127.784 10.0467C127.784 9.50347 126.955 9.06311 125.934 9.06311C124.912 9.06311 124.083 9.50347 124.083 10.0467C124.083 10.5899 124.912 11.0302 125.934 11.0302Z" fill="white"/>
<path d="M150.913 11.0302C151.935 11.0302 152.763 10.5899 152.763 10.0467C152.763 9.50347 151.935 9.06311 150.913 9.06311C149.891 9.06311 149.063 9.50347 149.063 10.0467C149.063 10.5899 149.891 11.0302 150.913 11.0302Z" fill="white"/>
<path d="M210.492 79.1643H66.3474C65.281 79.1643 64.4166 79.6239 64.4166 80.1908V80.1944C64.4166 80.7613 65.281 81.2209 66.3474 81.2209H210.492C211.559 81.2209 212.423 80.7613 212.423 80.1944V80.1908C212.423 79.6239 211.559 79.1643 210.492 79.1643Z" fill="#534747"/>
<path d="M192.409 18.2728H84.4378C82.9553 18.2728 81.7535 18.9117 81.7535 19.6999V72.3725C81.7535 73.1607 82.9553 73.7996 84.4378 73.7996H192.409C193.891 73.7996 195.093 73.1607 195.093 72.3725V19.6999C195.093 18.9117 193.891 18.2728 192.409 18.2728Z" fill="#E9F3FF"/>
<path d="M109.66 72.7087C109.57 72.7087 109.485 72.6899 109.422 72.6563C109.359 72.6228 109.323 72.5773 109.323 72.5299V18.9882C109.323 18.9407 109.359 18.8952 109.422 18.8617C109.485 18.8282 109.57 18.8093 109.66 18.8093C109.749 18.8093 109.834 18.8282 109.897 18.8617C109.96 18.8952 109.996 18.9407 109.996 18.9882V72.5478C109.988 72.592 109.948 72.633 109.886 72.6628C109.824 72.6926 109.743 72.7089 109.66 72.7087Z" fill="#534747"/>
<path d="M138.42 72.7087C138.331 72.7087 138.245 72.6899 138.182 72.6563C138.119 72.6228 138.084 72.5773 138.084 72.5299V18.9882C138.084 18.9407 138.119 18.8952 138.182 18.8617C138.245 18.8282 138.331 18.8093 138.42 18.8093C138.509 18.8093 138.595 18.8282 138.658 18.8617C138.721 18.8952 138.756 18.9407 138.756 18.9882V72.5478C138.748 72.592 138.709 72.633 138.647 72.6628C138.584 72.6926 138.504 72.7089 138.42 72.7087Z" fill="#534747"/>
<path d="M167.18 72.7087C167.091 72.7087 167.005 72.6899 166.942 72.6563C166.879 72.6228 166.844 72.5773 166.844 72.5299V18.9882C166.844 18.9407 166.879 18.8952 166.942 18.8617C167.005 18.8282 167.091 18.8093 167.18 18.8093C167.269 18.8093 167.355 18.8282 167.418 18.8617C167.481 18.8952 167.517 18.9407 167.517 18.9882V72.5478C167.508 72.592 167.469 72.633 167.407 72.6628C167.345 72.6926 167.264 72.7089 167.18 72.7087Z" fill="#534747"/>
<path d="M103.302 24.3533H87.8016C86.9805 24.3533 86.3148 24.7072 86.3148 25.1437C86.3148 25.5802 86.9805 25.9341 87.8016 25.9341H103.302C104.123 25.9341 104.789 25.5802 104.789 25.1437C104.789 24.7072 104.123 24.3533 103.302 24.3533Z" fill="#BDCDD6"/>
<path d="M103.302 28.1371H87.8016C86.9805 28.1371 86.3148 28.491 86.3148 28.9275C86.3148 29.3641 86.9805 29.7179 87.8016 29.7179H103.302C104.123 29.7179 104.789 29.3641 104.789 28.9275C104.789 28.491 104.123 28.1371 103.302 28.1371Z" fill="#BDCDD6"/>
<path d="M103.302 31.9247H87.8016C86.9805 31.9247 86.3148 32.2786 86.3148 32.7151C86.3148 33.1517 86.9805 33.5055 87.8016 33.5055H103.302C104.123 33.5055 104.789 33.1517 104.789 32.7151C104.789 32.2786 104.123 31.9247 103.302 31.9247Z" fill="#BDCDD6"/>
<path d="M129.472 44.2927H113.972C113.151 44.2927 112.485 44.6466 112.485 45.0832C112.485 45.5197 113.151 45.8736 113.972 45.8736H129.472C130.293 45.8736 130.959 45.5197 130.959 45.0832C130.959 44.6466 130.293 44.2927 129.472 44.2927Z" fill="white"/>
<path d="M129.472 48.0768H113.972C113.151 48.0768 112.485 48.4307 112.485 48.8672C112.485 49.3037 113.151 49.6576 113.972 49.6576H129.472C130.293 49.6576 130.959 49.3037 130.959 48.8672C130.959 48.4307 130.293 48.0768 129.472 48.0768Z" fill="white"/>
<path d="M122.509 51.8643H113.972C113.151 51.8643 112.485 52.2181 112.485 52.6547C112.485 53.0912 113.151 53.4451 113.972 53.4451H122.509C123.33 53.4451 123.996 53.0912 123.996 52.6547C123.996 52.2181 123.33 51.8643 122.509 51.8643Z" fill="white"/>
<path d="M189.179 60.0297H173.679C172.858 60.0297 172.192 60.3835 172.192 60.8201C172.192 61.2566 172.858 61.6105 173.679 61.6105H189.179C190.001 61.6105 190.666 61.2566 190.666 60.8201C190.666 60.3835 190.001 60.0297 189.179 60.0297Z" fill="#F68D88"/>
<path d="M189.179 63.8136H173.679C172.858 63.8136 172.192 64.1675 172.192 64.604C172.192 65.0406 172.858 65.3945 173.679 65.3945H189.179C190.001 65.3945 190.666 65.0406 190.666 64.604C190.666 64.1675 190.001 63.8136 189.179 63.8136Z" fill="#F68D88"/>
<path d="M182.216 67.6014H173.679C172.858 67.6014 172.192 67.9553 172.192 68.3919C172.192 68.8284 172.858 69.1823 173.679 69.1823H182.216C183.037 69.1823 183.703 68.8284 183.703 68.3919C183.703 67.9553 183.037 67.6014 182.216 67.6014Z" fill="#F68D88"/>
<path d="M128.355 37.8548C133.065 34.6358 132.506 28.645 132.506 28.645H116.649C116.649 28.645 117.208 34.6358 112.499 37.8548H128.355Z" fill="#BDCDD6"/>
<path d="M124.749 29.7181C126.421 29.7181 127.777 28.9975 127.777 28.1086C127.777 27.2197 126.421 26.4991 124.749 26.4991C123.077 26.4991 121.722 27.2197 121.722 28.1086C121.722 28.9975 123.077 29.7181 124.749 29.7181Z" fill="#534747"/>
<path d="M155.878 55.6485C160.587 52.4295 160.029 46.4387 160.029 46.4387H144.172C144.172 46.4387 144.751 52.4295 140.041 55.6485H155.898H155.878Z" fill="#F68D88"/>
<path d="M152.272 47.5117C153.944 47.5117 155.299 46.7911 155.299 45.9022C155.299 45.0133 153.944 44.2927 152.272 44.2927C150.6 44.2927 149.245 45.0133 149.245 45.9022C149.245 46.7911 150.6 47.5117 152.272 47.5117Z" fill="#534747"/>
<path d="M171.291 32.8618L186.764 30.8947C187.175 30.8421 187.609 30.8764 187.973 30.9906C188.337 31.1047 188.603 31.2897 188.715 31.5063L193.667 41.0558C193.725 41.1679 193.74 41.285 193.712 41.4003C193.683 41.5156 193.611 41.6266 193.5 41.7268C193.389 41.8269 193.241 41.9141 193.065 41.9832C192.889 42.0523 192.689 42.1018 192.476 42.1288L177.003 44.0959C176.592 44.1486 176.158 44.1142 175.794 44C175.43 43.8859 175.164 43.701 175.052 43.4843L170.1 33.9348C170.042 33.8227 170.026 33.7056 170.055 33.5903C170.084 33.475 170.156 33.364 170.267 33.2639C170.378 33.1637 170.526 33.0765 170.702 33.0074C170.878 32.9384 171.078 32.8888 171.291 32.8618Z" fill="#BDCDD6"/>
<path d="M174.251 35.9307C174.162 35.9364 174.072 35.923 174.001 35.8935C173.931 35.864 173.885 35.8208 173.874 35.7734C173.864 35.7259 173.889 35.6782 173.944 35.6406C174 35.6031 174.081 35.5788 174.17 35.5731L187.161 33.9207C187.25 33.9098 187.344 33.9182 187.422 33.944C187.499 33.9698 187.554 34.011 187.575 34.0584C187.595 34.1058 187.58 34.1556 187.531 34.1969C187.483 34.2381 187.405 34.2674 187.316 34.2783L174.352 35.9272H174.271L174.251 35.9307Z" fill="#534747"/>
<path d="M175.374 38.0157C175.285 38.0214 175.195 38.008 175.125 37.9785C175.054 37.949 175.008 37.9058 174.998 37.8583C174.987 37.8109 175.012 37.7631 175.068 37.7256C175.123 37.688 175.204 37.6637 175.294 37.658L188.285 36.0056C188.329 36.0002 188.375 35.9995 188.419 36.0035C188.464 36.0075 188.507 36.0162 188.545 36.0289C188.584 36.0417 188.617 36.0584 188.643 36.078C188.669 36.0977 188.688 36.1199 188.698 36.1433C188.709 36.1668 188.71 36.1911 188.702 36.2149C188.695 36.2387 188.679 36.2614 188.655 36.2818C188.63 36.3023 188.599 36.32 188.562 36.334C188.525 36.3479 188.484 36.3579 188.439 36.3633L175.455 38.0157H175.374Z" fill="#534747"/>
<path d="M176.498 40.1045C176.409 40.1102 176.319 40.0968 176.248 40.0673C176.178 40.0378 176.132 39.9946 176.121 39.9472C176.111 39.8997 176.136 39.852 176.191 39.8144C176.247 39.7769 176.328 39.7526 176.417 39.7469L184.41 38.7311C184.499 38.7202 184.593 38.7286 184.67 38.7544C184.748 38.7802 184.803 38.8214 184.823 38.8688C184.844 38.9162 184.828 38.9661 184.78 39.0073C184.731 39.0486 184.654 39.0779 184.564 39.0888L176.579 40.1045H176.498Z" fill="#534747"/>
<path d="M179.209 33.1909C180.881 33.1909 182.237 32.4703 182.237 31.5814C182.237 30.6925 180.881 29.9719 179.209 29.9719C177.537 29.9719 176.182 30.6925 176.182 31.5814C176.182 32.4703 177.537 33.1909 179.209 33.1909Z" fill="#534747"/>
<path d="M106.161 60.938L90.6877 58.9709C90.2768 58.9182 89.8435 58.9526 89.4794 59.0667C89.1153 59.1809 88.849 59.3658 88.7367 59.5825L83.8189 69.132C83.7605 69.244 83.7451 69.3612 83.7738 69.4765C83.8024 69.5918 83.8745 69.7028 83.9856 69.8029C84.0968 69.9031 84.2447 69.9903 84.4207 70.0594C84.5966 70.1284 84.7969 70.178 85.0097 70.205L100.483 72.1721C100.894 72.2247 101.327 72.1904 101.691 72.0762C102.056 71.9621 102.322 71.7771 102.434 71.5605L107.386 62.011C107.444 61.8977 107.458 61.7793 107.427 61.6631C107.396 61.5468 107.321 61.4351 107.207 61.3348C107.092 61.2344 106.94 61.1475 106.761 61.0792C106.581 61.011 106.377 60.963 106.161 60.938Z" fill="#BDCDD6"/>
<path d="M103.194 64.0067H103.114L90.1226 62.3365C90.0334 62.3255 89.956 62.2962 89.9074 62.255C89.8589 62.2137 89.8431 62.1639 89.8636 62.1165C89.8841 62.0691 89.9393 62.0279 90.0168 62.0021C90.0944 61.9763 90.1881 61.9679 90.2774 61.9788L103.268 63.6348C103.361 63.64 103.446 63.6646 103.505 63.7031C103.564 63.7417 103.591 63.7911 103.581 63.8404C103.571 63.8897 103.525 63.935 103.453 63.9662C103.38 63.9973 103.287 64.0119 103.194 64.0067Z" fill="#534747"/>
<path d="M102.071 66.0958H101.99L88.9992 64.4434C88.9099 64.4325 88.8325 64.4032 88.784 64.3619C88.7354 64.3207 88.7196 64.2709 88.7401 64.2234C88.7607 64.176 88.8158 64.1348 88.8934 64.109C88.971 64.0832 89.0647 64.0748 89.1539 64.0857L102.145 65.7417C102.227 65.7505 102.3 65.7755 102.35 65.8116C102.4 65.8477 102.422 65.8923 102.413 65.9367C102.403 65.9812 102.363 66.0221 102.3 66.0516C102.237 66.081 102.155 66.0968 102.071 66.0958Z" fill="#534747"/>
<path d="M100.954 68.1808H100.873L92.8877 67.1651C92.7985 67.1542 92.7211 67.1249 92.6725 67.0836C92.6239 67.0424 92.6081 66.9925 92.6287 66.9451C92.6492 66.8977 92.7043 66.8565 92.7819 66.8307C92.8595 66.8049 92.9532 66.7965 93.0424 66.8074L101.021 67.8267C101.103 67.8356 101.176 67.8602 101.225 67.8959C101.275 67.9316 101.297 67.9758 101.289 68.02C101.281 68.0641 101.242 68.105 101.18 68.1347C101.118 68.1644 101.037 68.1809 100.954 68.1808Z" fill="#534747"/>
<path d="M98.236 61.2672C99.908 61.2672 101.263 60.5466 101.263 59.6577C101.263 58.7688 99.908 58.0482 98.236 58.0482C96.564 58.0482 95.2086 58.7688 95.2086 59.6577C95.2086 60.5466 96.564 61.2672 98.236 61.2672Z" fill="#534747"/>
<path d="M178.395 50.3121C179.447 50.3121 180.299 49.8589 180.299 49.2999C180.299 48.7409 179.447 48.2877 178.395 48.2877C177.344 48.2877 176.491 48.7409 176.491 49.2999C176.491 49.8589 177.344 50.3121 178.395 50.3121Z" fill="#534747"/>
<path d="M186.078 53.3234C187.564 53.3234 188.769 52.6829 188.769 51.8928C188.769 51.1027 187.564 50.4622 186.078 50.4622C184.592 50.4622 183.387 51.1027 183.387 51.8928C183.387 52.6829 184.592 53.3234 186.078 53.3234Z" fill="#F68D88"/>
<path d="M122.402 66.1994C126.652 66.1994 130.098 64.3675 130.098 62.1077C130.098 59.848 126.652 58.0161 122.402 58.0161C118.151 58.0161 114.705 59.848 114.705 62.1077C114.705 64.3675 118.151 66.1994 122.402 66.1994Z" fill="#F68D88"/>
<path d="M131.988 69.5507C133.775 69.5507 135.224 68.7805 135.224 67.8303C135.224 66.8802 133.775 66.11 131.988 66.11C130.201 66.11 128.752 66.8802 128.752 67.8303C128.752 68.7805 130.201 69.5507 131.988 69.5507Z" fill="#534747"/>
<path d="M153.16 28.1155L155.427 30.5548L160.493 30.9446C160.721 30.9633 160.934 31.0154 161.109 31.095C161.284 31.1746 161.414 31.2786 161.484 31.3954C161.554 31.5121 161.561 31.6368 161.505 31.7556C161.449 31.8744 161.331 31.9825 161.166 32.0677L157.533 33.9704L158.401 36.6493C158.44 36.7704 158.415 36.8948 158.327 37.0086C158.24 37.1224 158.095 37.2209 157.908 37.2931C157.722 37.3653 157.5 37.4083 157.27 37.4171C157.039 37.426 156.809 37.4004 156.605 37.3432L152.077 36.0771L147.549 37.3432C147.345 37.4004 147.114 37.426 146.884 37.4171C146.653 37.4083 146.432 37.3653 146.245 37.2931C146.058 37.2209 145.913 37.1224 145.826 37.0086C145.739 36.8948 145.714 36.7704 145.753 36.6493L146.621 33.9704L142.954 32.0713C142.789 31.986 142.671 31.878 142.615 31.7592C142.559 31.6404 142.566 31.5156 142.636 31.3989C142.706 31.2822 142.836 31.1782 143.011 31.0986C143.186 31.019 143.399 30.9669 143.627 30.9482L148.693 30.5584L150.96 28.1191C151.064 28.0116 151.221 27.9214 151.415 27.8582C151.608 27.7951 151.831 27.7615 152.058 27.7611C152.285 27.7607 152.508 27.7936 152.703 27.8561C152.897 27.9187 153.055 28.0084 153.16 28.1155Z" fill="#F68D88"/>
<path d="M198.073 91.4929C197.984 91.5 197.893 91.488 197.821 91.4595C197.748 91.431 197.7 91.3883 197.686 91.3409C197.673 91.2935 197.696 91.2451 197.749 91.2066C197.803 91.168 197.883 91.1423 197.972 91.1352C197.972 91.1352 198.43 91.0601 199.217 90.8956C199.259 90.885 199.304 90.8792 199.35 90.8784C199.397 90.8776 199.443 90.8819 199.486 90.891C199.529 90.9001 199.568 90.9138 199.6 90.9313C199.633 90.9488 199.658 90.9696 199.675 90.9926C199.692 91.0155 199.699 91.04 199.697 91.0646C199.695 91.0892 199.684 91.1133 199.664 91.1354C199.643 91.1575 199.615 91.1772 199.58 91.1932C199.544 91.2091 199.503 91.2211 199.459 91.2282C198.652 91.3963 198.194 91.4714 198.174 91.475L198.073 91.4929Z" fill="#534747"/>
<path d="M202.52 90.5059C202.431 90.5163 202.338 90.5075 202.261 90.4813C202.184 90.4552 202.129 90.4138 202.11 90.3664C202.09 90.319 202.107 90.2694 202.156 90.2284C202.205 90.1875 202.283 90.1587 202.372 90.1482C203.395 89.8872 204.39 89.5974 205.433 89.2934C205.472 89.2804 205.515 89.2716 205.56 89.2677C205.605 89.2638 205.651 89.2648 205.696 89.2707C205.74 89.2766 205.782 89.2873 205.818 89.302C205.854 89.3167 205.885 89.3353 205.907 89.3565C205.93 89.3776 205.944 89.401 205.949 89.4252C205.953 89.4494 205.949 89.4738 205.935 89.497C205.922 89.5203 205.9 89.5418 205.87 89.5603C205.84 89.5788 205.804 89.5938 205.763 89.6046C204.74 89.9122 203.698 90.2055 202.661 90.4701C202.62 90.4878 202.572 90.5001 202.52 90.5059Z" fill="#534747"/>
<path d="M207.398 89.079C207.326 89.0781 207.256 89.065 207.199 89.0416C207.142 89.0182 207.101 88.9856 207.081 88.9488C207.062 88.912 207.065 88.8728 207.09 88.837C207.116 88.8012 207.162 88.7707 207.223 88.7499C208.003 88.4924 208.784 88.2206 209.544 87.9452C209.58 87.9303 209.621 87.9195 209.665 87.9134C209.71 87.9073 209.756 87.9061 209.801 87.9098C209.846 87.9134 209.889 87.922 209.928 87.9348C209.967 87.9476 210 87.9645 210.026 87.9845C210.052 88.0044 210.07 88.0269 210.079 88.0507C210.089 88.0745 210.089 88.099 210.079 88.1227C210.07 88.1465 210.052 88.169 210.026 88.1889C210 88.2088 209.966 88.2257 209.927 88.2385C209.16 88.5175 208.373 88.7929 207.579 89.0539C207.525 89.0713 207.461 89.08 207.398 89.079ZM212.538 87.1726C212.468 87.1724 212.4 87.1608 212.344 87.1393C212.287 87.1178 212.245 87.0875 212.222 87.0526C212.199 87.0177 212.197 86.9799 212.216 86.9444C212.235 86.9089 212.275 86.8774 212.329 86.8543C213.231 86.4752 214.125 86.0782 214.98 85.6741C215.013 85.6583 215.051 85.6462 215.093 85.6384C215.135 85.6306 215.18 85.6273 215.224 85.6286C215.268 85.6299 215.312 85.6359 215.352 85.6462C215.392 85.6564 215.428 85.6707 215.457 85.6884C215.487 85.706 215.51 85.7265 215.524 85.7488C215.539 85.7711 215.545 85.7947 215.543 85.8183C215.54 85.8419 215.529 85.865 215.51 85.8862C215.491 85.9075 215.464 85.9266 215.43 85.9423C214.563 86.3536 213.661 86.7542 212.739 87.1369C212.681 87.1601 212.61 87.1726 212.538 87.1726ZM216.736 85.227C216.668 85.2272 216.603 85.2167 216.547 85.1968C216.491 85.177 216.447 85.1487 216.422 85.1156C216.397 85.0825 216.391 85.0461 216.404 85.0111C216.418 84.9761 216.452 84.9442 216.5 84.9194C217.173 84.5617 217.846 84.2041 218.438 83.8714C218.5 83.8405 218.582 83.8232 218.667 83.8232C218.752 83.8231 218.834 83.8403 218.897 83.8712C218.959 83.9021 218.997 83.9444 219.003 83.9896C219.009 84.0347 218.982 84.0795 218.929 84.1147C218.303 84.4723 217.644 84.83 216.964 85.1876C216.9 85.2153 216.818 85.2293 216.736 85.227ZM220.974 82.777C220.91 82.7774 220.847 82.768 220.792 82.7499C220.738 82.7319 220.694 82.7058 220.666 82.675C220.639 82.6441 220.628 82.6097 220.636 82.5758C220.644 82.5419 220.67 82.51 220.712 82.4837C221.438 82.0116 222.145 81.518 222.804 81.0209C222.856 80.982 222.934 80.9556 223.023 80.9476C223.111 80.9395 223.202 80.9505 223.275 80.978C223.348 81.0055 223.398 81.0473 223.413 81.0943C223.428 81.1412 223.407 81.1894 223.356 81.2283C222.683 81.7326 221.97 82.2298 221.236 82.7126C221.205 82.7326 221.166 82.7487 221.122 82.7598C221.078 82.7709 221.03 82.7768 220.981 82.777H220.974ZM224.25 80.3843C224.19 80.3842 224.131 80.3755 224.079 80.3591C224.027 80.3427 223.984 80.3192 223.956 80.2911C223.927 80.2629 223.913 80.2311 223.915 80.1991C223.917 80.167 223.935 80.1359 223.968 80.1089C224.466 79.7011 224.95 79.2791 225.407 78.8535C225.452 78.8122 225.526 78.7821 225.612 78.7696C225.698 78.7572 225.791 78.7636 225.868 78.7873C225.946 78.811 226.003 78.8502 226.026 78.8961C226.049 78.942 226.037 78.991 225.993 79.0323C225.529 79.4615 225.037 79.8907 224.533 80.3056C224.503 80.3291 224.463 80.3485 224.416 80.3622C224.369 80.3759 224.317 80.3834 224.264 80.3843H224.25ZM227.332 77.4836C227.274 77.4837 227.218 77.476 227.168 77.4613C227.118 77.4466 227.076 77.4254 227.046 77.3996C227.015 77.3738 226.998 77.3444 226.995 77.314C226.992 77.2837 227.004 77.2534 227.029 77.2261C227.533 76.6789 228.004 76.1138 228.435 75.5487C228.469 75.5046 228.534 75.4694 228.617 75.451C228.699 75.4325 228.793 75.4323 228.875 75.4503C228.958 75.4684 229.025 75.5032 229.059 75.5471C229.094 75.591 229.094 75.6405 229.06 75.6846C228.623 76.2569 228.146 76.8291 227.634 77.3871C227.607 77.4166 227.565 77.4416 227.513 77.4593C227.461 77.4769 227.4 77.4866 227.338 77.4872L227.332 77.4836ZM229.498 74.7583C229.46 74.7618 229.421 74.7618 229.383 74.7583C229.3 74.7421 229.231 74.7089 229.193 74.666C229.156 74.6231 229.151 74.5739 229.182 74.5294C229.491 74.0751 229.787 73.6066 230.056 73.1345C230.082 73.0871 230.142 73.047 230.224 73.0232C230.264 73.0114 230.308 73.004 230.354 73.0013C230.4 72.9986 230.446 73.0007 230.49 73.0075C230.534 73.0143 230.575 73.0257 230.611 73.041C230.647 73.0563 230.677 73.0751 230.699 73.0966C230.722 73.118 230.736 73.1415 230.741 73.1658C230.746 73.1901 230.742 73.2147 230.729 73.2382C230.453 73.7139 230.157 74.1896 229.848 74.6688C229.815 74.6993 229.767 74.7239 229.708 74.7398C229.649 74.7557 229.583 74.7621 229.518 74.7583H229.498ZM231.287 71.5679H231.207C231.12 71.5569 231.046 71.5281 230.999 71.4879C230.952 71.4477 230.937 71.3993 230.958 71.3533C231.22 70.7668 231.456 70.1588 231.63 69.565C231.638 69.5416 231.654 69.5191 231.678 69.4989C231.702 69.4788 231.733 69.4613 231.769 69.4475C231.806 69.4337 231.847 69.4239 231.891 69.4186C231.935 69.4133 231.98 69.4126 232.024 69.4166C232.068 69.4206 232.11 69.4292 232.148 69.4419C232.186 69.4545 232.219 69.4711 232.245 69.4905C232.271 69.5099 232.289 69.5319 232.299 69.5551C232.309 69.5783 232.311 69.6024 232.303 69.6258C232.101 70.241 231.859 70.8526 231.597 71.4463C231.575 71.481 231.533 71.5112 231.478 71.533C231.423 71.5547 231.356 71.5669 231.287 71.5679ZM232.317 68.6602H232.276C232.189 68.6531 232.111 68.6281 232.058 68.5907C232.005 68.5532 231.982 68.5063 231.994 68.4599C232.122 67.9806 232.229 67.4906 232.323 66.997C232.334 66.9499 232.378 66.9067 232.447 66.8767C232.516 66.8466 232.604 66.8321 232.693 66.8361C232.738 66.8383 232.781 66.8452 232.82 66.8563C232.859 66.8674 232.894 66.8826 232.922 66.9009C232.95 66.9192 232.971 66.9402 232.984 66.9629C232.997 66.9855 233.001 67.0093 232.996 67.0328C232.902 67.53 232.794 68.0271 232.666 68.5099C232.653 68.5529 232.611 68.5918 232.548 68.6195C232.485 68.6471 232.405 68.6616 232.323 68.6602H232.317ZM232.888 65.3447C232.844 65.3437 232.801 65.3382 232.761 65.3283C232.721 65.3185 232.684 65.3045 232.654 65.2873C232.624 65.27 232.601 65.2497 232.586 65.2277C232.571 65.2056 232.564 65.1822 232.566 65.1587C232.613 64.5936 232.64 64.0142 232.64 63.4419V63.3203C232.64 63.2729 232.675 63.2274 232.738 63.1938C232.801 63.1603 232.887 63.1415 232.976 63.1415C233.065 63.1415 233.151 63.1603 233.214 63.1938C233.277 63.2274 233.312 63.2729 233.312 63.3203V63.4455C233.312 64.0249 233.312 64.6079 233.238 65.1801C233.231 65.2269 233.19 65.2704 233.123 65.3012C233.057 65.332 232.97 65.3476 232.882 65.3447H232.888ZM232.922 62.3832C232.835 62.3833 232.752 62.3654 232.689 62.3334C232.626 62.3014 232.589 62.2577 232.586 62.2115C232.586 61.7287 232.512 61.2316 232.451 60.738C232.448 60.7145 232.454 60.6909 232.469 60.6687C232.483 60.6464 232.506 60.6259 232.535 60.6083C232.565 60.5907 232.6 60.5763 232.64 60.5661C232.68 60.5558 232.723 60.5498 232.767 60.5484C232.812 60.5465 232.856 60.5493 232.899 60.5568C232.941 60.5643 232.98 60.5763 233.013 60.592C233.047 60.6077 233.074 60.6268 233.093 60.6482C233.112 60.6696 233.122 60.6929 233.124 60.7165C233.184 61.2137 233.232 61.7144 233.258 62.2008C233.26 62.2243 233.253 62.2478 233.238 62.2698C233.223 62.2919 233.2 62.3121 233.17 62.3294C233.14 62.3467 233.103 62.3606 233.063 62.3705C233.023 62.3803 232.98 62.3859 232.936 62.3868L232.922 62.3832ZM232.485 59.0606C232.401 59.0608 232.32 59.0444 232.258 59.0147C232.196 58.9849 232.157 58.9439 232.148 58.8996C232.027 58.2987 231.879 57.68 231.711 57.0684C231.699 57.021 231.722 56.9728 231.776 56.9346C231.831 56.8964 231.911 56.8712 232 56.8645C232.09 56.8579 232.18 56.8704 232.252 56.8992C232.324 56.928 232.371 56.9709 232.384 57.0183C232.552 57.6335 232.7 58.2558 232.821 58.8603C232.831 58.9072 232.805 58.9542 232.749 58.991C232.694 59.0279 232.613 59.0516 232.525 59.057H232.492L232.485 59.0606ZM231.725 56.1277C231.645 56.1274 231.568 56.1122 231.508 56.0847C231.448 56.0572 231.408 56.0192 231.395 55.9775C231.242 55.5007 231.077 55.0166 230.897 54.5254C230.88 54.478 230.899 54.4289 230.95 54.389C231.002 54.3491 231.08 54.3216 231.17 54.3126C231.259 54.3036 231.351 54.3138 231.426 54.341C231.501 54.3681 231.553 54.41 231.57 54.4575C231.754 54.951 231.922 55.4387 232.074 55.9203C232.082 55.9436 232.081 55.9674 232.071 55.9905C232.062 56.0135 232.044 56.0353 232.018 56.0546C231.992 56.0739 231.96 56.0903 231.922 56.1028C231.884 56.1154 231.842 56.1239 231.799 56.1277H231.738H231.725ZM230.5 52.8587C230.424 52.8589 230.349 52.8452 230.289 52.8198C230.229 52.7945 230.187 52.759 230.171 52.7192C229.915 52.1291 229.639 51.5282 229.343 50.9309C229.321 50.8835 229.335 50.8333 229.382 50.7914C229.429 50.7495 229.506 50.7193 229.595 50.7074C229.685 50.6956 229.779 50.703 229.858 50.7282C229.937 50.7533 229.993 50.7941 230.016 50.8415C230.312 51.446 230.594 52.0504 230.85 52.6298C230.86 52.6529 230.861 52.6767 230.854 52.7C230.846 52.7232 230.83 52.7455 230.806 52.7655C230.783 52.7854 230.752 52.8027 230.715 52.8162C230.679 52.8298 230.638 52.8394 230.594 52.8444H230.52L230.5 52.8587Z" fill="#534747"/>
<path d="M229.128 49.9758C229.054 49.9755 228.983 49.9625 228.924 49.9386C228.866 49.9147 228.824 49.8812 228.805 49.8434C228.684 49.605 228.56 49.3761 228.435 49.1567C228.418 49.1271 228.416 49.0958 228.429 49.0657C228.442 49.0356 228.47 49.0078 228.509 48.985C228.509 48.985 228.832 48.7955 229.363 48.4486C229.389 48.4277 229.423 48.41 229.463 48.3965C229.502 48.3831 229.547 48.3742 229.593 48.3704C229.64 48.3667 229.687 48.3682 229.733 48.3748C229.778 48.3814 229.82 48.393 229.857 48.4088C229.893 48.4247 229.923 48.4444 229.944 48.4667C229.965 48.489 229.977 48.5135 229.98 48.5385C229.982 48.5634 229.975 48.5884 229.958 48.6117C229.941 48.6351 229.915 48.6562 229.881 48.6739C229.532 48.9028 229.269 49.0637 229.128 49.1496C229.235 49.3475 229.341 49.5454 229.444 49.7433C229.456 49.7661 229.46 49.7899 229.455 49.8134C229.449 49.837 229.435 49.8597 229.414 49.8803C229.392 49.901 229.362 49.9191 229.327 49.9336C229.292 49.9482 229.252 49.9588 229.209 49.965L229.128 49.9758Z" fill="#534747"/>
<path d="M231.778 47.2538C231.715 47.2527 231.653 47.2421 231.6 47.223C231.547 47.204 231.506 47.1773 231.48 47.1462C231.455 47.1151 231.447 47.0808 231.456 47.0472C231.466 47.0137 231.494 46.9824 231.536 46.9569C232.209 46.4562 232.882 45.9376 233.514 45.4154C233.537 45.3943 233.567 45.3759 233.604 45.3613C233.64 45.3467 233.682 45.3361 233.726 45.3303C233.77 45.3246 233.817 45.3236 233.862 45.3276C233.907 45.3316 233.95 45.3405 233.988 45.3536C234.027 45.3667 234.06 45.3839 234.085 45.404C234.111 45.4241 234.128 45.4468 234.137 45.4707C234.145 45.4945 234.145 45.5191 234.135 45.5428C234.125 45.5665 234.106 45.5889 234.079 45.6086C233.406 46.1379 232.734 46.6637 232.061 47.168C232.031 47.1938 231.99 47.2152 231.94 47.2302C231.891 47.2453 231.835 47.2534 231.778 47.2538Z" fill="#534747"/>
<path d="M234.9 44.7504C234.84 44.7506 234.781 44.7423 234.729 44.7263C234.678 44.7103 234.635 44.6873 234.605 44.6596C234.576 44.6319 234.561 44.6005 234.562 44.5687C234.563 44.5369 234.58 44.5058 234.611 44.4786C235.095 44.0529 235.566 43.6166 236.01 43.1838C236.053 43.1421 236.125 43.1111 236.211 43.0977C236.297 43.0843 236.389 43.0895 236.468 43.1123C236.546 43.1351 236.604 43.1735 236.63 43.2191C236.655 43.2647 236.645 43.3138 236.602 43.3555C236.151 43.7954 235.674 44.2353 235.189 44.6645C235.159 44.6909 235.117 44.7127 235.066 44.7277C235.015 44.7427 234.958 44.7506 234.9 44.7504ZM237.907 41.7746C237.861 41.7801 237.813 41.7801 237.766 41.7746C237.726 41.7647 237.689 41.7505 237.659 41.733C237.629 41.7156 237.606 41.6951 237.591 41.6728C237.576 41.6505 237.569 41.6268 237.572 41.6032C237.574 41.5795 237.585 41.5564 237.605 41.535C238.109 40.9663 238.58 40.3941 239.011 39.8254C239.027 39.8036 239.051 39.7836 239.082 39.7668C239.113 39.7499 239.15 39.7365 239.19 39.7272C239.231 39.7179 239.274 39.7129 239.319 39.7126C239.363 39.7123 239.407 39.7166 239.448 39.7253C239.489 39.7339 239.526 39.7469 239.558 39.7632C239.59 39.7796 239.615 39.7992 239.633 39.8208C239.65 39.8423 239.659 39.8656 239.66 39.8891C239.661 39.9126 239.653 39.9359 239.636 39.9577C239.206 40.53 238.728 41.113 238.217 41.6888C238.184 41.718 238.136 41.7415 238.079 41.7567C238.022 41.7719 237.957 41.7781 237.894 41.7746H237.907ZM240.067 39.0028C240.013 39.0028 239.96 38.9958 239.912 38.9826C239.864 38.9693 239.823 38.9502 239.792 38.9266C239.761 38.9031 239.741 38.876 239.734 38.8476C239.726 38.8191 239.732 38.7901 239.751 38.7631C240.067 38.291 240.356 37.8118 240.612 37.3325C240.637 37.2851 240.696 37.2449 240.777 37.2207C240.858 37.1966 240.953 37.1905 241.042 37.2038C241.132 37.217 241.207 37.2486 241.253 37.2915C241.298 37.3345 241.309 37.3852 241.284 37.4327C241.022 37.9083 240.726 38.3912 240.41 38.8633C240.392 38.9055 240.346 38.943 240.281 38.9686C240.215 38.9943 240.134 39.0064 240.053 39.0028H240.067ZM241.796 35.7552H241.729C241.685 35.7505 241.644 35.7414 241.607 35.7282C241.571 35.7151 241.539 35.6982 241.515 35.6786C241.491 35.659 241.474 35.6371 241.465 35.614C241.457 35.5909 241.457 35.5672 241.466 35.5442C241.708 34.929 241.903 34.3103 242.038 33.7094C242.051 33.6626 242.098 33.6203 242.168 33.5911C242.238 33.5618 242.326 33.5479 242.415 33.552C242.459 33.5547 242.502 33.562 242.541 33.5735C242.58 33.5851 242.614 33.6006 242.642 33.6193C242.669 33.6379 242.689 33.6593 242.701 33.6821C242.713 33.7049 242.716 33.7288 242.711 33.7523C242.569 34.3675 242.374 34.9934 242.132 35.6193C242.112 35.659 242.067 35.6937 242.005 35.7178C241.942 35.7419 241.866 35.7539 241.789 35.7517L241.796 35.7552ZM242.569 32.7831C242.525 32.7817 242.482 32.7757 242.442 32.7654C242.402 32.7552 242.367 32.7408 242.337 32.7232C242.308 32.7056 242.285 32.6851 242.271 32.6628C242.257 32.6406 242.251 32.617 242.253 32.5935C242.307 32.1786 242.327 31.7637 242.327 31.3596V31.1056C242.326 31.0822 242.334 31.0588 242.35 31.0369C242.366 31.0151 242.39 30.9951 242.421 30.9781C242.452 30.9612 242.488 30.9476 242.529 30.9382C242.569 30.9288 242.613 30.9237 242.657 30.9232C242.745 30.9241 242.83 30.9426 242.893 30.9751C242.957 31.0076 242.995 31.0517 243 31.0985V31.356C243 31.7709 243 32.1929 242.926 32.615C242.923 32.6388 242.912 32.6621 242.892 32.6835C242.872 32.705 242.845 32.7241 242.811 32.7397C242.777 32.7554 242.738 32.7673 242.695 32.7747C242.652 32.7822 242.607 32.785 242.563 32.7831H242.569ZM242.408 29.4103C242.325 29.4107 242.245 29.3948 242.183 29.3658C242.121 29.3367 242.082 29.2966 242.072 29.253C241.933 28.6385 241.734 28.0284 241.473 27.4253C241.463 27.4018 241.462 27.3776 241.47 27.3539C241.478 27.3302 241.495 27.3076 241.519 27.2873C241.543 27.2671 241.575 27.2496 241.612 27.2358C241.649 27.2221 241.691 27.2123 241.735 27.2072C241.779 27.202 241.825 27.2015 241.87 27.2057C241.914 27.2099 241.957 27.2188 241.995 27.2317C242.033 27.2447 242.066 27.2615 242.092 27.2812C242.118 27.3009 242.136 27.3232 242.146 27.3466C242.413 27.9626 242.617 28.5859 242.758 29.2136C242.763 29.2371 242.76 29.261 242.748 29.2839C242.736 29.3067 242.716 29.3281 242.689 29.3467C242.661 29.3653 242.627 29.3809 242.588 29.3924C242.549 29.404 242.506 29.4113 242.462 29.4139H242.421L242.408 29.4103ZM241.264 26.474C241.192 26.474 241.121 26.4614 241.062 26.4382C241.004 26.415 240.962 26.3823 240.941 26.3452C240.672 25.8731 240.363 25.401 240.02 24.9432C240.003 24.9213 239.995 24.898 239.996 24.8745C239.997 24.851 240.006 24.8278 240.023 24.8062C240.041 24.7846 240.066 24.765 240.098 24.7487C240.13 24.7323 240.167 24.7194 240.208 24.7107C240.249 24.702 240.293 24.6977 240.337 24.698C240.381 24.6984 240.425 24.7033 240.466 24.7126C240.506 24.7219 240.543 24.7354 240.574 24.7522C240.605 24.7691 240.629 24.789 240.645 24.8108C240.995 25.2794 241.318 25.7586 241.587 26.2415C241.612 26.2865 241.603 26.3351 241.562 26.3766C241.52 26.4181 241.45 26.4492 241.365 26.4632L241.264 26.474ZM238.842 23.3516C238.781 23.3513 238.721 23.3422 238.669 23.3252C238.617 23.3082 238.575 23.2839 238.546 23.255C238.008 22.7149 237.409 22.182 236.764 21.6598C236.724 21.6206 236.713 21.5749 236.734 21.5317C236.754 21.4884 236.804 21.4509 236.874 21.4262C236.944 21.4016 237.029 21.3918 237.111 21.3986C237.194 21.4054 237.269 21.4284 237.322 21.4631C237.995 21.9925 238.593 22.5361 239.138 23.0905C239.159 23.1113 239.173 23.1342 239.177 23.1578C239.181 23.1814 239.177 23.2052 239.163 23.2278C239.15 23.2504 239.129 23.2714 239.1 23.2896C239.072 23.3078 239.037 23.3228 238.997 23.3337C238.949 23.3462 238.896 23.3524 238.842 23.3516ZM235.822 20.8193C235.769 20.8193 235.718 20.8129 235.671 20.8005C235.625 20.788 235.584 20.77 235.553 20.7478C235.008 20.358 234.416 19.9681 233.797 19.589C233.739 19.5529 233.71 19.5061 233.717 19.4588C233.724 19.4116 233.766 19.3677 233.834 19.3368C233.902 19.306 233.99 19.2908 234.079 19.2945C234.167 19.2981 234.25 19.3205 234.308 19.3565C234.934 19.7428 235.532 20.1398 236.091 20.5368C236.13 20.5633 236.155 20.5953 236.161 20.6289C236.168 20.6626 236.157 20.6965 236.129 20.7269C236.1 20.7572 236.057 20.7827 236.002 20.8003C235.948 20.8179 235.885 20.827 235.822 20.8265V20.8193ZM231.644 18.28C231.555 18.2793 231.471 18.26 231.408 18.2263C230.601 17.8007 229.733 17.3751 228.832 16.9638C228.798 16.9485 228.771 16.9299 228.751 16.9089C228.731 16.888 228.718 16.8652 228.715 16.8418C228.712 16.8183 228.717 16.7948 228.731 16.7725C228.744 16.7501 228.766 16.7295 228.795 16.7116C228.823 16.6938 228.859 16.6791 228.898 16.6685C228.937 16.6578 228.98 16.6514 229.024 16.6496C229.068 16.6477 229.113 16.6505 229.155 16.6578C229.197 16.6651 229.235 16.6767 229.269 16.6919C230.184 17.1104 231.059 17.5396 231.879 17.9724C231.93 17.9969 231.966 18.0292 231.981 18.0648C231.996 18.1004 231.991 18.1376 231.965 18.1715C231.94 18.2054 231.895 18.2343 231.838 18.2543C231.78 18.2744 231.713 18.2845 231.644 18.2835V18.28ZM227.419 16.2914C227.343 16.2911 227.27 16.2773 227.21 16.252C226.491 15.948 225.737 15.644 224.97 15.3507C224.934 15.3369 224.904 15.3194 224.881 15.2993C224.858 15.2792 224.842 15.2569 224.836 15.2337C224.829 15.2104 224.831 15.1867 224.841 15.1638C224.851 15.1409 224.87 15.1194 224.896 15.1004C224.922 15.0813 224.955 15.0652 224.993 15.053C225.031 15.0407 225.073 15.0325 225.116 15.0288C225.16 15.0252 225.205 15.0261 225.248 15.0317C225.291 15.0372 225.331 15.0472 225.367 15.061C226.141 15.3579 226.901 15.6655 227.628 15.973C227.684 15.9957 227.726 16.0275 227.747 16.0636C227.768 16.0998 227.767 16.1386 227.744 16.1744C227.721 16.2102 227.677 16.2411 227.618 16.2628C227.56 16.2845 227.49 16.2957 227.419 16.2949V16.2914ZM222.252 14.3278C222.188 14.3277 222.125 14.3178 222.071 14.2992C221.108 13.9702 220.099 13.6411 219.07 13.3264C218.992 13.3026 218.936 13.2635 218.912 13.2176C218.889 13.1716 218.901 13.1226 218.946 13.0814C218.99 13.0401 219.064 13.0099 219.15 12.9975C219.237 12.9851 219.329 12.9915 219.406 13.0152C220.442 13.3371 221.458 13.6661 222.427 13.9988C222.49 14.0187 222.539 14.049 222.567 14.0852C222.595 14.1213 222.599 14.1613 222.58 14.199C222.561 14.2367 222.52 14.27 222.462 14.2939C222.403 14.3178 222.332 14.331 222.259 14.3314L222.252 14.3278Z" fill="#534747"/>
<path d="M217.368 12.7935C217.312 12.7937 217.256 12.7863 217.206 12.772L216.022 12.4358C215.978 12.4269 215.938 12.413 215.904 12.3951C215.87 12.3773 215.844 12.3558 215.827 12.3322C215.811 12.3086 215.803 12.2833 215.806 12.2581C215.809 12.2328 215.822 12.2082 215.844 12.1858C215.866 12.1634 215.897 12.1438 215.934 12.1281C215.971 12.1125 216.014 12.1013 216.06 12.0952C216.107 12.089 216.155 12.0882 216.201 12.0927C216.248 12.0971 216.293 12.1068 216.332 12.1211L217.523 12.4609C217.585 12.4804 217.634 12.5102 217.662 12.5456C217.69 12.5811 217.696 12.6205 217.678 12.6578C217.661 12.6952 217.621 12.7286 217.565 12.753C217.509 12.7774 217.44 12.7916 217.368 12.7935Z" fill="#534747"/>
<path d="M232.012 48.9628C232.056 47.8073 230.329 46.8518 228.155 46.8287C225.982 46.8055 224.184 47.7236 224.141 48.8791C224.097 50.0347 225.824 50.9902 227.998 51.0133C230.171 51.0364 231.969 50.1184 232.012 48.9628Z" fill="#F68D88"/>
<path d="M202.022 91.3657C202.071 90.2105 200.35 89.2527 198.176 89.2265C196.003 89.2003 194.202 90.1155 194.153 91.2708C194.103 92.426 195.825 93.3838 197.998 93.41C200.171 93.4362 201.972 92.521 202.022 91.3657Z" fill="#F68D88"/>
<path d="M216.184 24.8002C229.066 24.8002 239.508 19.2484 239.508 12.4001C239.508 5.5517 229.066 0 216.184 0C203.302 0 192.859 5.5517 192.859 12.4001C192.859 19.2484 203.302 24.8002 216.184 24.8002Z" fill="#E9F3FF"/>
<path d="M216.184 22.3538C226.524 22.3538 234.907 17.8974 234.907 12.4001C234.907 6.90283 226.524 2.44641 216.184 2.44641C205.844 2.44641 197.461 6.90283 197.461 12.4001C197.461 17.8974 205.844 22.3538 216.184 22.3538Z" fill="#534747"/>
<path d="M216.184 13.1011C216.912 13.1011 217.503 12.7873 217.503 12.4001C217.503 12.013 216.912 11.6991 216.184 11.6991C215.456 11.6991 214.865 12.013 214.865 12.4001C214.865 12.7873 215.456 13.1011 216.184 13.1011Z" fill="white"/>
<path d="M215.343 3.45862H217.025V5.66538H215.343V3.45862Z" fill="white"/>
<path d="M227.486 5.76477L228.675 6.39703L225.74 7.95745L224.551 7.32519L227.486 5.76477Z" fill="white"/>
<path d="M233.003 11.953V12.8472H228.852V11.953H233.003Z" fill="white"/>
<path d="M228.665 18.4084L227.475 19.0407L224.54 17.4803L225.73 16.848L228.665 18.4084Z" fill="white"/>
<path d="M217.025 21.3416H215.343V19.1348H217.025V21.3416Z" fill="white"/>
<path d="M204.889 19.0392L203.7 18.4069L206.635 16.8465L207.824 17.4788L204.889 19.0392Z" fill="white"/>
<path d="M199.365 12.8472V11.953H203.516V12.8472H199.365Z" fill="white"/>
<path d="M203.696 6.39502L204.885 5.76276L207.82 7.32318L206.631 7.95544L203.696 6.39502Z" fill="white"/>
<path d="M216.574 6.54175H215.787L215.39 11.9531C215.386 12.011 215.403 12.0687 215.442 12.1229C215.48 12.177 215.539 12.2265 215.614 12.2683C215.69 12.31 215.78 12.3433 215.88 12.3659C215.981 12.3886 216.088 12.4003 216.197 12.4002C216.306 12.4003 216.414 12.3886 216.514 12.3659C216.614 12.3433 216.705 12.31 216.78 12.2683C216.856 12.2265 216.915 12.177 216.953 12.1229C216.992 12.0687 217.009 12.011 217.005 11.9531L216.574 6.54175Z" fill="white"/>
<path d="M208.097 16.4059L208.662 16.6992L216.17 13.0189C216.249 12.9789 216.311 12.9308 216.354 12.8776C216.396 12.8245 216.418 12.7673 216.418 12.7095C216.418 12.6517 216.396 12.5946 216.354 12.5414C216.311 12.4882 216.249 12.4402 216.17 12.4001C216.095 12.3585 216.005 12.3254 215.905 12.3027C215.805 12.2801 215.697 12.2684 215.589 12.2684C215.48 12.2684 215.372 12.2801 215.272 12.3027C215.172 12.3254 215.082 12.3585 215.007 12.4001L208.097 16.4059Z" fill="white"/>
<path d="M176.552 77.8556H146.547C144.154 77.8556 142.214 78.8868 142.214 80.1589V102.466C142.214 103.738 144.154 104.77 146.547 104.77H176.552C178.945 104.77 180.884 103.738 180.884 102.466V80.1589C180.884 78.8868 178.945 77.8556 176.552 77.8556Z" fill="#F68D88"/>
<path d="M175.038 81.3428H158.677C158.212 81.3428 157.836 81.5429 157.836 81.7898C157.836 82.0368 158.212 82.2369 158.677 82.2369H175.038C175.502 82.2369 175.879 82.0368 175.879 81.7898C175.879 81.5429 175.502 81.3428 175.038 81.3428Z" fill="white"/>
<path d="M152.07 79.98H149.17C148.089 79.98 147.213 80.446 147.213 81.0208V82.5623C147.213 83.1371 148.089 83.6031 149.17 83.6031H152.07C153.151 83.6031 154.028 83.1371 154.028 82.5623V81.0208C154.028 80.446 153.151 79.98 152.07 79.98Z" fill="white"/>
<path d="M149.15 80.9635L148.094 81.5215L150.704 82.9092L156.927 80.1588L151.041 82.0365L149.15 80.9635Z" fill="#534747"/>
<path d="M175.038 87.6909H158.677C158.212 87.6909 157.836 87.8911 157.836 88.138C157.836 88.3849 158.212 88.5851 158.677 88.5851H175.038C175.502 88.5851 175.879 88.3849 175.879 88.138C175.879 87.8911 175.502 87.6909 175.038 87.6909Z" fill="white"/>
<path d="M152.07 86.3284H149.17C148.089 86.3284 147.213 86.7943 147.213 87.3692V88.9107C147.213 89.4855 148.089 89.9515 149.17 89.9515H152.07C153.151 89.9515 154.028 89.4855 154.028 88.9107V87.3692C154.028 86.7943 153.151 86.3284 152.07 86.3284Z" fill="white"/>
<path d="M175.038 94.0396H158.677C158.212 94.0396 157.836 94.2397 157.836 94.4866C157.836 94.7335 158.212 94.9337 158.677 94.9337H175.038C175.502 94.9337 175.879 94.7335 175.879 94.4866C175.879 94.2397 175.502 94.0396 175.038 94.0396Z" fill="white"/>
<path d="M152.07 92.677H149.17C148.089 92.677 147.213 93.143 147.213 93.7178V95.2593C147.213 95.8341 148.089 96.3001 149.17 96.3001H152.07C153.151 96.3001 154.028 95.8341 154.028 95.2593V93.7178C154.028 93.143 153.151 92.677 152.07 92.677Z" fill="white"/>
<path d="M175.038 100.388H158.677C158.212 100.388 157.836 100.588 157.836 100.835C157.836 101.082 158.212 101.282 158.677 101.282H175.038C175.502 101.282 175.879 101.082 175.879 100.835C175.879 100.588 175.502 100.388 175.038 100.388Z" fill="white"/>
<path d="M152.07 99.0254H149.17C148.089 99.0254 147.213 99.4914 147.213 100.066V101.608C147.213 102.183 148.089 102.648 149.17 102.648H152.07C153.151 102.648 154.028 102.183 154.028 101.608V100.066C154.028 99.4914 153.151 99.0254 152.07 99.0254Z" fill="white"/>
<path d="M122.698 95.3057H102.306C100.196 95.3057 98.485 96.2152 98.485 97.3372V112.785C98.485 113.906 100.196 114.816 102.306 114.816H122.698C124.808 114.816 126.519 113.906 126.519 112.785V97.3372C126.519 96.2152 124.808 95.3057 122.698 95.3057Z" fill="#BDCDD6"/>
<path d="M122.341 97.8342H110.373C110.064 97.8342 109.814 97.9671 109.814 98.1311V98.1847C109.814 98.3487 110.064 98.4816 110.373 98.4816H122.341C122.649 98.4816 122.899 98.3487 122.899 98.1847V98.1311C122.899 97.9671 122.649 97.8342 122.341 97.8342Z" fill="white"/>
<path d="M105.61 96.8472H103.551C102.756 96.8472 102.111 97.1899 102.111 97.6126V98.707C102.111 99.1297 102.756 99.4724 103.551 99.4724H105.61C106.405 99.4724 107.049 99.1297 107.049 98.707V97.6126C107.049 97.1899 106.405 96.8472 105.61 96.8472Z" fill="white"/>
<path d="M122.341 102.438H110.373C110.064 102.438 109.814 102.57 109.814 102.734V102.788C109.814 102.952 110.064 103.085 110.373 103.085H122.341C122.649 103.085 122.899 102.952 122.899 102.788V102.734C122.899 102.57 122.649 102.438 122.341 102.438Z" fill="white"/>
<path d="M105.61 101.447H103.551C102.756 101.447 102.111 101.789 102.111 102.212V103.306C102.111 103.729 102.756 104.072 103.551 104.072H105.61C106.405 104.072 107.049 103.729 107.049 103.306V102.212C107.049 101.789 106.405 101.447 105.61 101.447Z" fill="white"/>
<path d="M122.341 107.041H110.373C110.064 107.041 109.814 107.173 109.814 107.337V107.391C109.814 107.555 110.064 107.688 110.373 107.688H122.341C122.649 107.688 122.899 107.555 122.899 107.391V107.337C122.899 107.173 122.649 107.041 122.341 107.041Z" fill="white"/>
<path d="M105.61 106.05H103.551C102.756 106.05 102.111 106.392 102.111 106.815V107.91C102.111 108.332 102.756 108.675 103.551 108.675H105.61C106.405 108.675 107.049 108.332 107.049 107.91V106.815C107.049 106.392 106.405 106.05 105.61 106.05Z" fill="white"/>
<path d="M122.341 111.64H110.373C110.064 111.64 109.814 111.773 109.814 111.937V111.991C109.814 112.154 110.064 112.287 110.373 112.287H122.341C122.649 112.287 122.899 112.154 122.899 111.991V111.937C122.899 111.773 122.649 111.64 122.341 111.64Z" fill="white"/>
<path d="M105.61 110.653H103.551C102.756 110.653 102.111 110.996 102.111 111.418V112.513C102.111 112.936 102.756 113.278 103.551 113.278H105.61C106.405 113.278 107.049 112.936 107.049 112.513V111.418C107.049 110.996 106.405 110.653 105.61 110.653Z" fill="white"/>
<path d="M25.7262 19.4529C27.0861 19.4529 28.1885 18.8668 28.1885 18.1439C28.1885 17.4209 27.0861 16.8348 25.7262 16.8348C24.3663 16.8348 23.2639 17.4209 23.2639 18.1439C23.2639 18.8668 24.3663 19.4529 25.7262 19.4529Z" fill="#E9F3FF"/>
<path d="M16.4288 20.7587C17.1013 20.7587 17.6465 20.4689 17.6465 20.1114C17.6465 19.7538 17.1013 19.464 16.4288 19.464C15.7563 19.464 15.2111 19.7538 15.2111 20.1114C15.2111 20.4689 15.7563 20.7587 16.4288 20.7587Z" fill="#E9F3FF"/>
<path d="M235.788 101.804C237.887 101.804 239.589 100.9 239.589 99.7835C239.589 98.6674 237.887 97.7627 235.788 97.7627C233.689 97.7627 231.987 98.6674 231.987 99.7835C231.987 100.9 233.689 101.804 235.788 101.804Z" fill="#E9F3FF"/>
<path d="M225.508 98.2494C226.549 98.2494 227.392 97.801 227.392 97.2479C227.392 96.6948 226.549 96.2465 225.508 96.2465C224.468 96.2465 223.625 96.6948 223.625 97.2479C223.625 97.801 224.468 98.2494 225.508 98.2494Z" fill="#E9F3FF"/>
<path d="M116.683 135.503C118.782 135.503 120.484 134.598 120.484 133.482C120.484 132.366 118.782 131.461 116.683 131.461C114.584 131.461 112.882 132.366 112.882 133.482C112.882 134.598 114.584 135.503 116.683 135.503Z" fill="#E9F3FF"/>
<path d="M106.403 131.945C107.444 131.945 108.287 131.496 108.287 130.943C108.287 130.39 107.444 129.942 106.403 129.942C105.363 129.942 104.52 130.39 104.52 130.943C104.52 131.496 105.363 131.945 106.403 131.945Z" fill="#E9F3FF"/>
<path d="M34.9834 42.1791C26.6345 42.8408 18.8372 58.3346 16.3144 62.6266C13.7915 66.9185 15.4734 76.5145 15.4734 76.5145C15.4734 76.5145 22.0328 78.2134 24.892 76.3357C24.892 76.3357 27.5831 67.0079 30.7787 62.2689C33.9743 57.5299 38.6836 53.7745 41.0382 49.3037C43.3929 44.833 41.3746 41.6713 34.9834 42.1791Z" fill="#F68D88"/>
<path d="M13.2062 76.2604L13.5627 80.0587C15.6853 80.7775 18.2258 81.0634 20.7141 80.8635C24.9996 80.5523 26.5133 79.4793 26.5133 79.4793L26.6008 75.9921C26.6008 75.9921 21.2793 74.2467 13.2062 76.2604Z" fill="#BDCDD6"/>
<path d="M9.19657 72.8769L7.73668 84.7405L31.3976 80.8348L33.5302 69.1215L9.19657 72.8769Z" fill="#BDCDD6"/>
<path d="M7.73674 84.7405L5.49646 84.3506L6.95634 72.4906L9.19663 72.8769L7.73674 84.7405Z" fill="#534747"/>
<path d="M33.5303 69.1214L31.2832 68.7351L6.95633 72.4905L9.19661 72.8768L33.5303 69.1214Z" fill="#E9F3FF"/>
<path d="M11.901 84.0179C11.901 84.0179 12.0289 85.1374 13.6233 85.4486C14.0958 85.5394 14.5998 85.5746 15.1004 85.5517C15.601 85.5289 16.0864 85.4485 16.5229 85.3162C17.0615 85.402 17.6302 85.4204 18.1844 85.3702C18.7387 85.3199 19.2637 85.2023 19.7185 85.0265C19.7185 85.0265 21.4878 85.3413 22.3691 84.7368C22.3691 84.7368 24.5556 85.0051 25.2284 83.9321C25.9011 82.8591 26.0693 81.3391 25.188 81.0029C24.3067 80.6667 23.6945 81.4178 23.6945 81.4178C23.5738 81.3221 23.4114 81.2433 23.2211 81.1882C23.0308 81.133 22.8183 81.1031 22.6017 81.101C22.385 81.0989 22.1706 81.1247 21.9767 81.1761C21.7828 81.2275 21.615 81.303 21.4878 81.3963C21.4878 81.3963 20.25 80.7597 18.9448 81.5859C18.9448 81.5859 18.124 80.9599 17.0745 81.3641C16.025 81.7683 15.4532 83.3598 15.3321 83.5101L11.901 84.0179Z" fill="#ECBDBB"/>
<path d="M17.7877 84.5114C17.7336 84.511 17.6805 84.5036 17.6329 84.49C17.5549 84.4679 17.4963 84.4304 17.4699 84.3855C17.4434 84.3407 17.4512 84.2921 17.4916 84.2503C18.1176 83.5024 18.4954 82.7026 18.6084 81.8862C18.6138 81.8388 18.6543 81.7944 18.7212 81.7629C18.7881 81.7314 18.8758 81.7152 18.965 81.7181C19.0542 81.7209 19.1376 81.7425 19.1969 81.7781C19.2562 81.8136 19.2865 81.8602 19.2812 81.9077C19.1656 82.773 18.7624 83.6207 18.0904 84.4113C18.0627 84.4414 18.0196 84.4667 17.966 84.4844C17.9125 84.5021 17.8507 84.5115 17.7877 84.5114Z" fill="#534747"/>
<path d="M20.2904 84.4296C20.2416 84.4354 20.1911 84.4354 20.1424 84.4296C20.1025 84.4193 20.0669 84.4049 20.0376 84.3873C20.0083 84.3696 19.9858 84.3491 19.9714 84.3269C19.957 84.3046 19.9511 84.281 19.9538 84.2575C19.9566 84.234 19.9681 84.2111 19.9876 84.19C20.5952 83.4404 20.9679 82.643 21.0909 81.8294C21.0978 81.7823 21.1389 81.7384 21.2054 81.7071C21.2719 81.6757 21.3587 81.6593 21.4475 81.6613C21.4917 81.6627 21.535 81.6687 21.5748 81.6789C21.6146 81.6892 21.6503 81.7036 21.6796 81.7212C21.709 81.7388 21.7316 81.7593 21.746 81.7816C21.7604 81.8038 21.7664 81.8274 21.7637 81.8509C21.6406 82.7144 21.2449 83.5608 20.5931 84.3545C20.5593 84.3799 20.5136 84.4003 20.4605 84.4134C20.4074 84.4266 20.3488 84.4322 20.2904 84.4296Z" fill="#534747"/>
<path d="M22.7258 84.2182C22.6663 84.2187 22.6077 84.2108 22.556 84.1952C22.5042 84.1797 22.461 84.1572 22.4309 84.1299C22.4009 84.1027 22.3849 84.0717 22.3847 84.04C22.3845 84.0084 22.4 83.9774 22.4298 83.95C23.1429 83.2776 23.3111 81.8505 23.3111 81.8362C23.318 81.7891 23.359 81.7453 23.4255 81.7139C23.492 81.6825 23.5788 81.6661 23.6676 81.6681C23.7118 81.6695 23.7551 81.6755 23.7949 81.6858C23.8348 81.696 23.8704 81.7104 23.8998 81.728C23.9292 81.7456 23.9517 81.7661 23.9661 81.7884C23.9806 81.8106 23.9866 81.8342 23.9838 81.8577C23.9838 81.9185 23.8022 83.3813 23.0151 84.1253C22.9866 84.153 22.9448 84.1761 22.894 84.1925C22.8432 84.2088 22.7852 84.2177 22.7258 84.2182Z" fill="#534747"/>
<path d="M18.2788 144.648L16.5498 147.964L14.3567 152.159H8.18747L8.95441 147.56L9.42534 144.766L18.2788 144.648Z" fill="#ECBDBB"/>
<path d="M9.42535 144.766L18.2788 144.648L16.5499 147.964L8.95442 147.56L9.42535 144.766Z" fill="#534747"/>
<path d="M4.373 158C4.31918 157.882 5.32832 153.708 7.68297 151.144C10.2333 151.296 12.8032 151.336 15.3659 151.262C15.3659 151.262 21.7032 153.826 27.3073 154.956C32.9114 156.086 34.1492 156.537 33.9811 157.996H4.37972L4.373 158Z" fill="#534747"/>
<path d="M24.892 79.6116C24.892 79.6116 7.40033 105.184 0 146.315H31.2832C31.2832 146.315 36.6653 116.093 49.4477 96.0639L55.6707 81.1316C59.095 69.1321 33.5302 67.0934 24.892 79.6116Z" fill="#BDCDD6"/>
<path d="M30.9535 91.0138C29.9376 91.0138 25.2283 88.9501 24.7574 88.4064C24.2865 87.8628 26.1029 83.9106 26.6209 82.7017C26.6418 82.6573 26.6938 82.6188 26.7664 82.5942C26.839 82.5696 26.9266 82.5607 27.0111 82.5694C31.4606 82.9847 35.9543 83.2523 40.4663 83.3706C40.5143 83.3717 40.5614 83.3783 40.6042 83.3899C40.6471 83.4014 40.6848 83.4178 40.7148 83.4378C40.7447 83.4578 40.7663 83.481 40.778 83.5058C40.7896 83.5306 40.7912 83.5564 40.7825 83.5816C40.4663 84.4722 38.892 88.9465 38.7171 89.1575C38.4547 89.5438 31.5993 91.0138 30.9535 91.0138ZM27.2062 82.9485C26.1298 85.352 25.188 87.9558 25.3763 88.2598C25.7598 88.7069 30.2471 90.6346 30.9602 90.6561C31.6734 90.6776 37.5129 89.297 38.1453 89.0037C38.3202 88.6747 39.363 85.7633 40.0895 83.7175C35.7682 83.596 31.4641 83.3392 27.1995 82.9485H27.2062Z" fill="#534747"/>
<path d="M24.2193 144.885H24.1789C24.0908 144.879 24.0102 144.856 23.9547 144.819C23.8993 144.782 23.8735 144.735 23.8829 144.688C28.8748 122.223 41.5899 96.5469 41.7177 96.2894C41.7409 96.242 41.7986 96.2014 41.8781 96.1766C41.9576 96.1518 42.0523 96.1447 42.1416 96.1571C42.2308 96.1694 42.3071 96.2001 42.3538 96.2423C42.4005 96.2846 42.4137 96.335 42.3905 96.3824C42.2627 96.6399 29.5543 122.291 24.5691 144.731C24.5575 144.775 24.5151 144.815 24.4504 144.844C24.3856 144.872 24.3032 144.887 24.2193 144.885Z" fill="#534747"/>
<path d="M68.0966 144.648L67.3834 148.2L66.5829 152.159H60.4204L59.7073 147.567L59.2767 144.766L68.0966 144.648Z" fill="#ECBDBB"/>
<path d="M68.0966 144.648L67.3834 148.2L59.7073 147.567L59.2767 144.766L68.0966 144.648Z" fill="#534747"/>
<path d="M56.6192 158C56.5654 157.882 57.5745 153.708 59.9292 151.144C62.4795 151.296 65.0494 151.336 67.6121 151.262C67.6121 151.262 73.9495 153.826 79.5535 154.956C85.1576 156.086 86.3955 156.537 86.2273 157.996H56.6192V158Z" fill="#534747"/>
<path d="M44.0656 81.5822C44.0656 81.5822 39.4707 90.8349 45.6937 99.4653C47.1267 115.467 49.0575 137.696 49.4477 146.319H84.8078C84.8078 146.319 86.4022 102.008 78.1677 80.7918C69.9331 59.5754 41.0382 67.4547 44.0656 81.5822Z" fill="#BDCDD6"/>
<path d="M45.6936 99.6405C45.6237 99.6402 45.5557 99.6284 45.499 99.6066C45.4423 99.5848 45.3998 99.5542 45.3774 99.5189C41.6033 93.478 41.1862 88.9501 43.7292 81.5751C43.5647 80.8046 43.4928 80.0293 43.5139 79.2539C43.5139 79.2065 43.5494 79.161 43.6124 79.1274C43.6755 79.0939 43.7611 79.0751 43.8503 79.0751C43.9395 79.0751 44.0251 79.0939 44.0881 79.1274C44.1512 79.161 44.1867 79.2065 44.1867 79.2539C44.1653 80.0233 44.2373 80.7927 44.402 81.5572C44.4071 81.575 44.4071 81.5931 44.402 81.6109C41.8724 88.9322 42.2828 93.4137 46.0166 99.4009C46.0442 99.446 46.037 99.495 45.9966 99.5372C45.9563 99.5795 45.886 99.6115 45.8013 99.6262L45.6936 99.6405Z" fill="#534747"/>
<path d="M63.5016 91.5967C62.1561 91.5967 56.3973 90.3878 55.7245 89.9443C55.0517 89.5008 54.4261 85.0515 54.2444 83.6924C54.2405 83.6669 54.2468 83.6413 54.2631 83.6172C54.2793 83.5932 54.3051 83.5712 54.3386 83.5529C54.3713 83.5336 54.4121 83.5187 54.4577 83.5093C54.5033 83.5 54.5524 83.4966 54.601 83.4993C54.675 83.4993 62.1897 83.7282 68.6213 82.9878C68.6685 82.9826 68.7173 82.9829 68.7643 82.9887C68.8113 82.9944 68.8555 83.0054 68.8938 83.021C68.9321 83.0366 68.9636 83.0564 68.9862 83.0791C69.0088 83.1018 69.022 83.1267 69.0249 83.1523C69.1393 84.1288 69.6977 89.0037 69.6304 89.2326C69.5295 89.6403 64.2483 91.4965 63.663 91.5716C63.6114 91.5836 63.5571 91.592 63.5016 91.5967ZM54.9441 83.8677C55.3141 86.5358 55.886 89.44 56.256 89.719C56.7875 90.0766 62.7481 91.3249 63.5016 91.239C64.2551 91.1532 68.5271 89.5079 68.9711 89.1789C68.9711 88.8212 68.6414 85.6238 68.3858 83.3812C63.9522 83.8044 59.4446 83.9675 54.9441 83.8677Z" fill="#534747"/>
<path d="M54.2713 96.1248C44.0858 95.7135 37.2102 95.7063 37.1429 95.7063C37.0537 95.7063 36.9682 95.6875 36.9051 95.6539C36.842 95.6204 36.8065 95.5749 36.8065 95.5275C36.8065 95.48 36.842 95.4346 36.9051 95.401C36.9682 95.3675 37.0537 95.3486 37.1429 95.3486C37.2102 95.3486 44.1127 95.3486 54.3251 95.7671C54.4144 95.7709 54.4971 95.7934 54.5551 95.8296C54.6132 95.8658 54.6418 95.9128 54.6346 95.9602C54.6275 96.0077 54.5852 96.0516 54.5171 96.0825C54.4489 96.1134 54.3605 96.1286 54.2713 96.1248Z" fill="#534747"/>
<path d="M76.358 144.348H76.3244C76.2801 144.346 76.2371 144.339 76.1979 144.328C76.1587 144.317 76.124 144.301 76.0958 144.283C76.0677 144.265 76.0466 144.244 76.0339 144.221C76.0211 144.199 76.017 144.175 76.0216 144.151C80.6771 120.302 73.7342 82.6015 73.667 82.2224C73.658 82.175 73.6849 82.1276 73.7417 82.0907C73.7985 82.0538 73.8805 82.0304 73.9697 82.0257C74.0589 82.0209 74.148 82.0352 74.2174 82.0654C74.2868 82.0956 74.3308 82.1392 74.3397 82.1866C74.407 82.5657 81.3499 120.302 76.6944 144.187C76.686 144.231 76.6469 144.272 76.5847 144.302C76.5225 144.332 76.4417 144.348 76.358 144.348Z" fill="#534747"/>
<path d="M53.5448 41.8498C53.5448 41.8498 55.0047 39.8218 55.6169 39.1387C51.3804 38.7396 47.0594 38.659 42.7807 38.8991L44.7989 41.8498H53.5448Z" fill="#F68D88"/>
<path d="M34.9834 42.1788C34.9834 42.1788 48.3242 39.7359 64.134 42.8333C64.134 42.8333 77.7035 64.7686 80.7309 80.5056C80.7309 80.5056 52.3069 84.0822 21.6964 80.6845C21.6964 80.6845 24.2193 51.3563 34.9834 42.1788Z" fill="#F68D88"/>
<path d="M53.8139 41.6605H53.7668C50.0809 41.4038 46.3516 41.3738 42.6528 41.571C42.6087 41.5734 42.564 41.5711 42.5215 41.5643C42.479 41.5575 42.4395 41.5462 42.4051 41.5313C42.3707 41.5164 42.3423 41.498 42.3213 41.4772C42.3003 41.4564 42.2872 41.4336 42.2828 41.4101C42.2784 41.3866 42.2827 41.3629 42.2955 41.3403C42.3084 41.3177 42.3294 41.2967 42.3575 41.2784C42.3857 41.2601 42.4203 41.245 42.4594 41.2338C42.4985 41.2227 42.5414 41.2157 42.5855 41.2134C46.3358 41.0132 50.1169 41.0432 53.8542 41.3028C53.9434 41.3056 54.0269 41.3272 54.0862 41.3628C54.1455 41.3983 54.1758 41.4449 54.1704 41.4924C54.1651 41.5398 54.1245 41.5841 54.0576 41.6157C53.9908 41.6472 53.9031 41.6633 53.8139 41.6605Z" fill="#ECBDBB"/>
<path d="M23.5465 68.5598H23.5129C23.4247 68.5544 23.3441 68.5307 23.2887 68.4939C23.2332 68.457 23.2074 68.41 23.2169 68.3631C25.0333 59.2929 28.5048 47.372 34.7076 42.0858C34.7549 42.0455 34.8303 42.0168 34.9174 42.0061C35.0045 41.9954 35.096 42.0035 35.1718 42.0286C35.2476 42.0537 35.3016 42.0939 35.3218 42.1401C35.3419 42.1864 35.3267 42.2351 35.2794 42.2754C29.1372 47.5008 25.6725 59.368 23.8829 68.4168C23.8672 68.4578 23.8249 68.4945 23.7635 68.5207C23.702 68.5468 23.6252 68.5607 23.5465 68.5598Z" fill="#ECBDBB"/>
<path d="M75.9947 79.4327C75.912 79.433 75.8321 79.4171 75.77 79.3881C75.708 79.3591 75.6682 79.3189 75.6583 79.2753C73.4718 69.9189 68.0158 59.8186 67.9619 59.7184C67.937 59.671 67.9484 59.6203 67.9939 59.5773C68.0393 59.5344 68.1149 59.5028 68.2041 59.4895C68.2933 59.4763 68.3888 59.4824 68.4696 59.5065C68.5503 59.5307 68.6097 59.5709 68.6347 59.6183C68.6885 59.7184 74.158 69.8474 76.3512 79.2288C76.3627 79.2758 76.3387 79.3232 76.2844 79.3607C76.2302 79.3983 76.1502 79.4229 76.0619 79.4291H75.9947V79.4327Z" fill="#ECBDBB"/>
<path d="M92.2755 50.5518L95.4711 47.5117C95.4711 47.5117 94.1256 43.8457 94.0717 43.2806C94.0179 42.7155 97.153 40.9272 97.4894 40.7769C97.8257 40.6267 101.304 40.5981 101.304 40.5981C101.855 40.4725 102.454 40.4173 103.053 40.4372C103.244 40.44 103.425 40.4823 103.559 40.5551C103.692 40.6279 103.766 40.7255 103.766 40.827C103.766 40.827 105.26 40.616 105.3 41.2061C105.432 41.1967 105.565 41.1967 105.697 41.2061C105.854 41.2251 105.997 41.2676 106.109 41.3284C106.222 41.3892 106.299 41.4659 106.333 41.5494C106.366 41.6329 106.353 41.7197 106.297 41.7996C106.24 41.8795 106.142 41.9491 106.013 42.0001C105.26 42.3006 103.894 42.8442 103.833 42.9014C103.773 42.9587 101.062 45.1583 101.015 45.2477C100.968 45.3371 100.449 47.83 100.174 48.3343C99.8978 48.8386 97.1597 52.3222 97.1597 52.3222L92.2755 50.5518Z" fill="#ECBDBB"/>
<path d="M96.3119 42.5508C96.2418 42.5513 96.1732 42.5402 96.1156 42.519C96.058 42.4978 96.0142 42.4676 95.9905 42.4325C95.9668 42.3974 95.9643 42.3593 95.9833 42.3235C96.0023 42.2876 96.042 42.2558 96.0966 42.2325C96.2043 42.1824 98.828 41.0379 100.315 40.7375C100.356 40.7292 100.401 40.7255 100.445 40.7263C100.489 40.7272 100.533 40.7326 100.573 40.7424C100.613 40.7522 100.649 40.7662 100.68 40.7834C100.71 40.8007 100.733 40.8209 100.749 40.843C100.764 40.8651 100.771 40.8885 100.77 40.9121C100.768 40.9356 100.758 40.9588 100.739 40.9802C100.721 41.0016 100.695 41.0209 100.662 41.0369C100.63 41.053 100.592 41.0655 100.55 41.0737C99.1711 41.3491 96.5541 42.5043 96.5137 42.5043C96.4582 42.5314 96.3871 42.5478 96.3119 42.5508Z" fill="#534747"/>
<path d="M98.0544 42.9086C97.9838 42.9086 97.915 42.8968 97.8577 42.8749C97.8005 42.8529 97.7576 42.8219 97.7353 42.7863C97.713 42.7507 97.7123 42.7123 97.7333 42.6765C97.7544 42.6406 97.7961 42.6092 97.8526 42.5867C99.3658 41.9789 100.96 41.4302 102.622 40.9451C102.663 40.9337 102.708 40.9268 102.753 40.925C102.799 40.9231 102.845 40.9262 102.889 40.9342C102.932 40.9421 102.972 40.9547 103.006 40.9711C103.04 40.9876 103.067 41.0075 103.086 41.0298C103.105 41.0521 103.115 41.0761 103.116 41.1005C103.116 41.125 103.108 41.1492 103.09 41.1717C103.072 41.1943 103.046 41.2147 103.013 41.2317C102.98 41.2487 102.941 41.2619 102.898 41.2705C101.28 41.7464 99.727 42.2818 98.2495 42.8728C98.1931 42.8953 98.1249 42.9079 98.0544 42.9086Z" fill="#534747"/>
<path d="M101.021 42.8977C100.952 42.8981 100.885 42.8872 100.828 42.8664C100.771 42.8456 100.727 42.8161 100.703 42.7817C100.679 42.7473 100.675 42.7098 100.692 42.6743C100.709 42.6387 100.747 42.6068 100.799 42.583C101.989 42.045 103.292 41.5817 104.681 41.2024C104.762 41.1825 104.855 41.1805 104.939 41.197C105.023 41.2134 105.091 41.2469 105.128 41.29C105.166 41.3332 105.17 41.3825 105.139 41.4271C105.108 41.4717 105.045 41.508 104.964 41.5279C103.632 41.8945 102.381 42.3396 101.237 42.8548C101.177 42.8821 101.1 42.8973 101.021 42.8977Z" fill="#534747"/>
<path d="M87.9092 53.8921C87.741 53.7419 87.2364 52.4328 87.4585 52.1324C88.5804 51.3014 89.8784 50.5417 91.3268 49.8684C91.9457 49.6896 98.5051 50.97 99.4537 53.5952C99.4537 53.5952 97.6036 55.8592 97.2134 55.9808C96.8232 56.1024 93.1231 56.0416 90.8761 55.4157C89.6082 55.0879 88.5692 54.5544 87.9092 53.8921Z" fill="#BDCDD6"/>
<path d="M89.2548 52.1936L84.3234 55.1157C84.3234 55.1157 73.0009 45.398 64.1407 42.8372C64.1407 42.8372 61.2277 41.825 60.5549 47.3687C59.8822 52.9125 63.5823 56.6679 63.5823 56.6679C63.5823 56.6679 78.383 63.8211 83.3143 64.2396C88.2456 64.658 92.6186 60.0085 95.8747 55.0584C94.2937 53.5026 92.2283 52.4261 89.2548 52.1936Z" fill="#F68D88"/>
<path d="M72.9943 61.0597C72.9184 61.0595 72.8449 61.0456 72.7857 61.0204C67.9486 59.0103 63.3671 56.8143 63.3671 56.7928C63.3371 56.7786 63.312 56.7616 63.2931 56.7427C63.2527 56.7034 59.5593 52.88 60.2253 47.3506C60.4541 45.4586 60.9721 44.1102 61.7592 43.3412C61.802 43.2995 61.8743 43.2685 61.9601 43.2551C62.0459 43.2417 62.1382 43.2469 62.2167 43.2697C62.2952 43.2925 62.3535 43.3309 62.3787 43.3765C62.4039 43.4221 62.3941 43.4712 62.3512 43.5129C61.6112 44.2282 61.1201 45.5337 60.8981 47.3721C60.449 50.5145 61.4682 53.6672 63.8649 56.5496C64.3561 56.7857 68.6617 58.8458 73.2163 60.7378C73.2744 60.7608 73.317 60.7932 73.3377 60.8302C73.3584 60.8671 73.3561 60.9066 73.3311 60.9428C73.3062 60.979 73.2599 61.0099 73.1992 61.031C73.1385 61.052 73.0666 61.0621 72.9943 61.0597Z" fill="#ECBDBB"/>
<path d="M88.0505 58.1769C87.9874 58.1769 87.9256 58.1676 87.8721 58.1499C87.8186 58.1322 87.7755 58.1068 87.7477 58.0767C86.808 57.1867 85.7372 56.3376 84.5454 55.5374C84.4988 55.5 84.4802 55.4548 84.4933 55.4105C84.5064 55.3663 84.5503 55.3262 84.6162 55.2984C84.6822 55.2705 84.7655 55.2568 84.8495 55.26C84.9336 55.2632 85.0123 55.283 85.0702 55.3156C86.2932 56.1336 87.3889 57.0032 88.3465 57.9158C88.373 57.9429 88.3859 57.9732 88.384 58.0038C88.3822 58.0344 88.3656 58.0642 88.3359 58.0904C88.3062 58.1166 88.2644 58.1383 88.2144 58.1534C88.1644 58.1686 88.108 58.1766 88.0505 58.1769Z" fill="#ECBDBB"/>
<path d="M52.7577 29.8967C58.9807 29.8324 59.6534 33.3553 57.689 35.9162C55.7245 38.477 51.688 37.5256 49.3333 35.7659C46.9787 34.0063 47.093 29.9575 52.7577 29.8967Z" fill="#ECBDBB"/>
<path d="M54.7087 34.2139L55.9735 34.2353C56.3376 33.8044 56.6193 33.355 56.8144 32.8941C57.3701 33.2457 57.9607 33.5811 58.5838 33.8991C58.7116 33.8991 62.5799 32.0429 62.8289 31.4849C63.0778 30.927 58.6981 26.9283 53.9888 26.4992C49.2795 26.07 40.6211 29.271 40.1973 29.9434C39.7735 30.6158 39.9013 32.6259 39.5245 33.2089C39.1478 33.7918 32.4202 34.4821 30.9469 35.6696C29.4735 36.857 29.8974 38.6417 30.8661 40.1868C31.8349 41.7319 28.5115 42.4222 24.6431 43.4057C20.7748 44.3893 18.003 48.8601 26.9171 51.5425C35.8311 54.225 50.4636 50.5625 52.4011 46.4459C53.8879 43.2877 52.9999 42.0681 52.1051 40.43C51.2103 38.7919 55.9062 40.1832 53.1613 36.0737C51.7082 33.8956 54.1167 33.1516 54.1167 33.1516L54.7087 34.2139Z" fill="#534747"/>
<path d="M55.0517 34.3853C55.3139 34.0814 55.4361 33.7487 55.408 33.4146C55.3799 33.0806 55.2024 32.755 54.8903 32.4647C54.7458 32.3052 54.5164 32.1717 54.2306 32.0808C53.9448 31.9899 53.6151 31.9455 53.2824 31.9533C51.3045 32.0427 51.809 34.278 54.7759 34.7251L55.0517 34.3853Z" fill="#ECBDBB"/>
<path d="M54.3454 34.1459H54.2848C54.1975 34.1372 54.1203 34.1105 54.0699 34.0716C54.0195 34.0327 54 33.9849 54.0157 33.9384C54.0157 33.9384 54.3588 32.9405 53.343 32.7331C53.2591 32.7165 53.1911 32.6829 53.1539 32.6396C53.1166 32.5963 53.1133 32.547 53.1445 32.5024C53.1757 32.4578 53.239 32.4217 53.3204 32.4019C53.4017 32.3821 53.4946 32.3803 53.5784 32.3969C55.1459 32.7081 54.7221 33.9491 54.7019 34.0028C54.6857 34.0457 54.6405 34.084 54.5748 34.1103C54.5091 34.1367 54.4274 34.1493 54.3454 34.1459Z" fill="#534747"/>
<path d="M53.2555 33.5449C53.1936 33.5451 53.1328 33.5362 53.0798 33.5191C53.0268 33.5021 52.9836 33.4777 52.9551 33.4484C52.9266 33.4192 52.9138 33.3864 52.9181 33.3536C52.9225 33.3207 52.9437 33.2892 52.9797 33.2623C53.2811 33.0581 53.6989 32.9113 54.1704 32.8439C54.2596 32.832 54.3541 32.8395 54.4329 32.8646C54.5118 32.8898 54.5686 32.9306 54.5909 32.978C54.6132 33.0254 54.5992 33.0756 54.5519 33.1176C54.5045 33.1595 54.4278 33.1897 54.3386 33.2015C54.0184 33.2482 53.7337 33.347 53.5246 33.4841C53.4912 33.5043 53.4497 33.5203 53.4031 33.5309C53.3565 33.5414 53.3061 33.5462 53.2555 33.5449Z" fill="#534747"/>
<path d="M48.6673 29.8969C50.4164 28.3232 48.4453 25.3689 43.958 25.487C42.9386 25.5172 41.9413 25.6567 41.0259 25.897C40.1105 26.1373 39.2959 26.4735 38.6311 26.8854C37.9663 27.2973 37.4649 27.7764 37.1572 28.2939C36.8494 28.8114 36.7416 29.3567 36.8402 29.8969C37.1698 32.1037 44.6307 33.5343 48.6673 29.8969Z" fill="#534747"/>
<path d="M42.2425 32.2931C41.8978 32.293 41.5536 32.2786 41.2131 32.2502C41.1239 32.2431 41.0437 32.2174 40.9901 32.1789C40.9365 32.1403 40.9138 32.092 40.9272 32.0446C40.9406 31.9971 40.9889 31.9545 41.0614 31.926C41.134 31.8975 41.2248 31.8854 41.3141 31.8925C44.0051 32.1179 46.6961 31.3346 48.378 29.7967C48.6973 29.4684 48.8914 29.1098 48.9491 28.7415C49.0069 28.3732 48.9271 28.0025 48.7144 27.6507C48.6894 27.6033 48.7009 27.5525 48.7463 27.5096C48.7917 27.4667 48.8674 27.4351 48.9566 27.4218C49.0458 27.4085 49.1413 27.4146 49.222 27.4388C49.3028 27.4629 49.3622 27.5031 49.3872 27.5506C49.6293 27.9515 49.7183 28.3741 49.6489 28.7936C49.5796 29.2131 49.3534 29.621 48.9835 29.9934C47.3151 31.4669 44.8595 32.2931 42.2425 32.2931Z" fill="#BDCDD6"/>
</svg>
