<svg width="244" height="169" viewBox="0 0 244 169" fill="none" xmlns="http://www.w3.org/2000/svg">
<path d="M31.6182 144.315C31.5564 144.315 31.4972 144.295 31.4535 144.261C31.1252 144 30.59 139.215 29.1486 124.97C28.5589 119.141 28.0018 113.635 27.5952 110.289C27.5663 110.05 27.4496 110.022 27.4114 110.013C26.855 109.88 25.1625 110.94 24.2177 111.868C24.1788 111.906 24.1224 111.931 24.061 111.936C23.9995 111.941 23.9379 111.927 23.8898 111.896C23.8418 111.865 23.8111 111.82 23.8046 111.771C23.7981 111.723 23.8163 111.674 23.8551 111.635C24.48 111.022 26.5164 109.413 27.5454 109.659C27.753 109.708 28.0114 109.852 28.0594 110.254C28.4662 113.602 29.0233 119.11 29.6132 124.94C30.4891 133.597 31.4814 143.404 31.8074 144.022C31.8324 144.05 31.8473 144.082 31.8504 144.116C31.8536 144.15 31.8449 144.184 31.8254 144.214C31.8058 144.245 31.7762 144.27 31.7396 144.288C31.703 144.305 31.661 144.315 31.6182 144.315Z" fill="#494949"/>
<path d="M26.9973 116.429C30.8636 113.967 32.1451 110.135 29.8595 107.87C27.5739 105.605 22.5868 105.765 18.7205 108.227C14.8542 110.689 13.5727 114.521 15.8583 116.786C18.1438 119.051 23.131 118.891 26.9973 116.429Z" fill="#0CBC8B"/>
<path opacity="0.2" d="M26.9973 116.429C30.8636 113.967 32.1451 110.135 29.8595 107.87C27.5739 105.605 22.5868 105.765 18.7205 108.227C14.8542 110.689 13.5727 114.521 15.8583 116.786C18.1438 119.051 23.131 118.891 26.9973 116.429Z" fill="white"/>
<path d="M16.9416 117.362C16.9195 117.361 16.8979 117.356 16.8792 117.347C16.8606 117.338 16.8457 117.324 16.8364 117.308C16.827 117.292 16.8235 117.275 16.8263 117.257C16.8291 117.24 16.838 117.223 16.8521 117.21L27.8709 106.654C27.8908 106.636 27.919 106.625 27.9495 106.623C27.9799 106.621 28.0101 106.628 28.0336 106.644C28.0571 106.659 28.072 106.681 28.075 106.706C28.0781 106.73 28.0691 106.754 28.05 106.773L17.0313 117.328C17.0203 117.339 17.0066 117.347 16.9911 117.353C16.9756 117.359 16.9587 117.362 16.9416 117.362Z" fill="white"/>
<path d="M34.0216 142.052C33.9844 142.052 33.9477 142.045 33.9146 142.032C33.8816 142.018 33.8531 141.998 33.8315 141.974C33.81 141.95 33.796 141.922 33.7907 141.893C33.7855 141.864 33.7891 141.834 33.8014 141.806L37.9404 132.35C38.0622 132.073 38.2699 131.823 38.5443 131.626C38.8188 131.428 39.1513 131.289 39.5113 131.22C39.8713 131.151 40.2474 131.154 40.6051 131.231C40.9628 131.307 41.2906 131.454 41.5586 131.657L43.7467 133.317C43.7914 133.351 43.8173 133.398 43.8187 133.447C43.8201 133.496 43.7969 133.544 43.7542 133.579C43.7115 133.615 43.6528 133.635 43.591 133.636C43.5292 133.637 43.4694 133.619 43.4247 133.585L41.2366 131.925C41.0251 131.764 40.7663 131.649 40.484 131.588C40.2016 131.528 39.9048 131.525 39.6206 131.58C39.3365 131.634 39.074 131.744 38.8574 131.9C38.6407 132.056 38.4768 132.253 38.3805 132.472L34.2415 141.928C34.2256 141.964 34.1959 141.996 34.1565 142.018C34.1171 142.04 34.0699 142.052 34.0216 142.052Z" fill="#494949"/>
<path d="M49.86 138.552C52.7253 136.75 52.555 132.788 49.4796 129.701C46.4043 126.615 41.5884 125.573 38.7231 127.375C35.8577 129.177 36.028 133.139 39.1034 136.226C42.1788 139.312 46.9946 140.354 49.86 138.552Z" fill="#0CBC8B"/>
<path d="M29.7379 143.712C29.6855 143.712 29.6347 143.698 29.5936 143.672C29.5525 143.646 29.5236 143.61 29.5114 143.57L22.5657 120.499C22.5182 120.342 22.4171 120.198 22.2734 120.084C22.1297 119.969 21.949 119.888 21.7512 119.85C21.5534 119.812 21.3462 119.818 21.1523 119.867C20.9583 119.916 20.7853 120.007 20.6521 120.129L18.5111 122.095C18.491 122.113 18.4667 122.128 18.4393 122.139C18.4119 122.15 18.3821 122.157 18.3516 122.158C18.3211 122.16 18.2904 122.157 18.2614 122.149C18.2323 122.142 18.2055 122.13 18.1823 122.114C18.1592 122.098 18.1402 122.078 18.1265 122.057C18.1127 122.035 18.1045 122.011 18.1023 121.987C18.1001 121.963 18.104 121.938 18.1136 121.915C18.1232 121.892 18.1385 121.871 18.1585 121.852L20.2996 119.887C20.4889 119.713 20.7349 119.584 21.0106 119.514C21.2862 119.444 21.5808 119.436 21.8619 119.491C22.143 119.545 22.3998 119.66 22.6039 119.823C22.808 119.986 22.9516 120.191 23.0189 120.414L29.9646 143.485C29.979 143.533 29.9689 143.583 29.9365 143.625C29.9042 143.667 29.8523 143.696 29.7922 143.708C29.7744 143.711 29.7561 143.712 29.7379 143.712Z" fill="#494949"/>
<path d="M27.175 127.22C28.0193 123.341 25.7848 119.796 22.1839 119.301C18.583 118.806 14.9795 121.55 14.1351 125.429C13.2908 129.307 15.5254 132.853 19.1262 133.347C22.7271 133.842 26.3306 131.099 27.175 127.22Z" fill="#0CBC8B"/>
<path d="M31.6186 144.315C31.609 144.315 31.5993 144.315 31.5898 144.314C31.5594 144.311 31.53 144.303 31.5034 144.291C31.4767 144.279 31.4533 144.263 31.4344 144.244C31.4156 144.225 31.4017 144.203 31.3935 144.179C31.3853 144.156 31.3831 144.131 31.3868 144.107L35.8224 115.5C35.8707 115.188 36.0312 114.894 36.2848 114.653C36.5383 114.413 36.8741 114.235 37.2516 114.142C37.6292 114.049 38.0325 114.045 38.413 114.13C38.7936 114.214 39.1352 114.385 39.3968 114.62L44.4664 119.181C44.4867 119.2 44.5023 119.221 44.5122 119.244C44.5221 119.267 44.5263 119.291 44.5244 119.315C44.5225 119.34 44.5146 119.364 44.5012 119.385C44.4877 119.407 44.469 119.427 44.446 119.443C44.4231 119.459 44.3964 119.471 44.3674 119.479C44.3385 119.487 44.3078 119.49 44.2773 119.489C44.2467 119.487 44.2168 119.481 44.1893 119.47C44.1618 119.46 44.1372 119.445 44.1169 119.427L39.0478 114.865C38.8456 114.684 38.5816 114.552 38.2875 114.486C37.9934 114.421 37.6817 114.424 37.3899 114.496C37.0981 114.568 36.8386 114.705 36.6426 114.891C36.4466 115.077 36.3225 115.304 36.2851 115.545L31.8495 144.153C31.8426 144.197 31.8152 144.239 31.7727 144.268C31.7302 144.298 31.6754 144.315 31.6186 144.315Z" fill="#494949"/>
<path d="M49.6659 121.716C51.4347 119.176 49.3536 115.572 45.0176 113.667C40.6816 111.761 35.7326 112.276 33.9638 114.816C32.195 117.357 34.2762 120.96 38.6122 122.866C42.9482 124.771 47.8971 124.256 49.6659 121.716Z" fill="#0CBC8B"/>
<path opacity="0.2" d="M49.86 138.552C52.7253 136.75 52.555 132.788 49.4796 129.701C46.4043 126.615 41.5884 125.573 38.7231 127.375C35.8577 129.177 36.028 133.139 39.1034 136.226C42.1788 139.312 46.9946 140.354 49.86 138.552Z" fill="white"/>
<path opacity="0.5" d="M27.175 127.22C28.0193 123.341 25.7848 119.796 22.1839 119.301C18.583 118.806 14.9795 121.55 14.1351 125.429C13.2908 129.307 15.5254 132.853 19.1262 133.347C22.7271 133.842 26.3306 131.099 27.175 127.22Z" fill="white"/>
<path opacity="0.5" d="M49.6659 121.716C51.4347 119.176 49.3536 115.572 45.0176 113.667C40.6816 111.761 35.7326 112.276 33.9638 114.816C32.195 117.357 34.2762 120.96 38.6122 122.866C42.9482 124.771 47.8971 124.256 49.6659 121.716Z" fill="white"/>
<path d="M37.2912 168.588H25.9451L24.0648 139.75H39.1713L37.2912 168.588Z" fill="#303C6F"/>
<path opacity="0.3" d="M37.2912 168.588H25.9451L24.0648 139.75H39.1713L37.2912 168.588Z" fill="white"/>
<path d="M49.8606 138.644C49.843 138.644 49.8256 138.641 49.8097 138.635C49.7939 138.629 49.78 138.62 49.769 138.609L38.6317 127.432C38.6222 127.422 38.6151 127.412 38.611 127.4C38.6068 127.388 38.6055 127.376 38.6073 127.364C38.609 127.352 38.6138 127.34 38.6212 127.33C38.6287 127.319 38.6387 127.31 38.6507 127.302C38.6627 127.294 38.6764 127.289 38.6911 127.286C38.7059 127.282 38.7213 127.281 38.7364 127.283C38.7516 127.284 38.7664 127.288 38.7797 127.294C38.7931 127.3 38.8049 127.308 38.8144 127.317L49.9517 138.494C49.9653 138.508 49.9738 138.524 49.9763 138.541C49.9787 138.559 49.9749 138.576 49.9654 138.592C49.9559 138.608 49.941 138.621 49.9225 138.63C49.904 138.639 49.8825 138.644 49.8606 138.644Z" fill="white"/>
<path d="M48.9253 122.612C48.9005 122.612 48.8764 122.605 48.8566 122.593L34.605 114.327C34.5926 114.32 34.5822 114.311 34.5742 114.3C34.5662 114.29 34.5609 114.278 34.5586 114.266C34.5562 114.254 34.5569 114.242 34.5605 114.23C34.5641 114.218 34.5706 114.207 34.5796 114.197C34.5886 114.188 34.6 114.179 34.6131 114.173C34.6261 114.167 34.6406 114.162 34.6558 114.161C34.6709 114.159 34.6863 114.159 34.7012 114.162C34.7161 114.165 34.7301 114.17 34.7425 114.177L48.9941 122.444C49.0136 122.456 49.0281 122.472 49.0354 122.49C49.0427 122.509 49.0424 122.529 49.0347 122.547C49.027 122.566 49.0121 122.582 48.9923 122.593C48.9725 122.605 48.9486 122.611 48.9242 122.611L48.9253 122.612Z" fill="white"/>
<path d="M18.5481 133.227C18.538 133.227 18.5279 133.226 18.5181 133.224C18.4882 133.217 18.4628 133.202 18.4473 133.18C18.4318 133.159 18.4276 133.134 18.4356 133.11L22.9725 119.607C22.9759 119.595 22.9823 119.583 22.9915 119.573C23.0006 119.563 23.0123 119.554 23.0257 119.548C23.0392 119.541 23.0541 119.537 23.0697 119.535C23.0853 119.533 23.1012 119.534 23.1165 119.537C23.1317 119.541 23.1459 119.546 23.1583 119.554C23.1707 119.562 23.181 119.571 23.1886 119.582C23.1961 119.593 23.2008 119.605 23.2023 119.618C23.2038 119.63 23.2022 119.643 23.1974 119.655L18.6604 133.158C18.6538 133.178 18.6392 133.195 18.6189 133.207C18.5986 133.22 18.5737 133.227 18.5481 133.227Z" fill="white"/>
<path d="M104.3 142.345H64.8897L58.7152 146.018V126.572C58.7152 125.846 59.0786 125.149 59.7252 124.635C60.3719 124.122 61.2491 123.833 62.1636 123.833H104.3C105.214 123.833 106.091 124.122 106.738 124.635C107.385 125.149 107.748 125.846 107.748 126.572V139.605C107.748 139.965 107.659 140.321 107.486 140.653C107.312 140.986 107.058 141.288 106.738 141.542C106.418 141.797 106.038 141.998 105.619 142.136C105.201 142.274 104.752 142.345 104.3 142.345Z" fill="#F4F4F4"/>
<path d="M103.39 127.952H63.0737C63.0543 127.953 63.035 127.95 63.0169 127.945C62.9987 127.939 62.9822 127.931 62.9682 127.92C62.9542 127.91 62.9431 127.897 62.9355 127.883C62.9279 127.868 62.9239 127.853 62.9239 127.838C62.9239 127.822 62.9279 127.807 62.9355 127.793C62.9431 127.779 62.9542 127.766 62.9682 127.755C62.9822 127.745 62.9987 127.736 63.0169 127.731C63.035 127.725 63.0543 127.723 63.0737 127.723H103.39C103.41 127.723 103.429 127.725 103.447 127.731C103.465 127.736 103.482 127.745 103.496 127.755C103.51 127.766 103.521 127.779 103.529 127.793C103.536 127.807 103.54 127.822 103.54 127.838C103.54 127.853 103.536 127.868 103.529 127.883C103.521 127.897 103.51 127.91 103.496 127.92C103.482 127.931 103.465 127.939 103.447 127.945C103.429 127.95 103.41 127.953 103.39 127.952Z" fill="white"/>
<path d="M103.39 131.639H63.0737C63.0543 131.639 63.035 131.637 63.0169 131.631C62.9987 131.626 62.9822 131.618 62.9682 131.607C62.9542 131.596 62.9431 131.584 62.9355 131.569C62.9279 131.555 62.9239 131.54 62.9239 131.525C62.9239 131.509 62.9279 131.494 62.9355 131.48C62.9431 131.466 62.9542 131.453 62.9682 131.442C62.9822 131.431 62.9987 131.423 63.0169 131.418C63.035 131.412 63.0543 131.41 63.0737 131.41H103.39C103.41 131.41 103.429 131.412 103.447 131.418C103.465 131.423 103.482 131.431 103.496 131.442C103.51 131.453 103.521 131.466 103.529 131.48C103.536 131.494 103.54 131.509 103.54 131.525C103.54 131.54 103.536 131.555 103.529 131.569C103.521 131.584 103.51 131.596 103.496 131.607C103.482 131.618 103.465 131.626 103.447 131.631C103.429 131.637 103.41 131.639 103.39 131.639Z" fill="white"/>
<path d="M103.39 135.325H63.0737C63.0356 135.325 62.999 135.313 62.9721 135.292C62.9451 135.27 62.93 135.241 62.93 135.211C62.93 135.181 62.9451 135.152 62.9721 135.13C62.999 135.109 63.0356 135.097 63.0737 135.097H103.39C103.429 135.097 103.465 135.109 103.492 135.13C103.519 135.152 103.534 135.181 103.534 135.211C103.534 135.241 103.519 135.27 103.492 135.292C103.465 135.313 103.429 135.325 103.39 135.325Z" fill="white"/>
<path d="M94.7595 139.012H63.0737C63.0543 139.013 63.035 139.01 63.0169 139.005C62.9987 138.999 62.9822 138.991 62.9682 138.98C62.9542 138.969 62.9431 138.957 62.9355 138.942C62.9279 138.928 62.9239 138.913 62.9239 138.898C62.9239 138.882 62.9279 138.867 62.9355 138.853C62.9431 138.839 62.9542 138.826 62.9682 138.815C62.9822 138.804 62.9987 138.796 63.0169 138.791C63.035 138.785 63.0543 138.783 63.0737 138.783H94.7595C94.7789 138.783 94.7982 138.785 94.8163 138.791C94.8345 138.796 94.851 138.804 94.865 138.815C94.879 138.826 94.8901 138.839 94.8977 138.853C94.9053 138.867 94.9093 138.882 94.9093 138.898C94.9093 138.913 94.9053 138.928 94.8977 138.942C94.8901 138.957 94.879 138.969 94.865 138.98C94.851 138.991 94.8345 138.999 94.8163 139.005C94.7982 139.01 94.7789 139.013 94.7595 139.012Z" fill="white"/>
<path d="M67.7323 91.7102H7.61627L0 96.242V72.2527C6.17929e-05 71.3562 0.448385 70.4965 1.24635 69.8626C2.04432 69.2288 3.12656 68.8727 4.25502 68.8727H67.7323C68.8607 68.8727 69.943 69.2288 70.7409 69.8627C71.5388 70.4965 71.9871 71.3562 71.9871 72.2527V88.3302C71.987 89.2266 71.5387 90.0863 70.7408 90.7201C69.9429 91.354 68.8607 91.7101 67.7323 91.7102Z" fill="#F4F4F4"/>
<path d="M66.6116 73.9552H5.37669C5.3296 73.9552 5.28444 73.9403 5.25114 73.9139C5.21785 73.8874 5.19914 73.8515 5.19914 73.8141C5.19914 73.7767 5.21785 73.7409 5.25114 73.7144C5.28444 73.688 5.3296 73.6731 5.37669 73.6731H66.6116C66.6587 73.6731 66.7038 73.688 66.7371 73.7144C66.7704 73.7409 66.7891 73.7767 66.7891 73.8141C66.7891 73.8515 66.7704 73.8874 66.7371 73.9139C66.7038 73.9403 66.6587 73.9552 66.6116 73.9552Z" fill="white"/>
<path d="M66.6116 78.5032H5.37668C5.35284 78.5039 5.32907 78.5007 5.30679 78.494C5.28451 78.4872 5.26417 78.4769 5.247 78.4637C5.22983 78.4506 5.21617 78.4348 5.20684 78.4174C5.19751 78.3999 5.1927 78.3812 5.1927 78.3622C5.1927 78.3433 5.19751 78.3245 5.20684 78.3071C5.21617 78.2896 5.22983 78.2739 5.247 78.2607C5.26417 78.2476 5.28451 78.2373 5.30679 78.2305C5.32907 78.2237 5.35284 78.2206 5.37668 78.2213H66.6116C66.6575 78.2226 66.701 78.238 66.7329 78.2643C66.7649 78.2906 66.7827 78.3257 66.7827 78.3622C66.7827 78.3988 66.7649 78.4339 66.7329 78.4601C66.701 78.4864 66.6575 78.5019 66.6116 78.5032Z" fill="white"/>
<path d="M66.6116 83.051H5.37668C5.35284 83.0517 5.32907 83.0486 5.30679 83.0418C5.28451 83.035 5.26417 83.0248 5.247 83.0116C5.22983 82.9985 5.21617 82.9827 5.20684 82.9652C5.19751 82.9478 5.1927 82.929 5.1927 82.9101C5.1927 82.8911 5.19751 82.8724 5.20684 82.8549C5.21617 82.8375 5.22983 82.8217 5.247 82.8086C5.26417 82.7954 5.28451 82.7851 5.30679 82.7784C5.32907 82.7716 5.35284 82.7684 5.37668 82.7691H66.6116C66.6575 82.7705 66.701 82.7859 66.7329 82.8122C66.7649 82.8385 66.7827 82.8736 66.7827 82.9101C66.7827 82.9466 66.7649 82.9817 66.7329 83.008C66.701 83.0343 66.6575 83.0497 66.6116 83.051Z" fill="white"/>
<path d="M55.9635 87.5992H5.37669C5.3296 87.5992 5.28444 87.5844 5.25114 87.5579C5.21785 87.5315 5.19914 87.4956 5.19914 87.4582C5.19914 87.4208 5.21785 87.3849 5.25114 87.3584C5.28444 87.332 5.3296 87.3171 5.37669 87.3171H55.9635C56.0106 87.3171 56.0558 87.332 56.0891 87.3584C56.1224 87.3849 56.1411 87.4208 56.1411 87.4582C56.1411 87.4956 56.1224 87.5315 56.0891 87.5579C56.0558 87.5844 56.0106 87.5992 55.9635 87.5992Z" fill="white"/>
<path d="M105.958 107.154H177.632L186.714 112.559V83.9563C186.714 82.8877 186.179 81.8629 185.228 81.1073C184.276 80.3517 182.986 79.9272 181.641 79.9272H105.958C104.613 79.9274 103.323 80.352 102.372 81.1075C101.421 81.8631 100.886 82.8878 100.886 83.9563V103.125C100.886 104.194 101.42 105.218 102.371 105.974C103.323 106.73 104.613 107.154 105.958 107.154Z" fill="#F4F4F4"/>
<path d="M107.295 85.986H180.303C180.358 85.9845 180.41 85.9662 180.449 85.9348C180.487 85.9034 180.508 85.8615 180.508 85.8178C180.508 85.7742 180.487 85.7322 180.449 85.7008C180.41 85.6695 180.358 85.6511 180.303 85.6497H107.295C107.24 85.6511 107.188 85.6695 107.15 85.7008C107.112 85.7322 107.09 85.7742 107.09 85.8178C107.09 85.8615 107.112 85.9034 107.15 85.9348C107.188 85.9662 107.24 85.9845 107.295 85.986Z" fill="white"/>
<path d="M107.295 91.4084H180.303C180.358 91.407 180.41 91.3887 180.449 91.3573C180.487 91.3259 180.508 91.2839 180.508 91.2403C180.508 91.1966 180.487 91.1547 180.449 91.1233C180.41 91.0919 180.358 91.0736 180.303 91.0721H107.295C107.24 91.0736 107.188 91.0919 107.15 91.1233C107.112 91.1547 107.09 91.1966 107.09 91.2403C107.09 91.2839 107.112 91.3259 107.15 91.3573C107.188 91.3887 107.24 91.407 107.295 91.4084Z" fill="white"/>
<path d="M107.295 96.8309H180.303C180.358 96.8295 180.41 96.8111 180.449 96.7798C180.487 96.7484 180.508 96.7064 180.508 96.6628C180.508 96.6191 180.487 96.5772 180.449 96.5458C180.41 96.5144 180.358 96.4961 180.303 96.4946H107.295C107.24 96.4961 107.188 96.5144 107.15 96.5458C107.112 96.5772 107.09 96.6191 107.09 96.6628C107.09 96.7064 107.112 96.7484 107.15 96.7798C107.188 96.8111 107.24 96.8295 107.295 96.8309Z" fill="white"/>
<path d="M119.99 102.253H180.303C180.358 102.252 180.41 102.234 180.449 102.202C180.487 102.171 180.508 102.129 180.508 102.085C180.508 102.042 180.487 102 180.449 101.968C180.41 101.937 180.358 101.919 180.303 101.917H119.99C119.935 101.919 119.883 101.937 119.845 101.968C119.807 102 119.785 102.042 119.785 102.085C119.785 102.129 119.807 102.171 119.845 102.202C119.883 102.234 119.935 102.252 119.99 102.253Z" fill="white"/>
<path d="M163.366 58.1561H223.482L231.099 62.6881V38.6986C231.099 37.8023 230.65 36.9427 229.853 36.3089C229.055 35.6751 227.973 35.3188 226.845 35.3186H163.366C162.238 35.3188 161.156 35.6749 160.358 36.3088C159.56 36.9426 159.112 37.8022 159.112 38.6986V54.7759C159.112 55.6723 159.56 56.532 160.358 57.1659C161.156 57.7997 162.238 58.1559 163.366 58.1561Z" fill="#F4F4F4"/>
<path d="M164.488 40.4012H225.722C225.769 40.4012 225.814 40.3864 225.848 40.3599C225.881 40.3335 225.9 40.2976 225.9 40.2602C225.9 40.2228 225.881 40.1869 225.848 40.1605C225.814 40.134 225.769 40.1191 225.722 40.1191H164.488C164.441 40.1191 164.396 40.134 164.362 40.1605C164.329 40.1869 164.31 40.2228 164.31 40.2602C164.31 40.2976 164.329 40.3335 164.362 40.3599C164.396 40.3864 164.441 40.4012 164.488 40.4012Z" fill="white"/>
<path d="M164.488 44.9491H225.722C225.768 44.9478 225.811 44.9324 225.843 44.9061C225.875 44.8798 225.893 44.8447 225.893 44.8082C225.893 44.7717 225.875 44.7366 225.843 44.7103C225.811 44.684 225.768 44.6686 225.722 44.6672H164.488C164.442 44.6686 164.398 44.684 164.366 44.7103C164.335 44.7366 164.317 44.7717 164.317 44.8082C164.317 44.8447 164.335 44.8798 164.366 44.9061C164.398 44.9324 164.442 44.9478 164.488 44.9491Z" fill="white"/>
<path d="M164.488 49.4978H225.722C225.768 49.4965 225.811 49.4811 225.843 49.4548C225.875 49.4285 225.893 49.3934 225.893 49.3569C225.893 49.3204 225.875 49.2853 225.843 49.259C225.811 49.2327 225.768 49.2173 225.722 49.2159H164.488C164.442 49.2173 164.398 49.2327 164.366 49.259C164.335 49.2853 164.317 49.3204 164.317 49.3569C164.317 49.3934 164.335 49.4285 164.366 49.4548C164.398 49.4811 164.442 49.4965 164.488 49.4978Z" fill="white"/>
<path d="M175.135 54.0449H225.722C225.768 54.0436 225.811 54.0282 225.843 54.0019C225.875 53.9756 225.893 53.9405 225.893 53.904C225.893 53.8675 225.875 53.8324 225.843 53.8061C225.811 53.7798 225.768 53.7644 225.722 53.763H175.135C175.112 53.7623 175.088 53.7655 175.066 53.7723C175.043 53.779 175.023 53.7893 175.006 53.8025C174.989 53.8156 174.975 53.8314 174.966 53.8488C174.956 53.8663 174.951 53.885 174.951 53.904C174.951 53.9229 174.956 53.9417 174.966 53.9591C174.975 53.9766 174.989 53.9923 175.006 54.0055C175.023 54.0187 175.043 54.0289 175.066 54.0357C175.088 54.0425 175.112 54.0456 175.135 54.0449Z" fill="white"/>
<path d="M20.6628 84.585L140.789 84.585C143.967 84.585 146.544 82.5379 146.544 80.0126V4.72468C146.544 2.19944 143.967 0.152336 140.789 0.152336L20.6628 0.152336C17.484 0.152336 14.9071 2.19944 14.9071 4.72468V80.0126C14.9071 82.5379 17.484 84.585 20.6628 84.585Z" fill="white"/>
<path d="M14.715 80.0126V4.72486C14.7168 3.47219 15.344 2.27122 16.4591 1.38545C17.5741 0.499673 19.0859 0.00142068 20.6628 0H140.789C142.365 0.00146957 143.877 0.499738 144.992 1.3855C146.107 2.27127 146.735 3.4722 146.736 4.72486V80.0126C146.735 81.2653 146.107 82.4663 144.992 83.352C143.877 84.2378 142.366 84.7361 140.789 84.7375H20.6628C19.0859 84.7361 17.5741 84.2379 16.459 83.3521C15.344 82.4663 14.7168 81.2653 14.715 80.0126ZM20.6628 0.304848C19.1876 0.30617 17.7734 0.772274 16.7303 1.6009C15.6872 2.42953 15.1005 3.55301 15.0988 4.72486V80.0126C15.1005 81.1845 15.6872 82.308 16.7303 83.1366C17.7734 83.9652 19.1876 84.4313 20.6628 84.4326H140.789C142.264 84.4314 143.678 83.9653 144.721 83.1366C145.764 82.308 146.351 81.1845 146.353 80.0126V4.72486C146.351 3.55299 145.764 2.42948 144.721 1.60085C143.678 0.772209 142.264 0.306121 140.789 0.304848H20.6628Z" fill="#303C6F"/>
<path d="M14.907 4.72401V9.32523H146.544V4.72401C146.544 3.5115 145.937 2.34864 144.858 1.49127C143.779 0.633891 142.315 0.152222 140.789 0.152222H20.6628C19.907 0.152149 19.1585 0.270348 18.4602 0.500069C17.7619 0.72979 17.1274 1.06653 16.5929 1.49107C16.0584 1.91561 15.6344 2.41962 15.3452 2.97433C15.0559 3.52905 14.907 4.12359 14.907 4.72401Z" fill="#303C6F"/>
<path d="M119.83 24.6781C119.868 24.5641 119.934 24.4574 120.025 24.3644C120.116 24.2714 120.23 24.1941 120.36 24.1372C120.49 24.0804 120.633 24.0452 120.78 24.0337C120.928 24.0223 121.077 24.0348 121.218 24.0707C121.488 24.1475 121.712 24.3029 121.844 24.5056C121.975 24.7084 122.005 24.9432 121.927 25.1627L121.554 26.296L124.793 23.1478C125.146 22.7928 125.865 22.5361 126.339 22.8766C126.533 22.9981 126.669 23.1681 126.725 23.3588C126.781 23.5496 126.754 23.7498 126.648 23.9269C126.654 23.9287 126.659 23.9311 126.664 23.9339C126.667 23.9363 126.669 23.9389 126.672 23.9417L127.216 23.3942C127.316 23.2934 127.443 23.2115 127.588 23.1544C127.733 23.0974 127.892 23.0666 128.053 23.0642C128.215 23.0619 128.375 23.0881 128.523 23.1409C128.67 23.1937 128.801 23.2719 128.905 23.3697C129.069 23.5284 129.158 23.7269 129.158 23.9317C129.158 24.1365 129.069 24.335 128.905 24.4936L128.674 24.7266C128.68 24.7353 128.683 24.7447 128.685 24.7544C128.885 24.6269 129.135 24.5595 129.391 24.5641C129.648 24.5686 129.894 24.6449 130.087 24.7794C130.296 24.9359 130.422 25.1496 130.44 25.3773C130.458 25.605 130.367 25.8296 130.184 26.0058L129.616 26.5785C129.628 26.5751 129.641 26.5738 129.654 26.5745C129.667 26.5753 129.679 26.5782 129.69 26.583C129.702 26.5878 129.712 26.5944 129.72 26.6024C129.728 26.6104 129.734 26.6197 129.737 26.6296C129.951 26.5567 130.189 26.5403 130.416 26.5826C130.642 26.6249 130.846 26.7237 130.997 26.8646C131.16 27.0233 131.249 27.2218 131.249 27.4266C131.249 27.6314 131.16 27.8299 130.997 27.9885L126.149 32.8707C125.471 33.5536 124.551 34.06 123.509 34.3252C122.466 34.5903 121.347 34.602 120.295 34.3589L116.91 33.5754L119.83 24.6781Z" fill="#EBA285"/>
<g opacity="0.2">
<path d="M123.463 27.0562C123.484 27.069 123.51 27.0748 123.536 27.0725C123.563 27.0701 123.586 27.0598 123.603 27.0436L126.679 24.0464C126.696 24.03 126.704 24.0089 126.701 23.9878C126.698 23.9667 126.685 23.9473 126.664 23.9339C126.644 23.9205 126.617 23.9142 126.59 23.9163C126.564 23.9185 126.539 23.9289 126.523 23.9454L123.447 26.9426C123.43 26.959 123.422 26.9801 123.425 27.0012C123.428 27.0223 123.441 27.0417 123.461 27.0551L123.463 27.0562Z" fill="#635C5C"/>
</g>
<g opacity="0.2">
<path d="M125.091 28.1704C125.112 28.1832 125.138 28.1891 125.164 28.1867C125.19 28.1844 125.214 28.174 125.231 28.1578L128.664 24.813C128.68 24.7965 128.688 24.7754 128.686 24.7543C128.683 24.7331 128.67 24.7137 128.649 24.7003C128.628 24.6876 128.602 24.6818 128.575 24.6839C128.549 24.686 128.525 24.696 128.507 24.7117L125.074 28.0566C125.058 28.073 125.05 28.0941 125.052 28.1153C125.055 28.1364 125.068 28.1558 125.089 28.1693L125.091 28.1704Z" fill="#635C5C"/>
</g>
<g opacity="0.2">
<path d="M126.844 29.3853C126.864 29.3981 126.891 29.404 126.917 29.4016C126.943 29.3993 126.967 29.3889 126.983 29.3727L129.722 26.7046C129.738 26.688 129.744 26.6674 129.741 26.6469C129.738 26.6264 129.725 26.6078 129.705 26.5948C129.685 26.5818 129.659 26.5754 129.633 26.577C129.607 26.5787 129.583 26.5882 129.566 26.6035L126.827 29.2716C126.819 29.2798 126.813 29.2891 126.809 29.2992C126.805 29.3093 126.804 29.3198 126.805 29.3303C126.807 29.3407 126.81 29.3509 126.817 29.3601C126.823 29.3694 126.832 29.3775 126.842 29.3842L126.844 29.3853Z" fill="#635C5C"/>
</g>
<path d="M56.6991 18.1047C56.6991 18.1047 55.4332 23.1722 53.6818 24.8773C48.6397 29.7857 46.4483 35.6682 50.1083 39.2368C53.7682 42.8054 80.3823 45.601 83.5811 38.5917C86.2741 32.6908 82.7374 31.6607 82.6724 26.5564C82.6428 24.2469 82.3183 19.3767 82.3183 19.3767" fill="#534747"/>
<path d="M78.1005 35.7895C78.0539 35.7847 77.5399 42.5639 67.6275 41.9716C60.7652 41.5633 58.3185 35.7795 58.1612 35.7795C58.901 35.6546 60.1468 35.4728 60.4756 35.3336C61.556 34.8724 62.8932 34.3924 63.2415 32.7255C63.4421 31.7647 63.1017 26.8494 63.2063 25.8771L73.74 27.7447C73.5929 29.7977 72.5626 34.5574 76.1734 35.3997C76.7741 35.5397 77.4211 35.6677 78.1005 35.7895Z" fill="#EBA285"/>
<path opacity="0.5" d="M73.8877 33.455C73.7227 33.0326 73.6165 32.597 73.5708 32.1562C73.4553 31.1504 73.4788 30.1375 73.6407 29.1357C71.4997 28.9061 69.4827 28.2041 67.8188 27.1095C67.6233 27.6833 66.5475 30.1906 66.8453 30.736C67.4075 31.767 70.053 33.455 73.8877 33.455Z" fill="#635C5C"/>
<path d="M72.0575 31.841C67.8868 31.732 62.7729 29.8726 62.3827 25.4018L62.0306 21.3668C61.6403 16.8961 64.2797 13.1089 69.5798 12.817C74.8786 12.5251 79.156 15.9312 79.546 20.4019L79.7019 22.1879C79.8508 23.9042 79.4976 32.0355 72.0575 31.841Z" fill="#EBA285"/>
<path d="M71.628 26.7734C72.2105 27.0029 73.4221 27.3102 75.1035 26.8454C75.2868 26.7947 75.4266 26.9607 75.3337 27.1249C74.9772 27.7542 74.1621 28.4805 72.7313 28.2318C72.3639 28.1814 72.027 28.038 71.7708 27.8228C71.5146 27.6077 71.3529 27.3325 71.31 27.0383C71.2716 26.87 71.4645 26.709 71.628 26.7734Z" fill="white"/>
<path d="M78.2273 22.534C78.5886 22.534 78.8815 22.3013 78.8815 22.0142C78.8815 21.7272 78.5886 21.4945 78.2273 21.4945C77.8659 21.4945 77.573 21.7272 77.573 22.0142C77.573 22.3013 77.8659 22.534 78.2273 22.534Z" fill="#635C5C"/>
<path d="M71.512 22.534C71.8734 22.534 72.1663 22.3013 72.1663 22.0142C72.1663 21.7272 71.8734 21.4945 71.512 21.4945C71.1507 21.4945 70.8577 21.7272 70.8577 22.0142C70.8577 22.3013 71.1507 22.534 71.512 22.534Z" fill="#635C5C"/>
<path opacity="0.5" d="M74.6002 25.932H74.6104C74.8253 25.919 75.039 25.8966 75.2507 25.8649C75.5671 25.8156 75.9854 25.7242 75.966 25.5008C75.9427 25.2459 74.8255 22.5458 74.698 22.2387C74.6859 22.2129 74.6616 22.1919 74.6303 22.18C74.5991 22.1681 74.5632 22.1663 74.5303 22.1749C74.4974 22.1836 74.47 22.202 74.4538 22.2263C74.4376 22.2507 74.4338 22.279 74.4434 22.3055C74.9208 23.4555 75.6836 25.344 75.6985 25.5154C75.6519 25.5894 75.1247 25.6901 74.5918 25.719C74.5575 25.7212 74.5255 25.7338 74.5026 25.7542C74.4797 25.7746 74.4675 25.8013 74.4686 25.8286C74.4696 25.8559 74.4839 25.8819 74.5084 25.9011C74.5329 25.9203 74.5658 25.9313 74.6002 25.9319V25.932Z" fill="#635C5C"/>
<path d="M57.6793 22.3531L62.4262 22.1124C66.1134 21.3121 67.8984 16.5732 67.8984 16.5732C67.8984 16.5732 71.6795 20.2843 82.3176 19.3758C82.3176 19.3758 81.9501 7.70593 66.1514 9.60387C61.0571 10.2158 56.9275 13.8327 56.5821 19.1532C56.3401 22.8815 57.6793 22.3531 57.6793 22.3531Z" fill="#534747"/>
<path d="M62.8307 26.7455C61.2205 26.8342 59.7954 25.5376 59.6838 24.2583C59.5722 22.9789 60.816 22.2017 62.4262 22.113L63.331 22.9245L64.2164 26.6693L62.8307 26.7455Z" fill="#EBA285"/>
<path d="M75.9767 20.0984C76.4655 19.907 77.0101 19.8235 77.5534 19.8567C77.8215 19.8716 78.0851 19.9184 78.3356 19.9957C78.5843 20.0713 78.8199 20.1716 79.0369 20.2941C79.0624 20.3079 79.0801 20.329 79.0863 20.353C79.0926 20.377 79.0868 20.4019 79.0702 20.4226C79.0536 20.4432 79.0276 20.458 78.9976 20.4636C78.9676 20.4693 78.936 20.4654 78.9095 20.4529L78.9016 20.4492C78.6972 20.3431 78.477 20.2579 78.2459 20.1954C78.0171 20.1328 77.7778 20.0979 77.536 20.092C77.0557 20.0775 76.5791 20.1643 76.1547 20.3435L76.1429 20.3487C76.1015 20.3668 76.0528 20.3712 76.0074 20.3608C75.962 20.3504 75.9237 20.3261 75.9009 20.2932C75.8781 20.2604 75.8726 20.2217 75.8857 20.1857C75.8988 20.1496 75.9293 20.1192 75.9707 20.101L75.9767 20.0984Z" fill="#635C5C"/>
<path d="M71.7119 20.5979C71.2611 20.4655 70.7742 20.4302 70.3007 20.4954C70.062 20.5269 69.8307 20.5869 69.6147 20.6735C69.3961 20.7598 69.192 20.8676 69.0073 20.9944L69.0005 20.9989C68.9886 21.0069 68.9749 21.0129 68.96 21.0167C68.9452 21.0205 68.9296 21.0219 68.9141 21.0209C68.8985 21.0198 68.8834 21.0164 68.8696 21.0107C68.8557 21.0051 68.8434 20.9973 68.8333 20.9878C68.8233 20.9784 68.8157 20.9675 68.8109 20.9557C68.8062 20.9439 68.8044 20.9315 68.8057 20.9192C68.8069 20.9068 68.8113 20.8948 68.8184 20.8838C68.8255 20.8728 68.8353 20.863 68.8472 20.855C69.0418 20.7106 69.2585 20.5862 69.4922 20.4849C69.7274 20.3818 69.9808 20.3073 70.2438 20.264C70.7768 20.1737 71.3304 20.1987 71.8471 20.3364C71.8917 20.3487 71.9284 20.3745 71.949 20.4083C71.9697 20.4421 71.9726 20.4809 71.9572 20.5164C71.9417 20.5519 71.9092 20.581 71.8667 20.5974C71.8242 20.6138 71.7752 20.6161 71.7306 20.6039L71.7247 20.6022L71.7119 20.5979Z" fill="#635C5C"/>
<path d="M67.8532 16.0559C67.8532 16.0559 68.7002 20.8639 62.4279 22.014" stroke="#635C5C" stroke-width="0.5" stroke-miterlimit="10"/>
<path opacity="0.1" d="M71.6307 25.1453C71.6361 24.7443 71.0824 24.4145 70.3942 24.4087C69.7059 24.4029 69.1436 24.7233 69.1382 25.1243C69.1329 25.5253 69.6865 25.855 70.3748 25.8608C71.063 25.8666 71.6253 25.5463 71.6307 25.1453Z" fill="#635C5C"/>
<path opacity="0.1" d="M77.7955 25.0226C77.7918 25.4232 78.3452 25.7526 79.0334 25.7591C79.1524 25.7602 79.2712 25.7513 79.3878 25.7328C79.4964 25.2658 79.5724 24.8136 79.6236 24.3931C79.4415 24.3364 79.2477 24.3071 79.0521 24.3069C78.3626 24.3002 77.8004 24.6213 77.7955 25.0226Z" fill="#635C5C"/>
<path d="M44.9483 76.0629L43.1544 84.7498H87.8921L86.2198 76.0105L44.9483 76.0629Z" fill="#978888"/>
<path d="M67.4 40.2872C60.5329 40.0301 60.2437 35.4008 60.2437 35.4008C60.2437 35.4008 56.8419 35.5755 54.5793 35.8185C50.876 36.2166 48.4332 37.2141 46.4891 38.7585C44.6806 40.1952 43.5796 41.7494 44.7446 51.6734C45.5883 58.859 44.9483 76.0638 44.9483 76.0638L86.2198 76.0114C86.2198 76.0114 90.0706 53.9483 90.4171 50.7133C91.0781 44.5384 89.6691 39.3184 88.0554 38.0365C84.7375 35.4008 79.0258 35.4008 76.1725 35.4011C76.1268 35.4002 76.7519 40.6374 67.4 40.2872Z" fill="#BDCDD6"/>
<path d="M116.485 28.7729L103.14 48.2064L87.214 37.4823L77.4211 46.6598L100.436 62.1583L100.601 62.2707C101.467 62.8469 102.488 63.2587 103.584 63.4748C104.681 63.691 105.826 63.7058 106.931 63.5181C108.036 63.3304 109.072 62.9452 109.962 62.3917C110.851 61.8382 111.57 61.131 112.065 60.3237L128.365 33.6333L116.485 28.7729Z" fill="#BDCDD6"/>
<path d="M48.9368 68.0505L51.4492 84.4325H36.3059L33.7802 67.0288C33.7718 66.283 33.9377 65.5424 34.2695 64.8447L45.2367 40.2498L59.6337 44.1386L48.9368 68.0505Z" fill="#BDCDD6"/>
<path d="M51.3336 84.4439L48.8177 68.0383L48.8284 68.0165L55.7496 54.0631L55.9666 54.1312L49.056 68.0626L51.5647 84.4215L51.3336 84.4439Z" fill="#635C5C"/>
<path d="M90.4785 49.9837L89.6433 55.2574L89.8432 55.2774L90.6785 50.0037L90.4785 49.9837Z" fill="#635C5C"/>
<path d="M238.14 169H5.04326C5 169 4.95852 168.986 4.92793 168.962C4.89734 168.938 4.88016 168.905 4.88016 168.87C4.88016 168.836 4.89734 168.803 4.92793 168.779C4.95852 168.754 5 168.741 5.04326 168.741H238.14C238.183 168.741 238.225 168.754 238.255 168.779C238.286 168.803 238.303 168.836 238.303 168.87C238.303 168.905 238.286 168.938 238.255 168.962C238.225 168.986 238.183 169 238.14 169Z" fill="#303C6F"/>
<g opacity="0.65">
<path d="M238.14 169H5.04326C5 169 4.95852 168.986 4.92793 168.962C4.89734 168.938 4.88016 168.905 4.88016 168.87C4.88016 168.836 4.89734 168.803 4.92793 168.779C4.95852 168.754 5 168.741 5.04326 168.741H238.14C238.183 168.741 238.225 168.754 238.255 168.779C238.286 168.803 238.303 168.836 238.303 168.87C238.303 168.905 238.286 168.938 238.255 168.962C238.225 168.986 238.183 169 238.14 169Z" fill="#303C6F"/>
</g>
<path opacity="0.49" d="M80.7257 80.3123C86.7519 80.3123 91.637 76.4316 91.637 71.6445C91.637 66.8573 86.7519 62.9766 80.7257 62.9766C74.6995 62.9766 69.8144 66.8573 69.8144 71.6445C69.8144 76.4316 74.6995 80.3123 80.7257 80.3123Z" fill="white"/>
<path d="M80.7257 78.0634C85.1884 78.0634 88.8061 75.1895 88.8061 71.6444C88.8061 68.0992 85.1884 65.2253 80.7257 65.2253C76.263 65.2253 72.6453 68.0992 72.6453 71.6444C72.6453 75.1895 76.263 78.0634 80.7257 78.0634Z" fill="white"/>
<path d="M86.1714 73.7569C86.2652 73.8067 86.3313 73.8833 86.3561 73.9708C86.3808 74.0583 86.3622 74.1501 86.3042 74.227L85.7753 74.9272C85.6351 75.1166 85.4085 75.2558 85.1424 75.3159C84.2633 75.5076 82.3248 75.5461 79.2175 73.0779C76.1102 70.6097 76.1589 69.0692 76.4001 68.371C76.4759 68.1597 76.651 67.9795 76.8894 67.8679L77.7711 67.448C77.8679 67.4019 77.9834 67.3871 78.0935 67.4069C78.2037 67.4266 78.3 67.4792 78.3626 67.5538L79.7681 69.2286C79.8294 69.3019 79.8536 69.391 79.8359 69.4779C79.8181 69.5648 79.7597 69.6432 79.6723 69.6974L78.8829 70.1848C78.7998 70.2355 78.7423 70.3082 78.7209 70.3897C78.6995 70.4712 78.7157 70.5561 78.7664 70.629C78.998 70.9599 79.2177 71.3499 80.3042 72.2145C81.3907 73.079 81.8837 73.2523 82.3003 73.4361C82.3919 73.4763 82.4985 73.4891 82.601 73.4721C82.7034 73.4552 82.7947 73.4095 82.8583 73.3435L83.4723 72.7168C83.5404 72.6473 83.6391 72.6007 83.7485 72.5866C83.858 72.5724 83.9702 72.5917 84.0625 72.6406L86.1714 73.7569Z" fill="#0CBC8B"/>
<path d="M205.111 91.6077C193.509 91.6077 184.104 94.122 184.104 97.2236V103.909H226.118V97.2236C226.118 94.122 216.713 91.6077 205.111 91.6077Z" fill="#BDCDD6"/>
<path opacity="0.49" d="M205.111 91.6077C193.509 91.6077 184.104 94.122 184.104 97.2236V103.909H226.118V97.2236C226.118 94.122 216.713 91.6077 205.111 91.6077Z" fill="white"/>
<path opacity="0.49" d="M220.395 97.2244V103.909H184.104V97.2244C184.104 94.3814 192.002 92.0326 202.249 91.6613C212.497 92.0322 220.395 94.3814 220.395 97.2244Z" fill="white"/>
<path d="M226.117 168.872L226.816 168.312L226.117 103.316L225.418 103.876L225.917 149.669L201.03 150.005L200.527 103.871L199.828 103.876L200.331 150.014L185.307 150.217L184.803 103.871L184.104 103.321L184.803 168.317L185.502 168.867L185.313 150.772L200.337 150.57L200.527 168.872L201.226 168.867L201.036 150.56L225.923 150.224L226.117 168.872Z" fill="#303C6F"/>
<path d="M161.939 159.055C161.939 159.055 160.69 164.2 154.626 164.486C148.563 164.773 149.878 168.61 149.878 168.61H173.048V159.414L161.939 159.055Z" fill="#BDCDD6"/>
<path d="M175.159 143.582C175.159 143.582 176.896 148.636 171.615 151.02C166.333 153.403 169.645 156.385 169.645 156.385L190.436 148.26L185.326 140.008L175.159 143.582Z" fill="#BDCDD6"/>
<path d="M172.959 146.923L157.292 99.9669C156.104 94.7795 157.893 92.531 160.65 90.3467C165.493 86.5091 185.561 78.3412 185.561 78.3412L209.637 78.2892C216.021 78.2892 222.297 83.2898 222.297 88.361C222.297 93.4322 215.807 97.7332 209.423 97.7332L179.776 100.084L187.812 143.078L172.959 146.923Z" fill="#978888"/>
<path d="M187.812 143.078L184.649 126.151L168.62 133.918L172.959 146.923L187.812 143.078Z" fill="#635C5C"/>
<path d="M191.446 87.8431C191.446 87.8431 181.325 89.635 171.301 97.5975C165.224 102.425 165.722 111.162 166.634 127.965L176.589 116.284L187.508 100.639L191.446 87.8431Z" fill="#635C5C"/>
<path d="M226.488 78.2833L210.138 78.222L210.131 78.3931H205.181C205.181 78.3931 192.779 87.4587 182.795 93.1712C175.532 97.3262 171.102 101.288 170.718 105.605C169.783 116.13 159.243 161.016 159.243 161.016L175.106 162.925L189.026 109.282C189.026 109.282 210.794 101.311 215.829 98.5367C220.57 95.9243 223.919 94.9146 225.488 92.0638C228.197 87.1393 226.488 78.2833 226.488 78.2833Z" fill="#978888"/>
<path d="M195.601 21.4323C195.601 21.4323 193.033 19.221 193.231 15.0096C193.385 11.7488 196.607 14.339 196.607 14.339C196.607 14.339 196.747 11.9919 198.796 12.5214C200.845 13.051 201.475 15.6282 201.475 15.6282" fill="#635C5C"/>
<path d="M209.601 14.3517C209.601 14.3517 219.829 16.7394 213.5 27.4259L212.566 27.3422L210.67 27.1727" fill="#635C5C"/>
<path d="M195.105 38.5101C195.152 38.5053 195.669 45.3215 205.638 44.7279C212.539 44.3172 215 38.5005 215.158 38.5005C214.414 38.3748 213.495 38.1842 213.129 38.1188C212.332 37.9719 211.611 37.6359 211.061 37.1554C210.511 36.6749 210.158 36.0728 210.049 35.429C209.847 34.4627 210.189 29.5194 210.084 28.5417L199.491 30.4201C199.639 32.4848 200.675 37.2716 197.044 38.1188C196.439 38.2589 195.788 38.3878 195.105 38.5101Z" fill="#EBA285"/>
<path opacity="0.52" d="M199.342 36.1627C199.508 35.7378 199.615 35.2998 199.66 34.8565C199.777 33.8449 199.753 32.8262 199.591 31.8186C201.744 31.5877 203.772 30.8817 205.446 29.7809C205.642 30.358 206.724 32.8795 206.424 33.4272C205.859 34.4648 203.199 36.1627 199.342 36.1627Z" fill="#635C5C"/>
<path d="M201.071 33.9921C205.251 34.2905 210.643 32.9339 211.724 28.5095L212.7 24.5172C213.782 20.0935 211.733 16.0549 206.489 15.2461C201.245 14.4372 196.449 17.4193 195.367 21.8437L194.935 23.6112C194.8 24.2201 194.718 24.8356 194.688 25.4534C194.595 27.0857 194.46 29.5687 195.449 31.4038C196.381 33.1355 198.401 33.8018 201.071 33.9921Z" fill="#EBA285"/>
<path d="M197.964 29.2376C199.52 29.3803 201.092 29.1071 202.43 28.4611C202.477 28.4389 202.53 28.4276 202.584 28.4287C202.638 28.4297 202.691 28.4429 202.736 28.4669C202.781 28.4908 202.817 28.5245 202.839 28.5639C202.86 28.6033 202.868 28.6468 202.859 28.6893C202.71 29.4179 202.172 30.7472 200.227 30.8438C198.971 30.9062 198.113 30.1092 197.687 29.5852C197.657 29.5488 197.641 29.5065 197.641 29.4632C197.641 29.4199 197.656 29.3775 197.685 29.3409C197.715 29.3043 197.756 29.2751 197.806 29.2568C197.855 29.2385 197.91 29.2319 197.964 29.2376Z" fill="white"/>
<path d="M196.622 24.7261C196.986 24.7261 197.28 24.492 197.28 24.2034C197.28 23.9147 196.986 23.6807 196.622 23.6807C196.259 23.6807 195.964 23.9147 195.964 24.2034C195.964 24.492 196.259 24.7261 196.622 24.7261Z" fill="#635C5C"/>
<path d="M203.019 25.3203C203.383 25.3203 203.677 25.0863 203.677 24.7976C203.677 24.5089 203.383 24.2749 203.019 24.2749C202.656 24.2749 202.361 24.5089 202.361 24.7976C202.361 25.0863 202.656 25.3203 203.019 25.3203Z" fill="#635C5C"/>
<path d="M211.069 29.8072C212.663 30.053 214.286 28.898 214.595 27.632C214.905 26.366 213.783 25.4686 212.19 25.2227L211.161 25.9445L209.699 29.5962L211.069 29.8072Z" fill="#EBA285"/>
<path d="M209.945 27.5399C209.945 27.5399 210.836 21.1871 208.529 20.4552C206.992 19.9679 202.714 21.2091 199.255 20.1511C197.741 19.6884 196.183 19.7824 195.898 20.3488C195.785 20.5732 195.572 17.0858 198.605 14.8986C201.02 13.1572 207.546 13.5058 210.305 14.5874C217.944 17.5822 212.457 25.5466 212.457 25.5466L211.605 27.6583L209.945 27.5399Z" fill="#635C5C"/>
<g opacity="0.52">
<path d="M199.459 28.0455L199.448 28.0442C198.936 27.9661 198.084 27.7895 198.157 27.4841C198.218 27.231 199.748 24.6325 199.922 24.3375C199.929 24.3245 199.94 24.3127 199.953 24.3029C199.966 24.2931 199.981 24.2855 199.997 24.2804C200.014 24.2754 200.032 24.2731 200.05 24.2736C200.068 24.2742 200.085 24.2776 200.101 24.2836C200.118 24.2896 200.132 24.2982 200.144 24.3087C200.156 24.3193 200.165 24.3317 200.171 24.3451C200.177 24.3585 200.179 24.3727 200.178 24.3868C200.176 24.401 200.172 24.4148 200.163 24.4274C199.485 25.578 198.46 27.3519 198.419 27.5242C198.452 27.604 198.966 27.7556 199.498 27.8367C199.532 27.842 199.562 27.8574 199.581 27.8796C199.601 27.9019 199.609 27.9293 199.604 27.9563C199.599 27.9832 199.581 28.0075 199.554 28.0242C199.527 28.0408 199.493 28.0486 199.459 28.0458V28.0455Z" fill="#635C5C"/>
</g>
<path d="M199.095 21.6781C198.581 21.4824 198.009 21.4005 197.442 21.441C197.163 21.4597 196.889 21.5114 196.63 21.5945C196.374 21.6756 196.132 21.7821 195.909 21.9115C195.866 21.9336 195.835 21.9685 195.825 22.0084C195.814 22.0483 195.823 22.09 195.851 22.1244C195.879 22.1587 195.923 22.1829 195.973 22.1916C196.023 22.2003 196.076 22.1927 196.119 22.1707L196.132 22.1642C196.334 22.0619 196.551 21.9801 196.779 21.9208C197.003 21.8614 197.236 21.8293 197.472 21.8256C197.937 21.8155 198.397 21.903 198.806 22.0792L198.823 22.087C198.857 22.1021 198.893 22.1118 198.931 22.1156C198.969 22.1195 199.008 22.1173 199.045 22.1093C199.082 22.1013 199.116 22.0876 199.146 22.069C199.177 22.0503 199.202 22.0271 199.221 22.0007C199.24 21.9743 199.252 21.9452 199.257 21.915C199.262 21.8849 199.259 21.8542 199.249 21.8249C199.239 21.7956 199.222 21.7681 199.198 21.744C199.175 21.72 199.146 21.6999 199.112 21.6848C199.107 21.6831 199.101 21.6805 199.095 21.6781Z" fill="#635C5C"/>
<path d="M202.867 22.4876C203.315 22.3879 203.788 22.384 204.238 22.4761C204.467 22.5214 204.686 22.594 204.888 22.6914C205.093 22.7894 205.282 22.9075 205.45 23.043L205.461 23.0512C205.497 23.0798 205.546 23.096 205.597 23.0962C205.648 23.0963 205.697 23.0805 205.734 23.0521C205.77 23.0237 205.791 22.9851 205.792 22.9445C205.792 22.904 205.773 22.8648 205.738 22.8355C205.557 22.6701 205.351 22.5234 205.124 22.3989C204.894 22.2721 204.642 22.1734 204.375 22.1059C203.833 21.9661 203.254 21.9449 202.698 22.0446C202.623 22.0586 202.557 22.0958 202.516 22.148C202.476 22.2002 202.463 22.2631 202.48 22.3229C202.498 22.3827 202.545 22.4346 202.61 22.467C202.676 22.4994 202.755 22.5097 202.831 22.4957C202.836 22.4946 202.842 22.4935 202.848 22.492L202.867 22.4876Z" fill="#635C5C"/>
<path d="M204.138 15.7244C204.817 14.3942 204.445 13.019 203.307 12.6528C202.169 12.2865 200.697 13.0679 200.019 14.3981C199.34 15.7282 199.712 17.1034 200.85 17.4697C201.987 17.8359 203.46 17.0545 204.138 15.7244Z" fill="#635C5C"/>
<path d="M182.719 53.5181C183.033 56.4484 185.259 74.7315 185.562 78.341H226.47C226.705 75.0854 227.761 60.8498 228.652 54.4835C229.503 48.4086 230.695 45.644 229.715 43.7561C227.987 40.4264 222.485 38.9396 218.76 38.5389C216.485 38.2942 213.063 38.1189 213.063 38.1189C213.063 38.1189 212.774 42.7745 205.866 43.0335C196.462 43.3852 197.09 38.1189 197.043 38.1189C195.52 38.1189 187.227 38.9988 185.154 40.0726C182.225 41.5888 181.36 43.6554 181.326 45.5539C181.286 47.7395 182.362 50.1943 182.719 53.5181Z" fill="#BDCDD6"/>
<path d="M146.686 37.8438C146.619 37.7388 146.526 37.6457 146.412 37.5703C146.298 37.495 146.166 37.4388 146.024 37.4053C145.882 37.3718 145.732 37.3617 145.585 37.3755C145.438 37.3894 145.296 37.4269 145.167 37.4858C144.924 37.6068 144.747 37.7967 144.673 38.0171C144.599 38.2376 144.633 38.4721 144.768 38.6734L145.436 39.7173L141.425 37.1915C140.985 36.9046 140.213 36.776 139.84 37.1891C139.684 37.3406 139.597 37.5298 139.593 37.7257C139.59 37.9215 139.67 38.1126 139.821 38.2676C139.816 38.2703 139.812 38.2735 139.808 38.2771C139.805 38.28 139.803 38.283 139.802 38.2861L139.123 37.8436C138.998 37.7621 138.852 37.7037 138.695 37.6725C138.539 37.6414 138.375 37.6382 138.216 37.6634C138.058 37.6885 137.908 37.7413 137.779 37.8179C137.649 37.8945 137.542 37.9931 137.466 38.1064C137.35 38.2891 137.316 38.4982 137.371 38.6982C137.426 38.8982 137.567 39.077 137.769 39.2042L138.058 39.3926C138.054 39.402 138.054 39.4118 138.055 39.4215C137.825 39.3309 137.562 39.3075 137.313 39.3555C137.064 39.4035 136.844 39.5197 136.692 39.6838C136.53 39.8722 136.464 40.1025 136.507 40.328C136.551 40.5535 136.701 40.7575 136.926 40.8987L137.636 41.3615C137.62 41.3605 137.604 41.3626 137.589 41.3675C137.574 41.3725 137.561 41.3802 137.551 41.39C137.539 41.4021 137.532 41.4166 137.531 41.4318C137.302 41.397 137.065 41.4214 136.855 41.5014C136.645 41.5813 136.473 41.7126 136.363 41.876C136.247 42.0587 136.213 42.2678 136.268 42.4678C136.323 42.6678 136.464 42.8466 136.666 42.9738L142.715 46.9204C143.561 47.4724 144.596 47.8111 145.686 47.8931C146.776 47.9751 147.872 47.7967 148.834 47.3807L151.93 46.0408L146.686 37.8438Z" fill="#EBA285"/>
<g opacity="0.2">
<path d="M143.776 40.784C143.759 40.8 143.735 40.8101 143.709 40.8122C143.683 40.8144 143.657 40.8084 143.636 40.7955L139.825 38.3893C139.815 38.3827 139.806 38.3746 139.8 38.3654C139.793 38.3563 139.789 38.3461 139.788 38.3357C139.786 38.3253 139.787 38.3147 139.791 38.3046C139.794 38.2945 139.8 38.285 139.809 38.2768C139.817 38.2686 139.827 38.2617 139.839 38.2566C139.85 38.2515 139.863 38.2483 139.876 38.2471C139.889 38.2459 139.903 38.2468 139.915 38.2497C139.928 38.2526 139.94 38.2574 139.95 38.264L143.761 40.6702C143.772 40.6767 143.78 40.6848 143.787 40.6939C143.793 40.7031 143.797 40.7132 143.799 40.7237C143.8 40.7341 143.799 40.7447 143.796 40.7548C143.792 40.7649 143.786 40.7743 143.778 40.7825L143.776 40.784Z" fill="#635C5C"/>
</g>
<g opacity="0.2">
<path d="M142.487 42.1484C142.47 42.1644 142.446 42.1745 142.42 42.1767C142.394 42.1788 142.368 42.1728 142.347 42.1599L138.093 39.4749C138.083 39.4684 138.074 39.4603 138.068 39.4511C138.061 39.442 138.057 39.4319 138.056 39.4214C138.054 39.411 138.055 39.4004 138.059 39.3903C138.063 39.3802 138.069 39.3708 138.077 39.3626C138.094 39.3466 138.118 39.3363 138.145 39.3339C138.171 39.3315 138.197 39.3371 138.219 39.3496L142.472 42.0346C142.482 42.0411 142.491 42.0492 142.497 42.0584C142.504 42.0676 142.508 42.0777 142.509 42.0881C142.511 42.0986 142.51 42.1091 142.506 42.1192C142.503 42.1293 142.496 42.1387 142.488 42.1469L142.487 42.1484Z" fill="#635C5C"/>
</g>
<g opacity="0.2">
<path d="M141.101 43.6329C141.084 43.6489 141.06 43.659 141.034 43.6611C141.008 43.6632 140.982 43.6571 140.961 43.6442L137.568 41.5019C137.547 41.4887 137.534 41.4695 137.531 41.4484C137.528 41.4273 137.535 41.4061 137.552 41.3895C137.569 41.3729 137.593 41.3622 137.619 41.3598C137.646 41.3574 137.673 41.3634 137.693 41.3766L141.086 43.5182C141.107 43.5314 141.121 43.5507 141.124 43.5718C141.127 43.5929 141.119 43.6141 141.102 43.6307L141.101 43.6329Z" fill="#635C5C"/>
</g>
<path d="M204.623 85.1424C204.478 85.1693 204.343 85.2194 204.223 85.2894C204.104 85.3595 204.004 85.4481 203.929 85.5499C203.855 85.6517 203.807 85.7644 203.789 85.8814C203.771 85.9983 203.783 86.1169 203.825 86.23C203.915 86.4466 204.105 86.6281 204.357 86.7375C204.609 86.8469 204.904 86.8763 205.182 86.8195L206.617 86.5517L202.577 89.0484C202.122 89.3198 201.781 89.8841 202.198 90.27C202.346 90.4266 202.557 90.5387 202.796 90.5879C203.035 90.6371 203.287 90.6206 203.513 90.541C203.515 90.5454 203.518 90.5496 203.521 90.5534C203.524 90.5558 203.527 90.558 203.531 90.56L202.829 90.9786C202.699 91.0557 202.593 91.1546 202.518 91.2683C202.442 91.3819 202.4 91.5074 202.393 91.6357C202.386 91.7641 202.415 91.892 202.478 92.0103C202.541 92.1286 202.636 92.2344 202.757 92.3199C202.953 92.4532 203.2 92.5286 203.458 92.5335C203.716 92.5383 203.968 92.4723 204.171 92.3466L204.47 92.1685C204.481 92.1731 204.492 92.1761 204.504 92.1774C204.339 92.3333 204.248 92.5304 204.248 92.7342C204.248 92.938 204.338 93.1354 204.502 93.2917C204.694 93.4614 204.96 93.5668 205.246 93.5867C205.532 93.6066 205.817 93.5395 206.043 93.3988L206.778 92.9611C206.773 92.9732 206.772 92.9861 206.774 92.9987C206.777 93.0113 206.783 93.0232 206.793 93.0335C206.805 93.0452 206.821 93.0539 206.839 93.0584C206.742 93.2268 206.716 93.4153 206.764 93.5965C206.811 93.7777 206.931 93.9419 207.105 94.0653C207.3 94.1986 207.548 94.274 207.806 94.2788C208.063 94.2836 208.315 94.2176 208.519 94.0918L214.78 90.3598C215.656 89.8377 216.316 89.1198 216.675 88.2979C217.034 87.476 217.075 86.5877 216.795 85.7469L215.891 83.0396L204.623 85.1424Z" fill="#EBA285"/>
<g opacity="0.2">
<path d="M207.528 88.0861C207.544 88.1029 207.55 88.124 207.547 88.1447C207.543 88.1655 207.529 88.1843 207.509 88.1971L203.661 90.5672C203.651 90.5737 203.639 90.5784 203.626 90.5812C203.614 90.584 203.6 90.5847 203.587 90.5834C203.574 90.5821 203.561 90.5787 203.55 90.5735C203.538 90.5683 203.528 90.5614 203.52 90.5531C203.512 90.5448 203.506 90.5353 203.503 90.5252C203.499 90.515 203.498 90.5044 203.5 90.494C203.501 90.4836 203.506 90.4735 203.512 90.4644C203.519 90.4553 203.528 90.4473 203.538 90.4408L207.385 88.0711C207.406 88.0581 207.433 88.0523 207.459 88.055C207.486 88.0576 207.51 88.0686 207.526 88.0853L207.528 88.0861Z" fill="#635C5C"/>
</g>
<g opacity="0.2">
<path d="M208.891 89.4049C208.906 89.4217 208.913 89.4428 208.91 89.4636C208.906 89.4844 208.892 89.5032 208.871 89.516L204.579 92.1617C204.558 92.1746 204.531 92.1804 204.505 92.1778C204.478 92.1752 204.454 92.1643 204.438 92.1476C204.422 92.1306 204.415 92.1095 204.419 92.0886C204.422 92.0678 204.435 92.0487 204.456 92.0353L208.748 89.3899C208.769 89.377 208.796 89.3712 208.822 89.3738C208.849 89.3764 208.873 89.3873 208.889 89.404L208.891 89.4049Z" fill="#635C5C"/>
</g>
<g opacity="0.2">
<path d="M210.377 90.8261C210.393 90.8429 210.4 90.864 210.396 90.8848C210.392 90.9055 210.379 90.9244 210.358 90.9372L206.933 93.0472C206.912 93.0593 206.885 93.0643 206.86 93.0613C206.834 93.0582 206.81 93.0474 206.794 93.0311C206.779 93.0147 206.771 92.9941 206.774 92.9735C206.777 92.9529 206.789 92.934 206.809 92.9206L210.234 90.8104C210.255 90.7974 210.282 90.7916 210.309 90.7942C210.335 90.7968 210.359 90.8077 210.376 90.8245L210.377 90.8261Z" fill="#635C5C"/>
</g>
<path d="M243.271 66.1664L243.194 66.0402L229.587 43.694L215.954 48.933L227.222 67.438L207.776 82.9364L217.163 90.7288L241.613 73.0054C242.778 72.1586 243.569 71.036 243.867 69.8041C244.166 68.5722 243.957 67.2966 243.271 66.1664Z" fill="#BDCDD6"/>
<path d="M213.541 78.4336C213.518 78.4336 213.495 78.4281 213.476 78.4179C213.457 78.4077 213.442 78.3932 213.433 78.3762C213.424 78.3593 213.422 78.3407 213.427 78.3227C213.431 78.3048 213.442 78.2883 213.459 78.2754L227.311 67.4193L217.012 51.0112C217.005 51.0003 217 50.9882 216.998 50.9757C216.996 50.9632 216.998 50.9506 217.002 50.9386C217.007 50.9266 217.015 50.9155 217.025 50.9059C217.035 50.8963 217.048 50.8885 217.062 50.8829C217.076 50.8773 217.091 50.874 217.107 50.8733C217.123 50.8726 217.139 50.8745 217.154 50.8788C217.169 50.8831 217.182 50.8897 217.194 50.8983C217.205 50.907 217.214 50.9173 217.221 50.9289L227.558 67.3964C227.569 67.4139 227.572 67.4337 227.568 67.4529C227.564 67.4721 227.552 67.4898 227.535 67.5034L213.621 78.4064C213.6 78.4237 213.571 78.4334 213.541 78.4336Z" fill="#635C5C"/>
<path d="M184.129 40.6339L165.095 54.5864L151.085 40.6754L141.741 48.14L157.388 65.3636C158.795 67.598 161.826 68.9505 164.939 68.5959C166.145 68.4585 167.288 68.0851 168.267 67.5092L168.621 67.3019L194.155 50.327L184.129 40.6339Z" fill="#BDCDD6"/>
<path d="M183.269 57.5694C183.241 57.5696 183.213 57.5616 183.192 57.5468C183.17 57.532 183.156 57.5114 183.152 57.4891L182.267 52.2139C182.263 52.1898 182.272 52.1655 182.291 52.1463C182.309 52.1271 182.337 52.1145 182.367 52.1113C182.398 52.1081 182.428 52.1144 182.453 52.129C182.477 52.1436 182.493 52.1653 182.498 52.1893L183.383 57.4645C183.385 57.4765 183.384 57.4888 183.381 57.5006C183.377 57.5124 183.37 57.5234 183.36 57.5331C183.351 57.5428 183.34 57.5509 183.326 57.557C183.313 57.5631 183.298 57.5671 183.283 57.5687C183.278 57.5691 183.274 57.5694 183.269 57.5694Z" fill="#635C5C"/>
<path d="M167.445 57.3934C167.424 57.3935 167.404 57.389 167.386 57.3806C167.368 57.3722 167.353 57.36 167.343 57.3455L164.993 54.6313C164.978 54.6098 164.975 54.5845 164.983 54.5609C164.992 54.5373 165.012 54.5174 165.039 54.5055C165.066 54.4937 165.098 54.4908 165.127 54.4977C165.157 54.5045 165.182 54.5204 165.197 54.5419L167.547 57.2563C167.556 57.2704 167.561 57.2862 167.561 57.3023C167.561 57.3183 167.555 57.3341 167.545 57.3479C167.535 57.3617 167.52 57.3732 167.502 57.3812C167.485 57.3892 167.465 57.3934 167.445 57.3934Z" fill="#635C5C"/>
</svg>
