<svg width="36" height="31" viewBox="0 0 36 31" fill="none" xmlns="http://www.w3.org/2000/svg">
<path d="M24.0015 22.0315L27.1015 19.361C27.519 19.0058 28.0473 18.7626 28.6221 18.6611C29.197 18.5595 29.7937 18.6038 30.3398 18.7888L34.1179 20.0882C34.6698 20.2812 35.143 20.6106 35.478 21.035C35.8129 21.4593 35.9946 21.9595 36 22.4726V28.4335C35.9968 28.7825 35.9116 29.1274 35.7496 29.4473C35.5876 29.7673 35.3521 30.0557 35.0573 30.2951C34.7625 30.5346 34.4145 30.7202 34.0343 30.8408C33.654 30.9614 33.2494 31.0144 32.8447 30.9967C6.37056 29.578 1.02868 10.2647 0.0184301 2.8732C-0.0284664 2.51022 0.0143817 2.14281 0.144156 1.79512C0.273929 1.44744 0.487688 1.12736 0.771368 0.855956C1.05505 0.584549 1.40222 0.367961 1.79005 0.220439C2.17787 0.072918 2.59756 -0.00219261 3.02151 4.87231e-05H9.70578C10.3023 0.00156969 10.8846 0.156781 11.3778 0.44572C11.8711 0.734658 12.2527 1.14411 12.4736 1.62141L13.982 4.87606C14.2038 5.34466 14.2604 5.85918 14.1447 6.35532C14.029 6.85147 13.7462 7.30726 13.3316 7.66575L10.2317 10.3362C10.2317 10.3362 12.0169 20.7439 24.0015 22.0315Z" fill="#303B69"/>
</svg>
