<svg width="31" height="30" viewBox="0 0 31 30" fill="none" xmlns="http://www.w3.org/2000/svg">
<path d="M15.5 0C17.5554 0 19.5267 0.790176 20.9801 2.1967C22.4335 3.60322 23.25 5.51088 23.25 7.5C23.25 9.48912 22.4335 11.3968 20.9801 12.8033C19.5267 14.2098 17.5554 15 15.5 15C13.4446 15 11.4733 14.2098 10.0199 12.8033C8.56652 11.3968 7.75 9.48912 7.75 7.5C7.75 5.51088 8.56652 3.60322 10.0199 2.1967C11.4733 0.790176 13.4446 0 15.5 0ZM15.5 18.75C24.0638 18.75 31 22.1062 31 26.25V30H0V26.25C0 22.1062 6.93625 18.75 15.5 18.75Z" fill="#303B69"/>
</svg>
