<svg width="10" height="10" viewBox="0 0 10 10" fill="none" xmlns="http://www.w3.org/2000/svg">
<path d="M5 0C5.45898 0 5.90007 0.0602214 6.32324 0.180664C6.74642 0.301107 7.14355 0.470378 7.51465 0.688477C7.88574 0.906576 8.22266 1.16862 8.52539 1.47461C8.83138 1.77734 9.09342 2.11426 9.31152 2.48535C9.52962 2.85645 9.69889 3.25358 9.81934 3.67676C9.93978 4.09993 10 4.54102 10 5C10 5.45573 9.93978 5.89681 9.81934 6.32324C9.69889 6.74642 9.52962 7.14355 9.31152 7.51465C9.09342 7.88574 8.83138 8.22428 8.52539 8.53027C8.22266 8.83301 7.88574 9.09342 7.51465 9.31152C7.14355 9.52962 6.74479 9.69889 6.31836 9.81934C5.89518 9.93978 5.45573 10 5 10C4.54427 10 4.10319 9.93978 3.67676 9.81934C3.25358 9.69889 2.85645 9.52962 2.48535 9.31152C2.11426 9.09342 1.77572 8.83301 1.46973 8.53027C1.16699 8.22428 0.906576 7.88574 0.688477 7.51465C0.470378 7.14355 0.301107 6.74642 0.180664 6.32324C0.0602214 5.89681 0 5.45573 0 5C0 4.54427 0.0602214 4.10482 0.180664 3.68164C0.301107 3.25521 0.470378 2.85645 0.688477 2.48535C0.906576 2.11426 1.16699 1.77734 1.46973 1.47461C1.77572 1.16862 2.11426 0.906576 2.48535 0.688477C2.85645 0.470378 3.25358 0.301107 3.67676 0.180664C4.10319 0.0602214 4.54427 0 5 0ZM6.64551 3.55469C6.5153 3.55469 6.40462 3.60026 6.31348 3.69141L4.5459 5.46875L3.91602 4.84375C3.82487 4.7526 3.71582 4.70703 3.58887 4.70703C3.52702 4.70703 3.46842 4.72005 3.41309 4.74609C3.35775 4.77214 3.30729 4.80794 3.26172 4.85352C3.2194 4.89583 3.18522 4.94466 3.15918 5C3.13314 5.05534 3.12012 5.11393 3.12012 5.17578C3.12012 5.30599 3.16569 5.41667 3.25684 5.50781L4.21387 6.46484C4.30501 6.55599 4.41569 6.60156 4.5459 6.60156C4.67611 6.60156 4.78678 6.55599 4.87793 6.46484L6.97754 4.35547C7.06868 4.26432 7.11426 4.15365 7.11426 4.02344C7.11426 3.96159 7.10124 3.90299 7.0752 3.84766C7.04915 3.79232 7.01335 3.74349 6.96777 3.70117C6.92546 3.6556 6.87663 3.61979 6.82129 3.59375C6.76595 3.56771 6.70736 3.55469 6.64551 3.55469Z" fill="#6BB700"/>
</svg>
