<svg width="24" height="24" viewBox="0 0 24 24" fill="none" xmlns="http://www.w3.org/2000/svg">
<path d="M12 18.2857C12.7956 18.2857 13.5587 18.0449 14.1213 17.6162C14.6839 17.1876 15 16.6062 15 16C15 15.3938 14.6839 14.8124 14.1213 14.3838C13.5587 13.9551 12.7956 13.7143 12 13.7143C11.2044 13.7143 10.4413 13.9551 9.87868 14.3838C9.31607 14.8124 9 15.3938 9 16C9 16.6062 9.31607 17.1876 9.87868 17.6162C10.4413 18.0449 11.2044 18.2857 12 18.2857ZM21 8C21.7956 8 22.5587 8.24082 23.1213 8.66947C23.6839 9.09813 24 9.67951 24 10.2857V21.7143C24 22.3205 23.6839 22.9019 23.1213 23.3305C22.5587 23.7592 21.7956 24 21 24H3C2.20435 24 1.44129 23.7592 0.87868 23.3305C0.31607 22.9019 0 22.3205 0 21.7143V10.2857C0 9.67951 0.31607 9.09813 0.87868 8.66947C1.44129 8.24082 2.20435 8 3 8H4.5V5.71429C4.5 4.19876 5.29018 2.74531 6.6967 1.67368C8.10322 0.602039 10.0109 0 12 0C12.9849 0 13.9602 0.147804 14.8701 0.434974C15.7801 0.722144 16.6069 1.14306 17.3033 1.67368C17.9997 2.2043 18.5522 2.83423 18.9291 3.52752C19.306 4.22081 19.5 4.96388 19.5 5.71429V8H21ZM12 2.28571C10.8065 2.28571 9.66193 2.64694 8.81802 3.28992C7.97411 3.9329 7.5 4.80497 7.5 5.71429V8H16.5V5.71429C16.5 4.80497 16.0259 3.9329 15.182 3.28992C14.3381 2.64694 13.1935 2.28571 12 2.28571Z" fill="#303B69"/>
</svg>
