<svg width="30" height="31" viewBox="0 0 30 31" fill="none" xmlns="http://www.w3.org/2000/svg">
<path d="M15 23.619C15.9946 23.619 16.9484 23.308 17.6516 22.7543C18.3549 22.2006 18.75 21.4497 18.75 20.6667C18.75 19.8836 18.3549 19.1327 17.6516 18.579C16.9484 18.0253 15.9946 17.7143 15 17.7143C14.0054 17.7143 13.0516 18.0253 12.3484 18.579C11.6451 19.1327 11.25 19.8836 11.25 20.6667C11.25 21.4497 11.6451 22.2006 12.3484 22.7543C13.0516 23.308 14.0054 23.619 15 23.619ZM26.25 10.3333C27.2446 10.3333 28.1984 10.6444 28.9016 11.1981C29.6049 11.7517 30 12.5027 30 13.2857V28.0476C30 28.8306 29.6049 29.5816 28.9016 30.1353C28.1984 30.6889 27.2446 31 26.25 31H3.75C2.75544 31 1.80161 30.6889 1.09835 30.1353C0.395088 29.5816 0 28.8306 0 28.0476V13.2857C0 12.5027 0.395088 11.7517 1.09835 11.1981C1.80161 10.6444 2.75544 10.3333 3.75 10.3333H5.625V7.38095C5.625 5.4234 6.61272 3.54603 8.37087 2.16183C10.129 0.777634 12.5136 0 15 0C16.2311 0 17.4502 0.190914 18.5877 0.561842C19.7251 0.932769 20.7586 1.47645 21.6291 2.16183C22.4997 2.84722 23.1902 3.66089 23.6614 4.55638C24.1325 5.45188 24.375 6.41167 24.375 7.38095V10.3333H26.25ZM15 2.95238C13.5082 2.95238 12.0774 3.41896 11.0225 4.24948C9.96763 5.08 9.375 6.20642 9.375 7.38095V10.3333H20.625V7.38095C20.625 6.20642 20.0324 5.08 18.9775 4.24948C17.9226 3.41896 16.4918 2.95238 15 2.95238Z" fill="#303B69"/>
</svg>
