<svg width="37" height="34" viewBox="0 0 37 34" fill="none" xmlns="http://www.w3.org/2000/svg">
<path d="M29.2916 18.4167C29.8158 18.4167 30.3245 18.4733 30.8333 18.5442V14.1667C30.8333 13.4152 30.5084 12.6946 29.9302 12.1632C29.352 11.6318 28.5677 11.3333 27.75 11.3333H26.2083V8.5C26.2083 4.59 22.755 1.41667 18.5 1.41667C14.245 1.41667 10.7916 4.59 10.7916 8.5V11.3333H9.24996C8.43221 11.3333 7.64795 11.6318 7.06971 12.1632C6.49148 12.6946 6.16663 13.4152 6.16663 14.1667V28.3333C6.16663 29.9058 7.53871 31.1667 9.24996 31.1667H21.2904C20.5041 29.92 20.0416 28.475 20.0416 26.9167C20.0416 22.2275 24.1887 18.4167 29.2916 18.4167ZM13.875 8.5C13.875 6.14833 15.9408 4.25 18.5 4.25C21.0591 4.25 23.125 6.14833 23.125 8.5V11.3333H13.875V8.5ZM18.5 24.0833C17.8901 24.0833 17.294 23.9172 16.787 23.6058C16.2799 23.2945 15.8847 22.852 15.6513 22.3343C15.418 21.8165 15.3569 21.2469 15.4759 20.6972C15.5948 20.1476 15.8885 19.6428 16.3197 19.2465C16.7509 18.8503 17.3003 18.5804 17.8984 18.4711C18.4965 18.3618 19.1165 18.4179 19.6799 18.6323C20.2433 18.8468 20.7249 19.2099 21.0637 19.6759C21.4025 20.1418 21.5833 20.6896 21.5833 21.25C21.5833 22.8225 20.2112 24.0833 18.5 24.0833ZM34.6875 24.4375L27.3645 31.1667L23.125 26.9167L24.9133 25.2733L27.3645 27.5258L32.8991 22.44L34.6875 24.4375Z" fill="#303B69"/>
</svg>
