<svg width="32" height="26" viewBox="0 0 32 26" fill="none" xmlns="http://www.w3.org/2000/svg">
<path fill-rule="evenodd" clip-rule="evenodd" d="M23.3333 21.6666C24.2174 21.6666 25.0652 21.3813 25.6903 20.8734C26.3155 20.3655 26.6667 19.6766 26.6667 18.9583C26.6667 18.24 26.3155 17.5511 25.6903 17.0432C25.0652 16.5353 24.2174 16.25 23.3333 16.25C22.4493 16.25 21.6014 16.5353 20.9763 17.0432C20.3512 17.5511 20 18.24 20 18.9583C20 19.6766 20.3512 20.3655 20.9763 20.8734C21.6014 21.3813 22.4493 21.6666 23.3333 21.6666ZM23.3333 22.75C24.571 22.75 25.758 22.3505 26.6332 21.6394C27.5083 20.9283 28 19.9639 28 18.9583C28 17.9527 27.5083 16.9883 26.6332 16.2772C25.758 15.5661 24.571 15.1666 23.3333 15.1666C22.0956 15.1666 20.9087 15.5661 20.0335 16.2772C19.1583 16.9883 18.6667 17.9527 18.6667 18.9583C18.6667 19.9639 19.1583 20.9283 20.0335 21.6394C20.9087 22.3505 22.0956 22.75 23.3333 22.75Z" fill="#303B69"/>
<path fill-rule="evenodd" clip-rule="evenodd" d="M23.3333 17.0625C23.5101 17.0625 23.6797 17.1196 23.8047 17.2212C23.9298 17.3227 24 17.4605 24 17.6042V18.7341L24.4713 19.117C24.5928 19.2192 24.66 19.356 24.6584 19.4981C24.6569 19.6401 24.5868 19.7759 24.4632 19.8764C24.3396 19.9768 24.1724 20.0338 23.9976 20.035C23.8228 20.0362 23.6544 19.9816 23.5287 19.883L22.6667 19.1826V17.6042C22.6667 17.4605 22.7369 17.3227 22.8619 17.2212C22.9869 17.1196 23.1565 17.0625 23.3333 17.0625ZM9.33332 12.4583H7.99999V13.5417H9.33332V12.4583ZM7.99999 11.375C7.64637 11.375 7.30723 11.4891 7.05718 11.6923C6.80713 11.8955 6.66666 12.171 6.66666 12.4583V13.5417C6.66666 13.829 6.80713 14.1045 7.05718 14.3077C7.30723 14.5109 7.64637 14.625 7.99999 14.625H9.33332C9.68694 14.625 10.0261 14.5109 10.2761 14.3077C10.5262 14.1045 10.6667 13.829 10.6667 13.5417V12.4583C10.6667 12.171 10.5262 11.8955 10.2761 11.6923C10.0261 11.4891 9.68694 11.375 9.33332 11.375H7.99999ZM14.6667 12.4583H13.3333V13.5417H14.6667V12.4583ZM13.3333 11.375C12.9797 11.375 12.6406 11.4891 12.3905 11.6923C12.1405 11.8955 12 12.171 12 12.4583V13.5417C12 13.829 12.1405 14.1045 12.3905 14.3077C12.6406 14.5109 12.9797 14.625 13.3333 14.625H14.6667C15.0203 14.625 15.3594 14.5109 15.6095 14.3077C15.8595 14.1045 16 13.829 16 13.5417V12.4583C16 12.171 15.8595 11.8955 15.6095 11.6923C15.3594 11.4891 15.0203 11.375 14.6667 11.375H13.3333ZM20 12.4583H18.6667V13.5417H20V12.4583ZM18.6667 11.375C18.313 11.375 17.9739 11.4891 17.7238 11.6923C17.4738 11.8955 17.3333 12.171 17.3333 12.4583V13.5417C17.3333 13.829 17.4738 14.1045 17.7238 14.3077C17.9739 14.5109 18.313 14.625 18.6667 14.625H20C20.3536 14.625 20.6927 14.5109 20.9428 14.3077C21.1928 14.1045 21.3333 13.829 21.3333 13.5417V12.4583C21.3333 12.171 21.1928 11.8955 20.9428 11.6923C20.6927 11.4891 20.3536 11.375 20 11.375H18.6667ZM9.33332 16.7917H7.99999V17.875H9.33332V16.7917ZM7.99999 15.7083C7.64637 15.7083 7.30723 15.8225 7.05718 16.0256C6.80713 16.2288 6.66666 16.5043 6.66666 16.7917V17.875C6.66666 18.1623 6.80713 18.4379 7.05718 18.641C7.30723 18.8442 7.64637 18.9583 7.99999 18.9583H9.33332C9.68694 18.9583 10.0261 18.8442 10.2761 18.641C10.5262 18.4379 10.6667 18.1623 10.6667 17.875V16.7917C10.6667 16.5043 10.5262 16.2288 10.2761 16.0256C10.0261 15.8225 9.68694 15.7083 9.33332 15.7083H7.99999ZM14.6667 16.7917H13.3333V17.875H14.6667V16.7917ZM13.3333 15.7083C12.9797 15.7083 12.6406 15.8225 12.3905 16.0256C12.1405 16.2288 12 16.5043 12 16.7917V17.875C12 18.1623 12.1405 18.4379 12.3905 18.641C12.6406 18.8442 12.9797 18.9583 13.3333 18.9583H14.6667C15.0203 18.9583 15.3594 18.8442 15.6095 18.641C15.8595 18.4379 16 18.1623 16 17.875V16.7917C16 16.5043 15.8595 16.2288 15.6095 16.0256C15.3594 15.8225 15.0203 15.7083 14.6667 15.7083H13.3333Z" fill="#303B69"/>
<path fill-rule="evenodd" clip-rule="evenodd" d="M5.33333 6.5C5.33333 6.35634 5.40357 6.21857 5.5286 6.11698C5.65362 6.0154 5.82319 5.95833 6 5.95833H9.33333V4.875H6C5.46957 4.875 4.96086 5.0462 4.58579 5.35095C4.21071 5.6557 4 6.06902 4 6.5V19.5C4 19.931 4.21071 20.3443 4.58579 20.649C4.96086 20.9538 5.46957 21.125 6 21.125H19.5033C19.219 20.7941 19.0018 20.4284 18.86 20.0417H6C5.82319 20.0417 5.65362 19.9846 5.5286 19.883C5.40357 19.7814 5.33333 19.6437 5.33333 19.5V6.5ZM22.6667 15.2046C23.1089 15.1532 23.5578 15.1532 24 15.2046V6.5C24 6.06902 23.7893 5.6557 23.4142 5.35095C23.0391 5.0462 22.5304 4.875 22 4.875H20V5.95833H22C22.1768 5.95833 22.3464 6.0154 22.4714 6.11698C22.5964 6.21857 22.6667 6.35634 22.6667 6.5V15.2046ZM10.6667 5.95833H17.7087V4.875H10.6667V5.95833Z" fill="#303B69"/>
<path fill-rule="evenodd" clip-rule="evenodd" d="M18.6667 4.875H10.6667V6.5C10.6667 6.64366 10.5964 6.78143 10.4714 6.88302C10.3464 6.9846 10.1768 7.04167 9.99999 7.04167C9.82318 7.04167 9.65361 6.9846 9.52859 6.88302C9.40356 6.78143 9.33332 6.64366 9.33332 6.5V4.875H5.99999C5.64637 4.875 5.30723 4.98914 5.05718 5.1923C4.80713 5.39547 4.66666 5.67102 4.66666 5.95833V8.66667C4.66666 8.95398 4.80713 9.22953 5.05718 9.4327C5.30723 9.63586 5.64637 9.75 5.99999 9.75H22C22.3536 9.75 22.6928 9.63586 22.9428 9.4327C23.1928 9.22953 23.3333 8.95398 23.3333 8.66667V5.95833C23.3333 5.67102 23.1928 5.39547 22.9428 5.1923C22.6928 4.98914 22.3536 4.875 22 4.875H20V6.5C20 6.64366 19.9298 6.78143 19.8047 6.88302C19.6797 6.9846 19.5101 7.04167 19.3333 7.04167C19.1565 7.04167 18.9869 6.9846 18.8619 6.88302C18.7369 6.78143 18.6667 6.64366 18.6667 6.5V4.875Z" fill="#303B69"/>
<path fill-rule="evenodd" clip-rule="evenodd" d="M24 9.74996H5.33334V8.66663H24V9.74996Z" fill="#303B69"/>
<path d="M8 3.79167C8 3.64801 8.07024 3.51023 8.19526 3.40865C8.32029 3.30707 8.48986 3.25 8.66667 3.25C8.84348 3.25 9.01305 3.30707 9.13807 3.40865C9.2631 3.51023 9.33333 3.64801 9.33333 3.79167V5.95833C9.33333 6.10199 9.2631 6.23977 9.13807 6.34135C9.01305 6.44293 8.84348 6.5 8.66667 6.5C8.48986 6.5 8.32029 6.44293 8.19526 6.34135C8.07024 6.23977 8 6.10199 8 5.95833V3.79167ZM17.3333 3.79167C17.3333 3.64801 17.4036 3.51023 17.5286 3.40865C17.6536 3.30707 17.8232 3.25 18 3.25C18.1768 3.25 18.3464 3.30707 18.4714 3.40865C18.5964 3.51023 18.6667 3.64801 18.6667 3.79167V5.95833C18.6667 6.10199 18.5964 6.23977 18.4714 6.34135C18.3464 6.44293 18.1768 6.5 18 6.5C17.8232 6.5 17.6536 6.44293 17.5286 6.34135C17.4036 6.23977 17.3333 6.10199 17.3333 5.95833V3.79167Z" fill="#303B69"/>
</svg>
