<svg width="17" height="17" viewBox="0 0 17 17" fill="none" xmlns="http://www.w3.org/2000/svg">
<path d="M1.22113 0.0514945L16.5756 7.61746C16.8233 7.73952 16.9252 8.03927 16.8031 8.28697C16.7544 8.3858 16.6744 8.46578 16.5756 8.51448L1.22144 16.0803C0.973739 16.2023 0.673989 16.1005 0.551933 15.8528C0.498561 15.7445 0.486189 15.6205 0.517102 15.5038L2.4858 8.07012L0.516755 0.627888C0.446124 0.360932 0.605278 0.087263 0.872235 0.0166325C0.988927 -0.0142416 1.11285 -0.001859 1.22113 0.0514945ZM1.76445 1.43403L3.37357 7.51612L3.43555 7.50412L3.5 7.5H10.5C10.7761 7.5 11 7.72386 11 8C11 8.24546 10.8231 8.44961 10.5899 8.49194L10.5 8.5H3.5C3.4686 8.5 3.43787 8.4971 3.40807 8.49157L1.76508 14.6976L15.2234 8.06597L1.76445 1.43403Z" fill="#242424"/>
</svg>
