<svg width="21" height="20" viewBox="0 0 21 20" fill="none" xmlns="http://www.w3.org/2000/svg">
<mask id="mask0_9523_235349" style="mask-type:luminance" maskUnits="userSpaceOnUse" x="0" y="0" width="21" height="20">
<path d="M5.0625 5C3.95793 5 3.0625 5.89543 3.0625 7V13C3.0625 14.1046 3.95793 15 5.0625 15H11.0625C12.1671 15 13.0625 14.1046 13.0625 13V11.9713L15.9038 13.8182C16.4027 14.1425 17.0625 13.7844 17.0625 13.1893V6.81097C17.0625 6.21571 16.4023 5.85768 15.9034 6.18236L13.0625 8.03118V7C13.0625 5.89543 12.1671 5 11.0625 5H5.0625ZM13.0625 9.22429L16.0625 7.27195V12.7287L13.0625 10.7787V9.22429ZM12.0625 7V13C12.0625 13.5523 11.6148 14 11.0625 14H5.0625C4.51022 14 4.0625 13.5523 4.0625 13V7C4.0625 6.44772 4.51022 6 5.0625 6H11.0625C11.6148 6 12.0625 6.44772 12.0625 7ZM6.95413 2.0301C6.5876 2.16339 6.30181 2.29759 6.10465 2.40046C6.00604 2.45191 5.92947 2.49558 5.87593 2.52748C5.84916 2.54343 5.82813 2.55645 5.81296 2.56603L5.79462 2.57776L5.78877 2.58158L5.78668 2.58296L5.78515 2.58397C5.78498 2.58409 5.78515 2.58397 6.0625 3L5.78515 2.58397C5.55539 2.73715 5.4933 3.04759 5.64648 3.27735C5.79959 3.50702 6.10941 3.56943 6.33914 3.4165L6.34695 3.41151C6.35498 3.40644 6.36862 3.39797 6.38774 3.38658C6.426 3.36379 6.48615 3.32934 6.56722 3.28704C6.72944 3.20241 6.9749 3.08661 7.29587 2.9699C7.93775 2.73649 8.87977 2.5 10.0625 2.5C11.2452 2.5 12.1872 2.73649 12.8291 2.9699C13.1501 3.08661 13.3956 3.20241 13.5578 3.28704C13.6389 3.32934 13.699 3.36379 13.7373 3.38658C13.7564 3.39797 13.77 3.40644 13.778 3.41151L13.7858 3.41646C13.7857 3.41637 13.7852 3.41603 14.0473 3.02283L13.7858 3.41646C14.0155 3.56908 14.3255 3.5069 14.4785 3.27735C14.6317 3.04759 14.5689 2.73669 14.3392 2.58351L14.0625 3C14.3399 2.58397 14.3393 2.58362 14.3392 2.58351L14.3383 2.58296L14.3362 2.58158L14.3304 2.57776L14.312 2.56603C14.2969 2.55645 14.2758 2.54343 14.2491 2.52748C14.1955 2.49558 14.119 2.45191 14.0203 2.40046C13.8232 2.29759 13.5374 2.16339 13.1709 2.0301C12.4378 1.76351 11.3798 1.5 10.0625 1.5C8.74523 1.5 7.68725 1.76351 6.95413 2.0301ZM6.33914 3.4165C6.33855 3.41689 6.33902 3.41658 6.33914 3.4165V3.4165ZM13.7858 3.41646C13.7857 3.41639 13.7859 3.41653 13.7858 3.41646V3.41646ZM6.95413 17.9699C7.68725 18.2365 8.74523 18.5 10.0625 18.5C11.3798 18.5 12.4378 18.2365 13.1709 17.9699C13.5374 17.8366 13.8232 17.7024 14.0203 17.5995C14.119 17.5481 14.1955 17.5044 14.2491 17.4725C14.2758 17.4566 14.2969 17.4436 14.312 17.434L14.3304 17.4222L14.3362 17.4184L14.3383 17.417L14.3392 17.4165C14.3393 17.4164 14.3399 17.416 14.0625 17L14.3392 17.4165C14.5689 17.2633 14.6317 16.9524 14.4785 16.7226C14.3255 16.4931 14.0155 16.4309 13.7858 16.5835L14.0473 16.9772C13.7852 16.584 13.7857 16.5836 13.7858 16.5835L13.778 16.5885C13.77 16.5936 13.7564 16.602 13.7373 16.6134C13.699 16.6362 13.6389 16.6707 13.5578 16.713C13.3956 16.7976 13.1501 16.9134 12.8291 17.0301C12.1872 17.2635 11.2452 17.5 10.0625 17.5C8.87977 17.5 7.93775 17.2635 7.29587 17.0301C6.9749 16.9134 6.72944 16.7976 6.56722 16.713C6.48615 16.6707 6.426 16.6362 6.38774 16.6134C6.36862 16.602 6.35498 16.5936 6.34695 16.5885L6.33914 16.5835C6.10941 16.4306 5.79959 16.493 5.64648 16.7226C5.4933 16.9524 5.55539 17.2628 5.78515 17.416L6.0625 17C5.78515 17.416 5.78498 17.4159 5.78515 17.416L5.78668 17.417L5.78877 17.4184L5.79462 17.4222L5.81296 17.434C5.82813 17.4436 5.84916 17.4566 5.87593 17.4725C5.92947 17.5044 6.00604 17.5481 6.10465 17.5995C6.30181 17.7024 6.5876 17.8366 6.95413 17.9699ZM6.33914 16.5835C6.33855 16.5831 6.33902 16.5834 6.33914 16.5835V16.5835ZM13.7858 16.5835C13.7857 16.5836 13.7859 16.5835 13.7858 16.5835V16.5835Z" fill="white"/>
</mask>
<g mask="url(#mask0_9523_235349)">
<rect x="0.0625" width="20" height="20" fill="currentColor"/>
</g>
</svg>
